<svg width="81" height="80" fill="none" xmlns="http://www.w3.org/2000/svg"><path d="M60.543 30.31c2.484 1.988 4.472 4.97 5.962 7.951l7.454-3.478c-1.491-4.97-4.97-9.441-9.441-12.423l-3.975 7.95ZM17.81 22.858 7.375 0H17.81l7.453 15.9c-1.988 1.491-4.969 3.976-7.453 6.957Zm15.403 31.801h9.441L67.5 0H57.064L37.685 41.74l-1.987-4.473c-3.478 2.981-5.466 11.429-2.485 17.391Zm20.87-9.937-4.472 9.937h15.404c-.994 8.448-8.447 15.901-18.882 15.901-11.926 0-21.367-9.938-21.367-22.36 0-8.944 4.472-16.398 11.926-20.373l4.969-10.931c-15.404 1.987-26.833 15.403-26.833 31.304C14.828 65.59 28.244 80 45.636 80c6.956 0 15.9-3.478 19.379-8.447v7.453h8.944V44.721H54.083Z" fill="#00A388"/></svg>