<svg width="80" height="80" fill="none" xmlns="http://www.w3.org/2000/svg"><g clip-path="url(#a)"><path d="M80.333 0h-80v80h80V0Z" fill="#00A388"/><path d="M54.246 33.217c1.74 1.392 3.13 3.479 4.174 5.566l5.218-2.435c-1.044-3.478-3.479-6.609-6.61-8.696l-2.782 5.565ZM24.333 28 17.03 12h7.304l5.218 11.13c-1.392 1.044-3.479 2.783-5.218 4.87Zm10.783 22.26h6.609L59.115 12h-7.303L38.245 41.218l-1.391-3.131c-2.435 2.087-3.826 8-1.74 12.174Zm14.608-6.956-3.13 6.957h10.783c-.696 5.913-5.913 11.13-13.218 11.13-8.347 0-14.956-6.956-14.956-15.652 0-6.26 3.13-11.478 8.348-14.26l3.478-7.653C30.246 25.218 22.246 34.61 22.246 45.74 22.246 57.913 31.638 68 43.812 68c4.87 0 11.13-2.435 13.565-5.913v5.218h6.26v-24H49.725Z" fill="#fff"/></g><defs><clipPath id="a"><path fill="#fff" transform="translate(.333)" d="M0 0h80v80H0z"/></clipPath></defs></svg>