<svg width="188" height="100" fill="none" xmlns="http://www.w3.org/2000/svg"><g clip-path="url(#a)"><path fill-rule="evenodd" clip-rule="evenodd" d="m177.583 43.448.681-.172-1.021-1.545.34-.172-1.361-1.546.68-.344c-.34-.514-1.022-.857-.851-1.373.851-.859-1.363-1.201-1.192-2.232l.851-.172-1.532-1.03c-.171-.173-.511-.687 0-.86-.682-.858-2.384-.514-2.554-1.717-1.702-.342-4.257-.342-5.96 0 0-.172-.34-.514 0-.686 2.724-1.031 5.619-.344 7.832-2.232-.68-1.203 1.363-2.062 2.044-3.264-.852-1.202.851-2.232 1.022-3.778-.682-.858-.511-2.233-.34-3.434l-.342-.172c-1.021 1.03-1.873 2.918-3.405 2.576-.511 1.202-.851 2.405-1.703 3.09l-.34-.514c-.681.858-1.022 1.889-1.533 2.404-.169.172-.511.344-.68 0 0 0-.172-.515-.341-.172l-2.724 4.637c-1.534-1.545.34-2.576 0-4.293.17-1.374-1.534-1.89-2.384-2.576l3.576-3.779-.682-.515 1.703-2.061-.341-.343c.17-.858 1.362-1.545 1.704-2.576-1.023-.858.34-2.748-.683-4.121-1.191.343-1.021 2.232-2.043 2.919h-.169c-.171 1.717-1.873 1.545-2.044 3.434-1.192 0-1.363 1.89-1.873 2.404l-.511-2.06-2.724 1.203c-1.021-1.375-1.021-3.436-2.555-4.637-.51 1.201-2.042 0-2.724 0-1.021.686-2.213-.344-3.234-.515l.85 1.888c-1.361 1.717 1.534.859 1.192 2.404.511.344 1.363.344 1.874 1.03.17.86 1.873.687 3.065 1.031-.852 1.546-3.236 2.06-3.236 4.123 1.873.685 3.405 1.545 4.768 2.747 0 .858 0 2.06.34 2.92.852.686 1.873 1.373 3.236 1.201.681 1.545 1.532 3.435.851 4.98-1.192-1.03-2.384-2.748-3.235-4.293l-.511.344c-.852-.515-1.192-1.89-1.873-2.404-1.021.858-1.532-1.718-2.555-.688-.34-2.06-1.872-1.03-2.042-2.919-.851.172-1.363-.859-2.214-1.373-.17.858.34 1.888 0 2.746l-.51.172c.169.859.51 1.89-.171 2.404.171.859 1.192 2.062.171 2.234.169.858 2.384 1.029 1.361 2.06.852.344 2.215.516 2.384 1.374l1.703.171c.681 0 1.702.516 1.022 1.375l.851-.344c1.192-.515 3.405-1.202 4.597.172 1.022 2.233-.85 3.949-1.192 6.01l-3.405 2.404c-.511-2.404-.851-3.949-2.895-5.494-.85-4.466-5.96-5.324-7.832-8.931-2.894-3.09-3.065 3.435-5.96 1.545l1.022-1.201c.341.172.852 1.03 1.192.515-.34-.687-.511-1.718-.171-2.232l1.023.686c1.021-.858-.511-1.202-.171-2.404.511 1.03 1.532 1.718 2.553 1.89-.34-1.031-2.042-2.062-1.702-3.264.852 1.374 3.236 1.717 2.725 3.778.681.515.681 0 1.532.172l.681-4.293h.34c-.51-2.06 1.192-6.183-1.872-7.556l1.191-1.717-1.701-.344c1.021-1.203 2.042-2.576 1.532-3.95-.852.343-1.022 1.718-2.044 1.374.512-1.546-.17-3.263-1.532-4.464-.511-.344-.682-1.203-1.192-1.203-.171.515.51 1.03.34 1.717L143.359 7.9l-.341 1.373c-1.022-.514-1.192-1.717-2.384-2.232-1.362-.516-2.384.515-3.235 1.202-.171-1.202-.341-2.404-1.192-3.263-.511.859-.511 1.375-1.192 1.89-.34-.345-.851-1.031-.681-1.375-.34.172-.682-1.03-1.363-.858-.511 1.03-.511 2.06-.511 3.091-3.574-2.233-7.832-4.98-11.408-7.556h-1.021l-.169.687 10.385 9.273c-1.873 1.545-3.235-1.89-5.448-.859-1.023.859-2.213-.344-3.065.859-1.363 1.717 1.192 2.576 1.533 3.779l-.341.514c.341 1.031-1.192 1.718-1.022 2.748-1.362-.344-2.554.343-3.576 1.031l.34.343c.171-.171.512.344.512 0 2.554-.515 2.043 4.122 5.278 2.92 1.362-.515 2.044-2.234 1.704-3.779 1.021.172 2.212.516 2.893 1.373 2.044.344 1.703 2.406 2.384 3.951-.34.515-1.192.515-1.021 1.03l-.682-.171c-.681.172-.51 1.03-.34 1.374h-.17c-.68-.516-1.874-.688-1.874-1.545-.34.17-.681.685-.85.17 1.021 0 .51-1.03.51-1.717-.681 1.374-1.873-.858-3.065-.172-1.873 1.546-3.576.344-5.619 1.719-.681.857-1.021 1.373-.852 2.23.512-.342.852-1.2 1.534-.685l-.852 1.716c-2.043.859-4.087 1.89-6.13 1.89-.34-2.92 1.192-5.324 3.236-7.728-1.533-.171-2.896.514-4.088 1.374.512-2.405 2.555-4.809 4.768-6.01-1.532-.687-3.405.342-4.597.514.681-2.576 3.065-3.949 5.62-4.293-1.363-1.545-3.576-.687-5.109-.687l1.362-1.889-1.702.172 1.021-1.717c.681-1.203 2.725-1.89 3.065-3.092-5.789 1.03-8.513 6.698-10.046 11.678l-2.724-2.404c.17-.344.51-.858 1.192-.858.852 0 1.192-1.203 1.192-1.547.681-.343 1.362-.857 1.192-1.717 2.213.516 1.192-2.404 2.554-2.919.851-1.373-1.362-1.717-.681-2.92-.341-.859-.681-1.545-1.533-1.89-1.022.345-1.192-.17-2.214-.342-1.021.172-1.532.343-2.894.343-.511 1.889-2.214-.171-2.554 1.546-1.363-.344-1.703 1.03-3.065.687V.859l-1.192.514.68-1.201L89.724 0c0 .515.681.687.51 1.203L89.213.859l-.17 4.636c-.34-.171-.681-.515-1.362-.343-.341-1.203-1.874 0-2.214-1.373-1.192.686-1.362-1.203-2.554-1.031-.851 1.373-1.192-.688-2.384-.344-.851 1.717-2.554-.515-3.405 1.545.68 1.546-1.363 1.89-.851 3.435.51.688 1.021 1.203.68 2.061.17.859 1.022 1.374 1.703 1.202v.688c.34.514.681.858 1.362 1.029-.51 2.061 2.384.86 2.384 2.576l-2.043 1.375c-1.873-4.466-5.62-8.931-10.217-9.618l2.044 1.89.34.342v.174l-.34-.516-.341.342c-.85-.686-2.043-1.201-3.064-1.201.34 1.201 2.554 2.232 3.234 3.779-1.191-.344-3.064-.86-4.086-.344 1.532 1.201 3.406 2.061 4.427 3.606l-2.384-.686c1.022 1.373 2.895 2.918 3.406 4.464-1.533-.515-2.895-1.546-4.427-1.202 2.043 1.374 4.767 3.607 4.597 6.526-1.362-1.202-2.895-2.404-4.597-2.062 2.553 1.718 4.086 4.294 4.086 7.386-2.554.858-3.065-2.404-5.449-2.748-.681-.859-.681-2.062-.34-3.435-.17-1.375-.51-3.779-1.533-4.98l.511-.172c-.681-1.03-.51-3.09-1.703-3.95.171-.343.512-.858.171-1.202-.681.172-1.192-.515-1.362-.859-1.192-.172-.34-1.373-.17-1.717.34-1.03.85-2.576-.17-3.263-1.193-.858-3.066-1.03-4.428-.858-.34-.687.17-1.718 0-2.404-1.022.686-1.022.514-1.703 1.373.17.515 1.022 1.03.681 1.375L56.35 5.152l-1.192.859-.17-.172 1.19-1.202-1.19-1.718-.512 2.405c-1.532-.859-3.405-1.89-5.108-.859-1.532 1.202 0 3.435-1.362 4.638-1.362 0-1.703 1.716-2.724 2.574-1.022 1.031-1.703-1.201-2.384-.17-.51.857-.51 2.232 0 3.09-.34 2.232.17 4.464-1.362 6.011-.851.687-1.703 0-2.214-.516-.681 1.03-.17 2.405.511 3.435l-.851.688 2.213 1.373c-1.533.859-.17 2.748-1.192 3.779.682 1.201.341 2.232 1.362 3.262l-1.703 1.03c-.51.86.171 1.717.34 2.405 1.363.687.172-1.203 1.534-1.03.68 0 1.021.514 1.021 1.03a4.53 4.53 0 0 0 2.555 2.748c-.171-.859-.512-2.233-.171-2.92.17 1.203 1.362 2.92 0 3.95l-6.3 2.06c-3.235 1.202-8.003-.514-8.854 3.95L26.04 43.62c.51-2.061-2.043-5.324 1.022-7.041 2.213-.515 3.405 1.545 4.937 2.404 1.363-.515 2.214 1.202 3.576 1.374 0-1.374 1.533.343 1.873-.688 1.362.174 1.533-1.029 2.895-.857.17-.859-1.703-1.032-1.192-2.233h-.34c-.681 0-1.533-.172-1.363-.859h-1.192c-.51-1.03-1.703.172-2.043-1.03-1.703-.171-3.065 1.03-4.257 1.03 1.192-.859 2.554-1.717 3.746-2.576.17-.17 1.362-.515 1.192-1.03 1.703-1.03 1.703-3.435 2.214-4.809-.852 0-1.533 1.374-2.555.859-1.02 1.373-2.894.687-3.064 2.404-1.022 0-.852 1.717-1.703 1.375l-.17 1.716c-.852 1.889-4.087 1.717-5.108 3.436-.682-.859-1.703-1.89-1.193-2.92.682.344 1.362.514 2.214.172.852-1.374 3.065-1.374 3.406-2.576.68-.687 0-1.89.85-2.404.852-1.547 0-3.092-.17-4.294.17-1.202-1.02-2.404-1.702-2.748l2.895.515c.85-.687 2.213-.687 2.724-1.888 1.532-.516 1.362-2.233 2.214-3.436l-.341-2.747c-1.021.171-1.703 2.404-2.895 1.718-.851 1.201-1.702.514-2.554 1.373-1.192-.515-1.703 1.373-3.405 1.545l-.852 2.062-.34-.172c-.17-1.203 0-2.919-.51-4.122-.682.172-.682-.858-1.193-1.202-.851.344-.851-1.202-1.532-.687-1.192-.687-3.065-1.201-4.427-1.201.51 1.373.68 2.746 1.702 3.949.34.515-.17 1.03.682 1.201 0 1.719 2.383 1.375 3.405 1.89-1.192.344-2.214 1.03-2.383 2.577-3.066.685-1.193 3.605-2.215 5.323.171 1.373.852 2.92 2.044 3.95l-.17 1.888-3.406-2.232.17-3.434c-.51-.859-.51-1.89-.68-2.748-1.022-.344-1.533-1.718-2.215-2.92l-.51.173c-1.022-1.547-2.725-2.92-3.576-4.295l-.17.516c.17.343-.511.859-.17.687l-.511.515c.34 1.202-.341 1.374 0 2.404 0 .344.34 1.03-.341 1.03l.681 1.374c-.681.86.681 1.202.852 1.889-.34 1.375 1.702 1.203 1.192 2.748 2.213 1.03 4.427 2.061 5.619 3.779-1.704 0-2.895-.516-4.768-.344-.51 1.202-2.043.344-2.214 1.889-1.873.687-.68 1.888-1.362 3.435.681.342.17 1.545.51 2.232 1.023.172.682 1.889 1.363 2.748.341-.859.681-1.546 1.362-2.234 1.193 0 1.193-2.06 2.725-2.23 0-1.031 1.362-.344 1.192-1.547 1.192-.687 1.021-2.576 2.724-2.404 2.554 1.203 3.746 3.95 3.916 6.01-1.703-.514-4.086-1.717-5.789-.343-1.191 1.374.17 2.92.34 4.465.171 1.03-1.191 2.233-.51 3.263.681 1.717 2.724 2.061 4.086 2.92-.34.858-1.873 1.373-1.191 2.404.68.859 1.361 1.374 2.043 1.545 0-1.202.85-2.06 1.532-3.09 2.214.858 4.768 1.373 6.981 1.888 11.068 2.92 21.284-2.06 31.671-3.778l-.851 1.545c-.341 1.031 0 2.405.851 2.749 1.022.686 2.213.515 3.065-.173.68-.515.34-1.889-.17-2.232 1.362 0 2.383.172 3.576.687-1.193 1.202-1.874 1.718-1.704 3.263 4.087-2.576 8.514 1.03 13.282-.344 3.235-1.545.17-5.323 1.532-7.728l2.214 1.374c-.681.859-.681 1.89-.51 2.748.34.859 1.02 1.374 1.872 1.374 1.873-1.718 2.214 1.202 3.235 1.889.681.343 1.873.343 2.555 0l1.362.687c.85-1.03 1.702-.172 3.064-.344 1.533-.171 1.533-2.06 2.725-2.747l.17.343c1.022.344 1.873.172 2.894-.687.341-1.03.341-2.232-.511-3.263l2.384-1.374c.851 1.89-.51 4.465.171 6.354.68 1.203 1.873 1.718 3.235 1.718 3.917-.172 7.662-2.404 11.408 0 .17-1.374-.851-2.404-1.703-3.091 1.021-.687 2.213-1.03 3.576-.859-.511.343-.681.687-.681 1.202.17.687.681 1.374 1.362 1.545 1.022.344 2.384 0 2.895-1.03.511-1.202 0-2.747-.681-3.606 4.257.344 7.321 1.89 11.408 2.748 9.025 2.404 18.56 2.06 27.073-.859.852.687 1.703 2.061 1.873 3.091.852-.686 1.703-1.202 1.874-2.404l-1.192-1.545c1.021-.687 2.042-.859 3.234-1.89 1.023-.858.682-2.404.342-3.262-.852-2.062 2.042-4.294 0-5.839-.852-1.03-2.214-.516-3.236-.172 1.362-2.232 1.362-4.98 1.873-7.385.681-.171 1.021-.515 1.532 0 1.533 1.889-.169 4.981 1.023 7.041l.34-.343c.852.343.852 1.374 1.362 1.89.17-.516.511-.174.851 0 0 2.232 1.873.686 2.555 2.574.681-.686 1.021.516 1.872.688.681-.858 1.873.343 2.725.343-.171-.859-.852-1.545-.852-2.404Zm-9.705-15.97c1.192.171 1.702-1.031 2.384-1.89 1.362 0 1.873-1.888 2.554-3.09 1.022-.173 1.703-1.031 2.212-2.062.852 2.061-.169 3.607-.85 5.495 0 1.202-1.703 1.889-2.214 3.092l-3.917.858c2.215-1.545 4.599-2.92 6.131-5.496-.171-.17.169-.685-.171-.685-1.872 2.06-4.085 4.12-6.64 5.323-.341-.344.34-.859.511-1.546Zm-14.814 2.06-.341.171c.681 2.748 3.405 3.091 5.449 4.638l1.532.686c-1.021.172-2.042 1.031-3.064-.172-1.873.344-2.214-1.373-3.917-1.373-.34-1.03-1.872-1.375-1.361-2.748-.342-.344-.171-.859 0-1.203-.511-1.373.51-1.888.34-3.262l.852.686v-.17c.169 1.201 1.361 1.201 2.042 2.404.171.172.852.686 1.192.172.34.514 1.022 1.373 1.874 1.373.169 1.373 2.384 1.545 2.553 3.263-2.043-1.03-5.448-2.06-7.151-4.466ZM32.171 35.891c1.532-.687 2.724.687 4.257.344.17.859 1.192 1.03 1.532 1.03l.68 1.03c-2.042 1.03-4.086 1.373-6.3-.343-.51.171-.51-.344-.85-.516 1.703.516 4.086 1.203 5.619 1.031-.852-1.89-3.576-1.89-4.938-2.576Zm1.022-5.839c.34-1.202 1.702-.686 2.383-1.03.34 1.373-.68 2.061-1.873 2.92-.34 1.201-1.873 1.201-2.554 2.06 1.022-1.203 2.554-2.404 3.236-4.122-1.703.687-2.725 2.062-3.917 3.263.34-1.373 1.532-2.576 2.725-3.09Zm-16.687.859c-1.703-2.233-3.746-4.981-4.938-7.728-.17 2.919 1.362 4.98 3.065 7.556-2.213.344-1.362-2.233-2.895-2.576.34-.687-.51-1.203-1.022-1.717-.51-1.718-.17-3.435.17-5.152.511 1.202 2.044 1.889 2.725 3.09 1.192-.342.511 1.375 1.362 1.375.511.343.34 1.373 1.021 1.545.172 1.031 1.022 2.404.512 3.607Zm-.681 7.384c-1.192.172-.681 1.203-2.043 1.547-.341 1.201-1.703 1.029-2.214 2.06-.34-.344-.17-1.375-.852-1.375.34-1.373-.68-2.404.17-3.777 1.193-1.203 2.896-2.576 5.109-1.718-1.703 1.031-4.427 3.263-4.087 5.667 1.192-1.717 3.065-3.435 5.108-4.636-.17 1.03-1.021.687-1.191 2.232ZM163.28 18.032c1.192-.172 1.192-1.89 2.214-2.232 0-1.375 1.702-1.375 1.702-2.748.682.515-.51 1.545.342 2.06-1.703 1.375-1.363 3.264-2.895 4.637 0 1.203-1.363 1.546-2.044 2.576-.34-1.717.171-2.748.681-4.293Zm-8.684-.344c-1.192-.172-1.362-1.717-2.553-2.06v-.859c.511.171 1.361.687 1.872 0 .511.515 1.873.687 2.384.171l1.532 3.779c-1.021-.172-2.553.172-3.235-1.031Zm5.619 1.203c-1.192 1.373-2.895 2.746-4.256 3.434 1.021-1.373 2.724-2.748 4.256-3.434Zm-1.021 6.869-2.895-2.233c1.363-.515 2.213 1.202 3.065 2.061l-.17.172Zm3.405 3.435c-1.192.342-2.553.342-2.895-.859-1.021-1.375 2.384-2.748-.169-4.121l-1.533-1.718.341-.344c.68.687 1.192 1.547 1.872 2.062.171-1.031-.511-1.89-1.021-2.748.51-.172 1.021 1.373 1.532 2.233l.341-.173c-.341-1.374-.681-2.575-.341-3.606l.681 4.636c1.533 0 2.895.859 2.895 2.234-.34 1.029-.682 2.06-1.703 2.404Zm-2.553 15.97c.169 1.203-1.534 1.203-2.215 1.374.341-.859 1.533-.859 2.215-1.374Zm-4.087-1.717c0 1.03 1.361 2.232.169 2.576-.85.172-1.702-.172-2.213-.687-1.532-1.889 1.533-.516 2.044-1.889Zm-11.92 3.779c-.511-.172 0-1.375.341-1.718l.34-.172c0 .343-1.021 1.202-.681 1.89Zm-1.192 0c-.68.17-1.701 0-2.213-.172 1.362-1.031.512-2.404.681-3.779-.511-.859-1.703-1.717-2.724-1.545 1.703-.859 3.405-2.576 4.087-4.122.51.515 1.192 1.546 2.042 1.718-.51 1.545.852 2.404-.51 3.606.852 1.888-1.703 2.404-1.363 4.294Zm-4.085-2.92c-5.619 1.717-10.047.858-15.155-1.546 0-2.404-1.703-4.465-2.384-6.869-.852.515-.34 1.717-.171 2.576.171 1.375 1.363 2.92 1.194 4.293-3.407 0-7.154-.344-10.728.172.34-.686.681 0 1.192-.344l-.171-1.201c.681.343.511 1.716 1.363 1.03.34-.515-.682-1.03-.34-1.546.509.516.34 2.232 1.872 1.545-.342-.858-1.192-2.06-.851-2.918.681.686.509 3.262 2.213 2.748l-1.362-3.435.17-.344c.511 1.201.682 3.263 2.043 3.95.171.171.341 0 .511-.171-1.022-1.89-1.362-3.092-1.703-5.496.681 1.889 1.192 4.637 2.725 5.838.851-.172 0-.858 0-1.201-.681-1.89-2.044-3.95-1.533-6.183.852 2.404.852 5.495 2.895 7.384h.17c-.85-3.09-2.213-6.353-2.213-9.789.169 0 .34-.17.511-.343.17 3.435.51 7.212 2.384 10.132 1.192-1.545-1.023-3.09-1.023-4.809-.34-2.404-.851-4.464.171-6.525.681.858 2.213 1.03 3.405 1.545-.171 1.03-.851 2.92.171 3.95l1.362 1.718c.682-.688.17-1.89.17-2.576l.341.172c.171-1.203 1.361-2.576 1.873-3.435 0 .515 0 1.03.51 1.374l.172-.172 1.19-4.122c2.895 1.718 4.939 2.92 7.492 4.98.511 1.718-.34 4.466-1.702 6.011 0-1.03.852-1.888 1.021-2.92.171-.685.171-1.716 0-2.404-1.872-.17-.68 2.404-1.192 2.92-.68.344-.34 1.373-1.191 1.717-.17-.858 1.191-1.889.851-3.606-.511-.343-1.363 0-1.363.688.171.858-.509 1.717-.681 2.404-.68-.172 1.193-4.123-.851-1.89 0 .687-.34 1.203-.51 1.718-.852-.515.51-1.89-.511-2.576-.852.686-.171 2.404-1.363 2.404.171-.859.511-2.06 0-2.576-.85-.172-.85.516-.681.516v.17-.17l-1.361-1.375c-.851 1.375 1.192 2.576.852 3.95 1.021.858 2.212 0 3.234.515 2.724.515 4.598 2.919 7.492 2.919.68 1.03 1.022 1.547.511 2.576-.341 1.375-2.044.859-3.065.516.51-.516 2.213 0 2.554-1.375l-.51-.514Zm-27.244-2.748c-.171.514-.682 1.03-1.023 1.202h-.851c.342 0 1.532-.344 1.874-1.202Zm-1.023-.343v-.344h.172l-.172.344Zm1.704-.688c.851-.343 1.363-.685 1.363-1.545.509.344-.171 1.03-.342 1.374-.34.171-.681.343-1.021.171Zm2.043-2.404c1.022-.344 1.362-1.373 1.362-2.06.511.687-.34 1.373-.512 1.89l-.85.17Zm6.981-9.617c0 1.03 1.363 2.405 2.213 2.92-.681 0-1.19-.172-2.042-.687l-.171-2.233Zm3.576 4.122c.851 1.03-.341 2.232 0 3.607-.852-1.03.34-2.405 0-3.607Zm13.963 1.546-.171-.516c-.171 0-.171 0-.171-.171l.171.17c.34.689 1.703 1.031 1.873.86-.512.515-1.362 0-1.702-.343Zm1.872 2.061c1.702.515 0 2.06-.34 2.747l-.852.86c.682-1.031.852-2.063 1.192-3.607Zm-2.043-1.03c1.703.17.34 2.403.34 3.09-.681 1.03-1.021 2.232-2.213 2.92.681-1.373 2.213-3.607 1.873-6.01Zm4.597.17v-.343c.851.172 1.532.515 1.703 1.203v.343c-.171-.343-.681-1.718-1.703-1.203Zm.511 1.719.171-.516c-.171 1.03.85 1.545 1.532 1.889-.852.172-1.532-.688-1.703-1.373Zm1.703 5.666c.34-.172 0-.344.34-.514-.34.686-.68 1.373-.17 2.404-.681-.344-.51-1.375-.17-1.89Zm1.702-1.889-.17-.172c.512.172.512.859.341 1.547l-.171.342c0 .172-.17.344-.34.344l.34-.344a1.565 1.565 0 0 0 0-1.717Zm-1.532-3.607c.511-.17 1.192.515 1.362 1.031-.17-.172-1.022-1.03-1.362-1.03Zm.34 1.718c-.34.516-.34 1.717.34 2.405-.68-.172-.85-1.03-.68-1.545l.34-.86Zm.511 5.324-.171-.172c.512.172.512.686.342 1.202-.342.343-.342 1.031-1.022.859.851-.344 1.022-1.375.851-1.89Zm.511 2.061c1.192-.859-.17-3.092 1.533-3.607.511-1.717-1.021-3.092-.681-4.808-.34-1.717-2.384-1.374-2.214-2.92l-.681-.514c1.361.17 3.235 1.201 4.427 2.746.681 1.89 1.362 3.607 2.894 4.638 0 1.545.171 4.121 1.874 5.152-2.214.514-5.45.686-8.003.514-.341-.686.851-.514.851-1.201Zm8.684-3.95c-2.043 1.889-2.214-.687-3.064-1.718l.68-1.03 2.384 2.747ZM145.062 30.74h.68c1.873 2.919 5.449 4.636 7.152 7.384.681 1.203-1.192.859-1.192 1.719-1.022-.86-1.022-2.406-1.703-3.607-1.192-2.061-5.108-1.717-4.257-4.81-1.532-.686-.511 1.374-1.022 1.718-.681.344-1.702 1.03-1.873 0 .681-.687 1.873-1.201 2.215-2.404Zm-1.874 5.496-.341.17h-.169c-.171 0-.511-.17-.852-.514-.34-.344-.851-.687-.511-1.203-.169 1.031 1.021 1.203 1.363 1.718.169 0 .34 0 .51-.171Zm-.852-1.89v.343c-.34-.686-1.361-1.545-2.212-1.201.34-.515 1.872-.172 2.212.859Zm2.214-10.131 2.044 2.404c-.852-.344-1.874-1.374-2.044-2.404Zm3.576 3.09c-.511-1.889-3.064-3.434-3.916-5.496 1.192 1.375 2.213 2.748 3.916 3.264 0 .687.341 1.546 0 2.232Zm-8.684-19.577c.682 0 1.362.344 1.704.859-.852-.172-1.874.342-2.384.516-.171-.516.169-1.031.68-1.375Zm-1.703 2.404c.171.515.341 1.203.852 1.545.34-.342.681-1.03.851-1.373.682-.687 1.022-.687 1.873-.687-1.021.515-2.043.859-2.384 1.89-.169.514 0 1.029.511 1.201.51-.859 1.022-1.89 2.384-2.061.852-.171 1.533.86 2.213 1.202l.511-.686.512 1.201c-1.363 1.03-2.726-3.09-4.598-.515-.34.687-1.022 1.031-.34 1.718l.34.344c.17-.687.682-1.547 1.532-1.547 1.022.344 2.724 1.719 3.746.688l.51-.516c-.34.516-.169 1.547-1.19 1.547-1.534 0-3.236-2.406-4.428-.172.17.514.341.686.681.858 1.363-1.545 3.235 1.202 5.108.171l1.023-.343c-.512.343-.682 1.374-1.534 1.203-.17.687 1.022 1.373 1.363 1.373-1.703 0-3.236-1.717-4.768-2.233-.511 0-1.021.688-.34 1.03.169.86.851 0 1.192.517 2.043 2.574 5.619 1.545 5.619 5.322-1.192-1.545-3.066-1.888-4.768-2.748l1.362.172c-.17-.857-1.362-1.888-2.384-2.06-.17.515.171 1.203.682 1.374l-.342.172v.514c.171.172.342.344.342.516 1.872 1.203 4.426 2.06 4.937 4.122-2.384-.859-3.745-2.404-4.937-4.122l-.171-.172-.171-.344c-.681-1.029-1.361-2.404-2.213-3.605l-3.576-4.637v-.859Zm2.725 7.384v-.343h.17v.343h-.17Zm-3.917-6.01c-.169-.515-.68-1.03-.511-1.546l.511 1.547Zm0 .687-.34 1.374c-.34-.172.34-.859.34-1.374Zm-.511-4.809v2.061l-.169-.516c-.681.344-1.192 1.718-1.192 2.578-.171-1.031.68-3.092 1.361-4.123Zm-1.361 4.293.34.172h-.34l-.171-.172h.171Zm-1.192-5.322.511 1.373h-.511V6.355Zm.511 2.404c-.511 1.373-1.023 2.404-.682 3.777-.51 0-.681-1.03-.852-1.717-.169-1.202.683-1.716 1.534-2.06Zm-9.876-5.324c2.384 1.545 5.278 3.606 7.832 5.494-.34.344-.682 1.203-1.022.344l-6.81-5.838Zm1.021 16.142c-.171.687-.851 1.031-1.532 1.031-1.533-.172-1.533-2.061-2.895-2.92 1.022.516 1.703 1.545 2.555 1.545.169-.686 0-1.717-.171-2.404.34.859.68 1.375.68 2.404-.169.516-.68.172-.85.344l-.171-.172-.169.172c.34.515 1.19.859 1.872.344.852-.516.17-1.717.17-2.405.852.172.682 1.375.511 2.061Zm7.152 6.183c.34-.687-1.023-1.03-.171-1.717l-.17-.516c.681-.343.852.858 1.533 1.03.681 0 2.043.516 2.384-.514 0-.516-.681-.859-1.363-1.031 1.703 0 3.235-.859 3.746-2.576 0-.859.341-2.06-.34-2.92-.852 1.03-.511 3.092-1.532 3.779 0-.687.51-1.031.169-2.062-.851 1.031-2.043 2.748-3.745 2.404.51-.514 2.213-1.029 2.724-2.06-1.192.172-2.214.859-3.576.859.681-.344 1.873-.859 1.873-1.545-.68-.172-1.532 1.03-2.555.514.342-.514 1.192-.686 1.192-1.373l-2.213.687 1.021-1.203c-.51-.17-1.361.344-1.872.172.34-.172.682-.687.511-1.201-1.361 1.029-4.257.514-5.96-.172-.34-.344-.34-1.203-.34-1.375.169.688 1.021 1.547 1.703 1.375.852-.344 2.724 1.373 3.064-.687-.68-1.375-2.383-1.375-3.406-1.717-1.192-.859-2.553-1.89-2.553-3.264 1.532.516 2.724-1.03 4.256-.171l2.044 1.03c1.192 0 2.553-.687 3.065.343.68 1.375 1.363 2.92 2.724 3.951.682-.172.851-1.03.682-1.547.34 1.203.169 2.576-.852 3.435 0 .172-.17.344 0 .516 2.554 0 1.873-3.092 3.065-4.465l.171-.859c1.021 1.545.68 3.435 1.021 5.839.851-.687.851-2.232.851-3.263.341 1.545 0 3.263.17 4.465.682-.344.682-1.374.852-2.061.34 1.03-.512 2.232-.17 3.263.681-.687 1.021-1.546 1.192-2.232 0 1.545-.682 1.717-.682 3.262 1.022.172 1.363-1.201 1.874-1.889 0 1.373-1.363 2.061-1.703 3.436 1.192.17 1.872-.86 2.213-1.547-.341 1.547-1.702 2.404-2.384 3.435 1.022.172 1.703-.687 2.384-1.203-.51 1.203-1.873 1.89-2.724 2.748.682.516 1.872-.514 2.214-.514l-2.726 1.888c.512.516 1.194.172 2.044 0-.681.344-1.702.86-.85 1.374-.342.687-1.874 0-1.874.859.17.172.17.344.17.687 0-.343-.17-.515-.17-.687-.51-.859-2.214-.172-2.384-1.373.17.342.851.686.851.17.511-.342.341-1.03 0-1.201-.169-.172.681-1.03 0-1.375-.851-1.03-1.361.859-2.043.172-.341.172-1.192.859-.681 1.031-.851-.344-1.363-.515-1.363-1.373-1.192.342-1.702-.516-2.724-.86.171 0 1.022.516 1.363-.171Zm-7.663-11.163c.852.343 2.043.515 2.555 1.031-.681-.516-2.215.343-2.555-1.03Zm2.384 10.819c4.427 1.89 7.663 3.607 11.408 6.697l-.85 1.031c-3.236-2.06-6.812-4.465-10.558-6.01v-1.718Zm1.534 5.152-2.896-2.232v-1.203c.341 1.89 2.896 1.374 2.896 3.435Zm-4.258-7.556c.34-.172 1.192 0 1.192.859-1.022.858-2.725 1.889-2.554 3.606 0 1.546 1.532 2.919 2.894 3.435-.681-1.203-2.724-3.263-1.362-4.81l1.362-1.029c-.51 1.202-2.213 2.404-1.021 3.778 1.021.858 2.724 2.404 1.872 3.949l-.34.516c-.34-3.435-5.448-2.92-3.916-7.041.511-.859.852-1.546 1.532-2.06-1.021-.344-1.701 1.545-3.235 1.03l-1.192-1.202c1.192 0 3.406 0 4.768-1.031Zm-3.576 3.09-.85.345.169-.344h.681Zm-.341 1.031-.169-.172c.85.516.34 1.546 0 2.062l-.682.172c.682-.344 1.022-1.375.851-2.062Zm-1.361 1.031c-.511.172-.852 1.03-1.022 1.545v.344c-.17-.686.17-1.889 1.022-1.889Zm-.171 1.717c.681.687.171 1.374-.171 1.89-.34 0-.51.514-.85.342.51-.17 1.532-.858 1.021-2.232Zm-1.872-1.202c.169.344 0 1.202 0 1.889-.171-.172-.341-1.373 0-1.89Zm.68 2.748c-1.021 0-1.192 1.03-1.192 1.717-.169-.687.341-2.06 1.192-1.717Zm-.34 2.061v-.344c.511.687-.171 1.203-.34 1.717l-.852.344c.852-.344 1.192-.858 1.192-1.717Zm-1.533-4.465-.17 2.92-.17.342.34-3.262Zm.17 5.324c-.68 0-1.361.342-1.532 1.201h.171v.516h-.171c-.341-.688.68-2.233 1.532-1.717Zm-1.361-4.98-.341 4.808c-.171 0-.171 0-.171.172-.169-1.203 0-3.779.512-4.98Zm-1.363.342h.171c-.171 2.234-.341 4.466-.171 6.183l-.17.172c-.34-2.061-.34-3.95.17-6.355Zm.682 7.386c-.852.17-1.363 1.029-1.363 1.545-.171-.687.511-1.545 1.363-1.545Zm-1.703-.344v.344l-.171-1.203.171.859Zm-.171 2.748-1.361.686.851-.686h.51Zm-.51-1.375.34.172-.17.344-.17-.516Zm-.171-14.597 1.873-1.374c0 .859-1.362 2.404-1.702 3.778-.342-.858-1.023-1.716-.171-2.404Zm2.044-6.182c-1.703 1.374-2.724 3.435-3.236 5.495-1.703-1.545.512-3.09 1.021-4.464.682-.344 1.363-.86 2.215-1.03Zm.511-4.809.169.172c-2.895 1.203-4.256 4.98-5.279 7.9-1.19-1.203.512-2.748.852-4.121 1.192-1.89 1.874-3.435 4.258-3.951Zm-6.131 6.525-.511-.342c.682-2.919 2.384-5.152 3.916-7.212a62.605 62.605 0 0 0-3.405 7.554Zm4.768-11.677c-2.895 3.263-4.597 6.699-5.959 10.648l-.341-.344c.852-3.605 3.065-8.243 6.3-10.304Zm-9.195.688c-.681-.344-1.532 2.747-2.213.343-.511-.172-1.363.172-1.192-.687 1.192-.859 3.235-1.203 4.597-.859-.169.859-.51 1.546-1.021 2.06l-.171-.857Zm-2.213 4.121c0-.686 1.021-1.546 1.532-2.061v2.748l-1.532-.687Zm1.021 2.06-.34.516-.681-.686 1.021.17Zm-2.042.172c-.342-.342-2.214-.342-1.363-1.373.17-1.03 1.192.343 1.873.172-.34 0-.68 0-1.02.17-.172.345.34.689.51 1.031Zm-.852-6.353c.341.687-.17 2.06-.682 2.919-.169-.859 0-2.062.682-2.919Zm.341 2.747c0 .172-.17.172-.17.344l.17.514c0-.17-.17-.342-.17-.514v-.172c0-.172.17-.172.17-.172 0-.515.34-1.031.681-1.374.34.172.851.687.511.859-.511-.859-.852 0-1.192.515Zm4.256 2.233c-.34-.344-.169-.688 0-.859.34.171.681.171.681.515s-.51.516-.681.344Zm1.192-1.545c-.511-.172-.68-.688-.169-1.031.51-.172.68.17.68.515l-.511.516Zm1.363-1.89c-.171-.172-.682-.344-.511-.688-.171-1.029 1.361-.686 1.361 0 0 .344-.34 1.031-.85.688Zm1.873-2.748c0 .172-.681 1.031-1.192.687-.681-.515-.171-1.201.34-1.373.511 0 .34.342.852.686Zm-2.555-2.404c.171-.686 1.532-1.03 1.703 0 0 .515-.34 1.03-.851 1.03-.512 0-1.022-.515-.852-1.03Zm-2.042-.686c.34-.516 1.361-.344 1.361.17 0 .344-.169.859-.511.859-.51 0-1.021-.515-.85-1.03Zm-1.703 0c.34.17.509.17.851.514-.171.344-.342.859-.851.515-.341-.343-.341-.687 0-1.03Zm-1.873.686c.681 0 .17.687.51.687-.17.343-.51.515-.68.172-.172-.172-.34-.859.17-.859Zm-1.874.859c.511 0 .511 0 .682.515l-.342.344c-.169-.344-.68-.516-.34-.859Zm-1.362.515c.34-.172.681.344.34.686-.34 0-.51-.342-.34-.686Zm8.514-.172.34.344c.171 1.717-1.021 3.434-2.042 4.465-.171-.344.509-1.203 1.021-1.373.171-1.031 1.192-1.719.511-2.748-1.192-1.031-2.895-.344-4.427 0l-4.428 1.373c2.725-1.03 5.96-2.576 9.025-2.061Zm-8.684 3.606c1.192-1.717 1.192 1.203 1.021 1.718-.17-.172 0-.859 0-1.546l-1.021-.172Zm1.532 3.435-.17.344c-.68 0-1.192-.172-1.703-.516.17-.687 1.533-.343 1.873.172Zm-2.043-6.183c0 .172 0 .516-.34.516l-.17-.516h.51Zm.34 4.122h-1.532l.17-1.374c.852-.17.681 1.203 1.363 1.374Zm-4.937-2.232c-1.022-.515-.681-1.374-.511-2.232.851-.172 1.362-2.576 2.043-.859 1.022.687 1.192 1.717.852 2.748-.681.515-1.533.857-2.384.343Zm1.362 3.778c-.17.343-.51.171-.681.171h-.17c0-.343.68-.687.851-.17Zm-1.533.687-1.873.172c.17-1.03 0-1.545 1.363-1.375.17 0-.511 0-.511.516 0 .343.852.687 1.021.687Zm-.17-2.576c-.34 0-.51-.687-.34-.859l1.021.515-.68.344Zm.681-6.87c0-.858.511-.515.681-.686.341.17.852 1.03.341 1.373-.51.172-1.192 0-1.022-.686Zm1.873 6.011.17.859-.68-.344.51-.515Zm1.192 2.748c-.51-.172-1.022-.516-1.022-.686l1.703.342-.17 1.203c-.51 0-1.192 0-1.703-.172.17-.516 1.362-.172 1.192-.687Zm.17-9.96c.171 1.03.171 1.888 0 2.575-.85-.343-1.532-.859-1.362-1.545l1.362-1.03ZM93.81.687c-.34 1.889-2.213 1.717-2.553 0h2.553Zm-2.553 3.092-1.022 1.029c-.34-.515-.17-2.06-.34-2.748.34.516 1.872.344 1.361 1.719Zm-1.022 6.868-1.363.172c.34-.343.34-1.546 1.022-1.546l.34 1.374Zm-.511-3.778c-.17.344-.681.172-.681 0 0-.514.68-.514.68 0Zm-1.362.687v-.172l.51.344-.51-.172Zm.51 4.98c-.68 0-1.362.859-2.043.344.51-.687 1.703-1.03 2.043-.344Zm-.85-3.95c.17.343.51.343.51.687-.51-.17-1.192-.17-1.192.344v1.03c-.17-.515-.17-1.718.681-2.06Zm0-2.747c.17 0 .34.172.51.344 0 .342-.34.172-.852.342l.341-.686Zm-1.534-.687c.34-.172.681.515.34.859h-.68c-.17-.344 0-.687.34-.859Zm-1.872-.687c.51.172.85.172.68.687-.34.343-.51.343-.851 0l.17-.687Zm-1.703-.686c.51 0 .851.514.51.858-.17.343-.51.343-.85.171-.341-.343 0-.859.34-1.03Zm-2.214-.344c.681 0 .852.344.852.686.17.687-.852.859-1.192.516-.511-.344-.17-.858.34-1.202Zm-2.894.686c.51-.858 1.873 0 1.532.687 0 .344-.51.859-1.021.687-.511-.171-.681-.858-.511-1.374Zm-.681 2.234c.34-.172 1.532-.172 1.192.686-.171.515-.511.515-1.022.515-.51-.172-.34-1.03-.17-1.201Zm1.021 3.262c-.34-.514-.51-1.202.17-1.374.511.172.852.344.852.86-.17.342-.511 1.029-1.022.514Zm1.192-3.606c2.554-1.203 6.3.514 8.854 1.545-2.383-.859-5.448-2.061-8.172-1.373-.682 1.545.68 3.09 1.532 4.464-1.363-1.202-2.384-3.263-2.214-4.636Zm5.108 7.213 1.362-.516.681 1.03-1.531.687.68-1.03-1.192-.171Zm-.17-2.748c-.34 0 0-.859.34-1.03.511 0 .682.858.852 1.2-.17 0-.681-1.373-1.192-.17Zm1.532 1.03c-.51 0-.34-.343-.34-.687l.34.688Zm.17-3.263c.511.686.511 1.889.682 2.748-.681-.515-1.022-1.888-.681-2.748Zm-5.618 3.092h-.852c-.17-.344-.17-.688.34-1.031.512 0 1.022.687.512 1.03Zm1.192 1.545c-.17.172-.852.344-.852-.172-.17-.344.17-.515.34-.515.682 0 .682.343.512.687Zm.51-4.808-.34.687c-.681-.172-1.022-1.203-1.192-1.89 1.703-.514 3.235.172 4.768.687.17 1.547-1.703.516-2.044 1.717-.17 0-.68-1.03-1.191-1.201Zm.511 4.808V9.96l1.533 1.89c-.34.686-1.022.858-1.533 1.03Zm1.363 1.203c0 .342-.34.514-.511.686l-.34-.516c-.171-.17.68 0 .85-.17Zm-4.257 2.404-.511 1.029c-1.362-3.433-3.917-6.181-6.13-9.101 3.236 1.889 5.108 4.98 6.64 8.072Zm-8.003-3.779c1.873 0 3.065 2.404 4.427 3.092-1.022-1.717-2.384-4.123-3.916-5.668 2.724 1.89 5.108 4.808 6.13 8.072-.171.515-.852.857-1.022 1.373-1.533-2.404-3.406-5.152-5.619-6.869Zm1.022 3.092a16.37 16.37 0 0 1 3.916 4.464l-.511.859c-1.362-1.374-1.532-3.607-3.405-5.323Zm-1.022 2.747c1.362.858 3.235 1.717 3.916 3.434-.34.344-.34 1.203-.851 1.203-.17-1.89-1.703-3.435-3.065-4.637Zm.851 24.214h-.34l1.702-3.949c.34 1.373-.681 2.747-1.362 3.95Zm2.043-1.889c.511.516-.51 1.375-.68 2.061l-.511-.172 1.192-1.889Zm-2.213-16.83c.51.515 2.213.687 1.362 1.889l-.34.86-1.022-2.748Zm-1.192 18.72c-.34.171-.17-.173-.34-.345.68-1.717 2.043-4.121 2.213-6.697.68 2.748-1.022 4.637-1.873 7.041Zm0-3.263-1.362 3.09c1.362-3.606 2.554-7.728 2.213-12.193.852 3.092.17 5.84-.851 9.103Zm-.68-6.355c.34-.344.34-1.03.17-1.373-.341-.516-.17-1.375-.341-2.062.85 0 .681 1.203.681 2.062-.17 3.605-.681 7.212-2.213 10.646.851-2.748 1.702-6.181 1.702-9.273Zm-6.13 3.95c.34 2.233-.511 3.95-1.022 5.84.17-.687.34-2.062-.17-3.091l-1.193 3.09c-.17-.516.51-1.717-.17-2.576l-1.192 2.576c-.34-.516.51-1.374 0-2.061-.851.172-.851 1.89-1.532 2.576-.17-.515.51-1.717 0-2.232-.68.687-.852 1.888-1.532 2.919 0-.859.68-1.888.17-2.576l-1.703 2.92c0-.515.68-2.062.17-2.748-.68 1.202-1.021 2.576-2.043 3.262l.51-2.746c-1.191.686-1.362 2.404-2.553 3.262 0-.858.851-2.061.51-2.92-1.021 1.031-1.532 2.92-3.065 3.607.171-.687.682-1.717 1.022-2.748-1.192.687-2.554 2.576-4.086 3.264.34-.86 1.702-1.719 1.362-2.577-1.192.858-2.384 1.717-3.576 2.233 0 .344.17.344.34.687 0 .172-.85-.343-1.021-1.031 0-.515.681-.687.34-1.203-1.532-.342-1.191 1.891-2.383 1.718l-.51 1.202c-.852-1.029.34-1.717.34-2.748-1.363-.172-1.704 1.203-2.214 2.234v.858c-.681.172-1.362-.516-1.703-1.202.17-1.546 1.873-2.576 3.065-2.919 2.895 1.373 5.278-1.375 7.662-2.405 1.533-1.374 3.746-.687 5.108-2.404.681 0 1.192 0 1.533-.515-1.362-.86-1.873-2.576-2.554-3.607-.851.687 0 2.232 0 3.091-.17 0-.681.172-.51.516l-.171-.687-.681.171c.17-.515.34-1.373 0-1.888l-.511 1.373c-.17-.858-.17-1.545-.511-1.889-.51.172-.17 1.375-.34 1.545-.341-.17-.17-.858-.511-1.029-.681.515 0 1.544.17 2.06-.681-.172-.51-.859-1.022-1.201l-.34.685-1.192-1.888c-.51.515 0 2.061.17 2.576-.511-.344-1.022-2.061-1.022-3.092.51-.515.51-1.201.17-1.888l1.022 1.373c1.192-1.717-1.872-3.09-.51-4.465-.171.859.17 2.061.68 2.748.171 0 .171 0 .512.172-.34-1.03-.682-2.404.34-3.435l1.362-1.374c.17 1.546-3.235 3.092-.851 4.637.51-.344.34-1.201.51-1.545l1.022-1.546c.511.515 0 1.546 1.022 1.202.17-.171 0-.343 0-.515l.34.687c.341-1.374.852.686 1.192-.343l.341.343c.34-.343.51-.515.51-.687v-.344c.17.172.17.172 0 .344.17.344.17.515.341.687l.681-.687c.17 1.03-1.192 2.404-.34 3.607.68-.344.68-1.031 1.022-1.547-.17.344.17.173.34.516-.51.687-.51 1.89 0 2.92l.852 1.03c.51 0 .17-.687.34-1.03.681 0 .51 1.717 1.532 1.544l.171-1.888c.17.344.51.859.68 1.203l.512-1.203c.51.859 1.021 1.373 2.043 1.717.34-.858-.511-1.545-.34-1.889.34 1.03 1.362 1.375 2.213 1.03.851-.514 2.043-.514 2.043.86.681 1.545-.85 3.09-.681 4.98h-.17c-.51-1.546 2.043-4.637-.34-5.495ZM48.005 40.7c-.852.172-1.873-.687-1.873-1.201l1.873 1.201Zm7.663-20.779c.51.171.85.687 1.191.343-.34.516-1.022.344-1.532 0-.511-.859.17-1.888.85-1.717-.169.344-.85.686-.51 1.374Zm.17 2.06c.34-.172 0-.514-.34-.686 2.383 1.03 2.213-1.89 4.086-2.404.34 1.201.68 1.889 1.532 3.09-1.192 0-1.021-2.92-2.384-1.717-.51-.172-.68.516-.851 1.03v.515c0-.172-.51-.342-.681-.172-.511.86 0 1.375.51 1.719.341 0 .511.17.682.344.68.17 1.362.17 1.362.685-.34 0-.852-.514-1.362-.685-.17-.173-.34-.173-.511-.173 0-.171 0-.171-.17-.171-.34 0-.681 0-.852.687.852.858 2.044.858 3.065 1.545-.851.515-3.405-1.888-3.405-.172l2.383 1.203-.17.172-2.724-1.546c.34-.688 1.362-1.374.68-2.233-1.19-.343-1.702 2.576-3.234 1.03 1.021-.171 2.554-.858 2.383-2.06Zm8.683 7.042.171-1.031 1.873 1.375c-.852.342-2.554 0-3.236-.516-.68-1.202 1.022-2.06.852-3.263 1.192 1.203-2.214 2.919.34 3.435Zm-.68 5.838 1.192.515-1.022.172.17-.172-.34-.515Zm-1.363-1.545.17-2.061c.341.858.681 1.718.681 2.748 0-.515-.68-.687-.851-.687Zm-2.383.343c.17-1.03.34-2.232-.852-2.747h-.34c0 .859.34 2.061-.341 2.919 0-1.031.34-2.404-.851-2.919-.17.515.17 1.717-.34 2.404l-1.193 1.373c.51-.686 1.362-2.232.852-3.434-.341-.343-.852-.171-1.193.172-.68-.343-.34-1.546-.51-1.89.34.344.17.344.51.859.512 0 .34-1.03.171-1.373.51.172.34.858 1.022.686l-.17-1.717c.34.687.51 1.203 1.191 1.717.341-.686-.51-1.545-.34-2.06.34.515.681 1.546 1.191 1.888l.17-.686c.341 2.404 3.406 1.717 2.725 3.949-.17-.343 0-1.545-1.192-1.545h-.17c-.17.688.34 1.545-.34 2.404Zm-4.087-.686-.17.343-.17-.172.17-.344.17.173Zm2.895-4.294v-1.202l.17 1.202h-.17Zm1.872-1.888-.34 1.888c-.34-.687-.17-1.374.34-1.888Zm1.022 1.888c-.681-1.374 1.022-2.576 1.192-3.778.17 1.374-1.532 2.748-1.192 3.778Zm0-7.556c.852.172 1.532 1.546 1.532 2.577l-1.532-2.577Zm0 3.95c-.34-1.03-1.702-1.889-2.724-2.576l.34-.516c.682 1.031 2.725 1.719 2.384 3.092Zm-9.195-2.576v-.344c.511 0 1.022 0 1.533.344-.17.343-1.022.343-1.533 0Zm.17 2.919-1.02.515c.17.344 1.361.516 1.872.172.34-.515 1.022-.172 1.362-.172 1.022.86-.51 1.374-1.022 2.061-1.191.687-2.383-.343-3.235-.343-.17-.858-.68-1.546-.17-2.404.68 0 1.362 0 2.214.171Zm12.26 6.183c-.17.858 0 1.545-.51 2.06-.34-.686.17-2.232-.681-3.091.68.344 2.043.344 2.383 1.03.34.515 0 1.031-.17 1.718-.17-.343-.17-1.717-1.021-1.717Zm1.363 3.606c.68 2.06.17 4.464-.511 6.354.51-1.89.68-4.294.51-6.354Zm1.702-.686c0 2.746-.851 5.838-1.702 8.07.85-2.746 1.191-5.324 1.702-8.07Zm1.022-1.031.34.17c-.51 3.093-.34 6.355-2.043 8.931 1.022-3.09 1.362-6.01 1.703-9.101Zm-1.022-2.404c-.51.859-.51 2.06-1.022 2.747.34-.858.34-2.06 0-3.263 1.874-1.201 1.704 1.203 2.555 2.061-1.022-.172-.852-.858-1.533-1.545Zm1.362-1.375c-1.021-1.373-4.938-1.202-3.405-3.606.51 1.889 3.576 1.374 3.405 3.606Zm-3.746-4.636-.34-2.92c.68.344.851 1.374.851 1.89l-.51 1.03ZM62.48 8.072c.17.17.681.343.511.687-.34.17-.511.344-.68.17-.171-.342 0-.686.169-.857Zm-.34 2.404-.511-.344c-.17-1.03 1.362-.172.51.344Zm-.17-3.092c0 .344-.511.516-.682.172-.17-.687.681-.687.681-.172Zm-1.022 2.233c0-.688-.511-1.545-1.192-1.545l1.532.17c.34.517-.17.86-.34 1.375Zm-1.022-2.92c.17.172.51.344.34.687-.17 0-.51.172-.51 0-.34-.343 0-.515.17-.687Zm-.51 2.062c.34 0 .68.17.68.514 0 .172-.34.344-.68.172V8.76Zm-.682-1.546c0 .343-.51.515-.68.171 0-.343.68-.859.68-.17Zm-1.532.343c-.17.516-.851.859-1.363.687-.68-.171-.34-.859-.51-1.374.681-.686 1.873-.172 1.873.687Zm-3.406-1.373.681.172v.514h-.851l.17-.686Zm-.851-1.031c.51.343 0 .687-.34.859l-.17-.172c-.341-.344.17-.687.51-.687Zm-.681 2.232c0 .344-.17.516-.51.516v-.687c.17 0 .51 0 .51.171ZM51.24 4.637c.511 0 .511.515.34.687h-.68c0-.344 0-.687.34-.687Zm.681 1.718c-.17-.172-1.191.514-1.191 1.029-.511-.687.34-1.89 1.191-1.03Zm-2.384-.344v-.687h.511v.687h-.51Zm-.17.858h.51c.171 0 .171.687-.34.515-.34.172-.34-.343-.17-.515Zm-6.98 27.306c-.682 0-1.703-.172-2.044.344.851-1.203 2.384-1.203 2.554-2.576 0-1.203 0-1.89-.17-2.748.17 1.545 1.872 4.121-.34 4.98Zm1.361 2.232c-.51-1.374.851-2.232 1.022-3.434.34 1.202-.51 2.403-1.022 3.434Zm.681-6.698v.344c-.851-1.374 1.022-2.576 1.022-4.293-1.192-.172-1.703 1.03-2.383 1.89 0-1.031 1.02-1.72 1.702-2.234-.17-.343-1.022-.515-1.533-.17-1.021.17-1.362 1.373-1.532 2.403-.68-1.03.681-2.061 1.192-2.748l-.51-.516c.51.172.68-.514 1.02-.858-.34-.858-1.02.173-1.532-.515-.51-.172-1.532-.343-1.532-1.03 1.362 0 2.384-.86 2.724-2.06.681-1.89-.17-4.638 1.873-5.669 1.362-1.029 3.406-1.201 5.449-1.373l-1.362-1.03c1.021-.343 2.043 1.03 3.065 1.374.17-1.375-.852-1.717-1.873-2.405-3.066-1.546-3.576 2.92-6.3 3.092l-.511-1.203c1.873.687 3.065-1.03 4.427-2.232 1.702 0 3.065-.344 4.086 1.201.681.516.681 1.89 1.873 1.547-.51-1.375-.851-2.748-2.554-3.607l-1.532-.344c.17-.514 1.703-.344 2.213-.17 1.533 1.029 1.703 2.746 2.214 4.292h.851c-.34-1.718-.17-3.263-1.703-4.808 1.192.172 1.703 1.373 2.214 2.232.852-.515 1.873-1.89 2.895-1.202-1.022.343-1.873 1.03-2.384 1.546-.17.858-1.022 2.232-.17 2.92.85-1.375 1.192-2.92 2.894-3.092 1.022-.172 2.043.516 3.236.858-1.533 0-2.895-.858-4.257 0-.511.687-1.533 1.546-1.022 2.576.51.515.681-.172 1.192-.172 1.703-.514 2.894 1.203 4.087 1.89.17-.859-.852-1.89-1.703-2.404-.681-.515-1.873-.515-2.724-.172 1.02-1.546 2.213-.859 3.916-.859l2.213.516c-.17 1.373-2.043-.344-3.235-.172 0 .859 1.362 1.201 2.214 1.717.34 0 .68.171.85-.344v-.172l.852.687-.51.344.851 1.545c-.51-.342-1.022-.342-1.362 0l1.191 1.718c-.17-.171-.34-.343-.51-.343.17 1.373 1.873 1.888 2.043 3.263-.511 0-1.192-1.203-1.873-.515.34 1.03.511 1.545.34 2.575-1.021-2.06-1.872-4.636-3.916-5.667 0 .859.51 1.373.852 1.89-.682-.345-1.533-1.374-1.533-2.405h-.17l-.34 1.202c0-.687-.682.172-.852-.343 0-.172.681-.516 0-.859-.34-.172-.34.343-.51.343l-.852-.859c-.511.516-.511 1.031-1.532.859-.17 0-.17-.687-.511-.859l-.682.516c-.51-.172 0-1.03-.68-.858l-.852.858c-1.022-1.202-2.724-.858-3.916-1.717-.17-.172-.34.172-.511.343 1.192 1.545-.17 4.637 2.724 4.637 1.873.172 1.022-2.748 2.895-2.232v3.261c-1.022-.342-2.554-.857-2.895.516l1.362 1.547c-.17.685-1.021.515-1.362.17-.51-.343-1.021-1.2-.68-1.717-2.555-.858-.341 2.404-1.363 3.092-.34 1.374-.51 3.434-2.044 3.778-.68 0-1.191.344-1.532.686.17-1.03 1.192-1.889 1.532-3.09-1.872-.516-2.042 2.06-2.724 3.09Zm5.96-10.99c.17.342.681.686 1.192.686 0 .172-1.533.344-1.533-.514 0-.687.17-1.203.852-1.375.51.688-.852.344-.511 1.203Zm-3.916 22.669c-.511.343-1.022-.516-1.533-.688.51-.515 1.022.516 1.533.688Zm-2.725-.172c.511 0 1.022.343 1.363.857l-1.533-.514.17-.343Zm-.51 1.201-1.363-.514c.511-.344.852.344 1.362.514Zm-2.895-.17 1.532.857-1.873-.687.341-.17Zm-1.022.857c0 .172-.17.344-.34.344-.341 0-.511-.344-.682-.687.34-.172.852-.172 1.022.343Zm-4.937.344c1.362.172 3.064-1.375 3.915.859l-.34.344c-.851-.344-1.703-1.375-2.895-.687-1.702.343-1.872 1.888-2.043 3.263-.34.17-1.192.17-1.192-.515-.68-1.547 1.533-2.577 2.555-3.264Zm2.383 4.293-.34.172v-.516c.51-.17.17.516.34.344Zm-1.021-.858c.34-.515.85-1.203.17-1.546-1.532-.686-1.022 1.546-2.044 2.06 0-1.029.512-2.404 1.703-2.746.511.342 1.192.17 1.533.858l-1.362 1.374Zm-4.257-2.576.51-.343c-.51.515-1.362 1.545-1.191 2.404-.341-.516 0-1.717.68-2.061Zm-5.279 1.202c.681.343 1.533.687 2.214 1.03-.681.344-1.703-.515-2.214-.515v-.515Zm-.681-12.536c-.852 1.202-1.873-.173-2.724-.344.34-.686.68-1.03 1.021-1.889 1.022.687 2.384.515 1.703 2.233Zm.17-2.405-.51-.172h.51v.172Zm-.17-1.373c-.51 0-1.021.342-1.532.514-.511-1.03 1.021-1.202 1.021-2.404.34.515 1.022 1.202.511 1.89Zm1.192 3.262c-1.362-1.202 1.362-1.373 1.703-2.576 0 1.031-.852 2.062-1.703 2.576Zm-.17-3.95-.34-.343c.34-.515.68-.172 1.361-.172 0 .687-.85.172-1.021.515Zm2.554-.687c.17.172.17 1.03-.51 1.03h-.342c0-.858.511-.343.852-1.03Zm-.34-.859-.341.344c0-.858 0-.686-.681-1.202v-.172c.68.344 1.532.344 1.021 1.03Zm.68-8.242c.852.342 1.022-.859 2.044-.343.85-.86 2.043-.344 3.064-1.89 0 .86.341 1.718-.34 2.233.51.686-1.362.686-.51 1.202-1.363.171-1.193 1.546-2.725 1.546-.511 1.03-1.532 0-2.213.17.51-1.029 2.213-1.373 3.064-2.06.681-.516 1.363-.686 1.703-1.373-2.214.343-4.768 1.545-6.64 3.09-.17-1.545 1.872-1.889 2.554-2.575Zm-2.383 4.465c1.021 0 1.532.343 1.703 1.201l-.17.688c-.512-.516-1.023-1.03-2.044-1.03-.34-.172.17-1.031.51-.859Zm.17 1.89c-.17 0-.851.342-.681-.173l.68.172Zm-.851 1.373.85.344c-.34.17-.85.342-1.191.514l.34-.858Zm.85 2.748c0 .172-.85 1.201-1.361 1.201.68-.343.851-1.201 1.362-1.201ZM25.7 26.103c-.68.516-1.873.516-2.043 1.374 0-.686.681-2.232 1.873-2.576.51.172.17.687.17 1.202Zm-2.894-6.182c-.34.515-1.022 0-1.533-.172-1.021-.858-.51-1.889-1.702-2.576 0-1.03-.682-1.545-.682-2.404 1.022.859 2.725.687 3.236 1.718.681-.687.51.858 1.191.686.341.172.341 1.031 1.022.859l.17 2.232c-.85-1.203-2.554-3.435-4.426-4.636l-.511.515 3.235 3.778Zm-.34 2.919c.85-1.03 2.553-.687 3.064.687-.34.688-1.021 1.03-1.703 1.374-.51-.516-2.043-.858-1.362-2.061Zm-1.363 1.89c1.022.171 1.703.343 2.213 1.2.17.689-.51 1.203-1.191.86-.511-.171-1.192-.515-1.873-.171-.34-.688.17-1.374.852-1.89Zm-.34 6.869c0-1.203-1.363-2.404-.681-3.263.85-1.203 2.553-.516 3.064 0-.68 1.201.34 2.404-.68 3.435-.512.342-1.193 0-1.703-.172Zm.85 1.889c1.022.17.171 1.545.682 2.232l2.383 3.95.511 6.182-.85-.172-.171-5.667c-1.022-2.233-2.895-4.293-2.554-6.525Zm0 21.123c-1.361-.515.171-1.203.341-1.89.17.172.511-.172.681 0l-1.021 1.89Zm56.361 1.374c-3.235-.344-6.13-1.546-8.684-1.03.341-.688 1.533-.344 2.044-1.031-2.214-1.375-5.62-2.748-7.833-1.203-.34.516-.51 1.031-.17 1.546.34.172.68.172 1.021 0 .17.515-.51.687-.851.687-.34-.172-1.022-.515-1.022-1.03 0-1.03.511-1.717 1.533-2.233 2.384-.515 5.448.516 7.322 1.89.51-.344.17-.86.34-1.374 1.532 2.06 4.427 3.434 6.98 2.919l1.193-.172c-.17.858-1.192 1.202-1.873 1.03Zm-9.365-5.152c1.022.171 1.873.343 2.384.171v1.03c-.852-.343-1.873-.686-2.384-1.2Zm4.087.343c2.553.172 5.108.515 6.64 2.748-1.702.687-3.916.172-5.449-1.03-.34-.515-1.362-1.203-1.191-1.718Zm-17.709.344c-11.578 4.121-26.392 4.292-36.609-2.404 1.533.17 3.576 1.717 5.45 2.404 12.088 5.151 25.71 1.373 37.63-2.061 6.47-.859 12.6-1.718 18.56 2.404l.34.686c-6.3-5.322-17.368-3.09-25.37-1.029Zm25.2-.859c-15.494-8.072-29.967 4.293-45.462 2.232-5.619-.514-11.238-2.232-16.347-4.808 1.704-2.061-1.872-4.809.511-6.354 1.533.172 3.236.686 4.087 1.373-1.022-.515-2.724-1.03-3.916-.857-.851 1.717 1.192 2.404 2.044 3.09 9.534 4.636 20.772 4.808 31.159 1.546 8.003-2.232 17.027-4.636 25.2-1.718l2.895 2.92-.17 2.576Zm-57.04-5.84v.344l-2.725-1.889c1.021.344 2.554.344 2.724 1.545Zm51.592-1.717.85-1.03v1.03h-.85Zm3.064-.515 1.022.515-.17.172c-.852.172-1.192-.515-1.192-1.03 0-.687.511-1.03.852-1.374.17.687-.852 1.03-.511 1.717Zm4.258-9.96c0 1.202 0 2.404 1.021 3.091-1.362 2.06 1.192 2.748 1.703 4.465.68 1.203 1.873 1.546 2.724 2.404-3.575-1.373-6.13-5.324-6.47-9.789.34 0 1.022-.17 1.022-.17Zm-1.022-2.061c.51 0 .681 0 .51.344l-.17.172-.34-.516Zm4.597-5.839c.34 0-.34.687-.68.516 0-.344.34-.344.68-.516Zm.17 2.92c-.17-.172-.34 0-.51.171.17 0 0 .172 0 .172v-.172c0-.515-.681-.687-.681-.859.51.172 1.021.172 1.192.688Zm.852-.344c-1.022-.172 0-1.03-.681-1.374 1.191-.686.34.86.681 1.374Zm7.151 17.86.17 2.232-3.575-1.545.17-.859 3.235.172Zm-1.873-19.234h.17v.344l-.17-.344Zm7.832-.171c-.51-.687 0-1.203 0-2.06.512.515.171 1.545 0 2.06Zm0 1.89c-.34 0 0-.517 0-.86.342.171.171.687 0 .86Zm-.169 3.434c1.021-1.547-.17-2.577 1.021-3.607l.171-.516 1.361.172.34-1.202c1.023 1.718 1.875 3.606 1.703 5.84h-5.959c.171-.344-.17-1.203.511-1.031.17.172.341.515.852.344Zm2.384-4.981h-1.363c.171-.687 1.703-1.03 1.363 0Zm-1.192-1.374v-.686c.169 0 .34.342.851.514l-.851.172Zm2.213 11.507c-.512-.516-.681.343-1.021-.516 0-.344-.171-.859-.852-.859-.851-1.373 1.873-.514 1.703-1.717.17 0 .51.172.681.515l-1.192 1.374c.169.687 1.703.515 1.021 1.546-.34.172.171-.172-.34-.343Zm-4.257 4.121-1.022.343-.17-1.201c.681.686 1.703 0 2.213-.687.682.17 1.363.515 1.703 1.201-1.021.515-2.383-1.373-2.724.344Zm1.021 1.031-.34-.516h.682c.34.172-.17.344-.342.516Zm-6.64 1.201v-2.061c1.533-.17 2.895-2.404 3.916-1.716.17 0 .341.17.341.343-.17-.172-.17-.343-.34-.343-.511-.172-1.363.515-1.874.687-1.021.858 1.022.858.171 1.717-1.022.172-2.043.515-2.214 1.373Zm.17 1.546h-.17V42.76c.681.343.17.687.17 1.374Zm.681-8.587c.341-.343 1.022-1.03 1.703-1.03-.17.343-.85.687-.17 1.202-.17 0-1.192-.344-1.532-.172Zm.852 1.547c-.852 0-.51-.859-.51-1.031.51 0 .68.515.51 1.03Zm-1.362-2.748-.341.342v-.858l.34.516Zm-.341-1.203v-.17l.51.514h-.17l-.34-.344Zm.17 2.748.511-.344-.17.516c-.17.172-.17 0-.34-.172Zm.17 2.061-.34.171v-.859l.34.688Zm-.34-6.526V25.76c.34-.172.852-.687 1.192-.172-.34.515.17 1.203.851 1.545.681-.172 1.192-1.03 1.192-1.717.511 0 .852.344.852.859-.34.686-.681 1.374-.681 2.232-.682-.343-1.703.172-1.703.86.17.514.17 1.373.68 1.717.171-.172.682-.516.852-.172l.17.687c-1.021-.172-2.724.514-3.405-.172Zm.34-7.556c.341.344.682.172.852.514l-.851.344c-.341-.172-.17-.686 0-.858Zm1.874 1.545c.17.172 0 .515 0 .859-.34-.172-.34-.859 0-.859Zm0-3.09v1.889c-.34-.515-.17-1.203 0-1.89Zm2.213 4.98c.341.858 0 1.373 0 2.231-.34-.858-.34-1.201 0-2.232Zm0 3.949v.344l-.17-.859.17.515Zm.341 1.374c.34.515.17 1.03.17 1.718-1.022-.344-.51-.859-1.192-1.718h1.022Zm1.192-4.122h-.512l-.34-1.716c1.192-.344.511 1.373.852 1.716Zm-1.363-2.919c.34-.515 1.193-.172 1.193.515-.342-.515-1.363.516-1.193-.515Zm1.193 9.101c1.192.344 2.042 1.375 3.065 2.062.169 1.029-1.023.858-1.363 1.202h-.34c-.17-.688.851-2.577-.852-2.405h-.68l.17-.859Zm-.17-.858v-.858c.34.515 1.191 0 1.362.858h-1.363Zm1.532-1.202h1.532v.687c-.681.687-1.192-.343-1.532-.687Zm-.68 3.607-.172 1.888v-1.03h-.51c.17 0 .34-.343.34-.343l-.85-.687 1.191.172Zm-.682 2.576h-.17c-.172.17-.34.515-.682.17.17-.342.51-.17.681-.17h.17Zm-.342-1.375-.169.343-.17-.343h.34Zm-1.361.343c0-.343-.511-1.716.51-1.544 0-.172.34-.172.511-.172-.51.343-1.021 1.03-1.021 1.716Zm-1.533-3.777h-.17c.681-.687 1.022 0 1.532.516.17 0 .341.17.511.342-.17 0-.34-.172-.51-.342-.341-.172-.852.17-1.363-.516Zm1.362 1.545-.51.172s-.17.172-.17 0h.17c.17-.172.17-.515.51-.172Zm-1.532-2.919.851.344c-.17.515-1.021.171-.851-.344Zm2.384 2.747.17-.343v.343h-.17Zm-.681-10.819v.344l-1.022-.344c.17-.514 1.192-.686 1.022 0Zm-.681 5.152-1.022.172.17-.858c.34 0 .852.344.852.686ZM95 33.144l-.51.344-.17-.688c.51 0 .51.173.68.344Zm1.533 4.121-.17.688c-.341 0-.512-.688-1.022-.344.17-.858.851 0 1.192-.344Zm-2.214 5.152h.681l-1.022.516.341-.516Zm1.532.687h.682L95 43.62l.851-.516Zm.341-.857c-.51-.688.852-1.89-.17-2.404 1.192-.86 1.022 1.029 1.022 1.545.68.343 1.873-1.03 2.043.17-.512 0-1.363.86-2.043.345l-.852.344Zm4.938-3.607c.34.172 1.192-.516 1.532-.172-.34.172-.34 1.03-.851.515l-.681-.343Zm2.895-4.637-.171 1.202c-1.192-.344.171-.516.171-1.202Zm-.511-1.374h.68v.515l-.68-.515Zm-4.257-2.576a1.29 1.29 0 0 0-.85-.344l.68-.686c.17.172.511.686.17 1.03Zm-.51-5.324c-1.533.344-.852-2.404-2.555-1.545 0-.859-.17-1.375-.681-1.89-1.022.173-1.022 1.203-1.192 1.89-.851 0-1.362-.172-1.192-.859l.17-2.061c2.554 0 4.087 1.03 5.96 2.233-.17.687-.34 1.546-.51 2.232Zm-4.769 14.426c.511-.343.511-1.202 1.363-1.031l-.34.344.17.172-2.044 1.03c-.34-.687.681-.171.852-.515Zm-7.151.688-.51.514c.85.859 1.702 1.374 2.213 1.89-1.192-1.031-2.895-1.375-3.576-3.092.51-.172 1.532-.172 1.873.688Zm-1.192-2.748h.17l.17.17-.34-.17Zm3.746 7.898-1.021-.514c.34.172 1.021.172 1.021.514Zm-2.724-7.04c-.17 0-.34-.173-.51-.344.17 0 .34.171.51.344 1.192 1.374 2.213 1.89 2.724 3.606-1.192-.515-1.873-2.404-2.724-3.606Zm2.383-1.546h-.17l-.17-.171v-.172l.34.343Zm-.34-.859v-.172l.34.344-.34-.172Zm.17 2.061.34.687-2.213-2.404 1.873 1.717Zm-.34.859v.172l-2.214-2.404.17-.172 2.044 2.404Zm.51-1.89h.17l.512.86h-.17l-.511-.86Zm-4.597-.514c.17.687.511 1.545 1.192 2.232-.68.172-1.702-.172-2.213-.687.17-1.03.851-2.576-.511-2.748 0-.342-.17-.858.34-.858l-.17-.344c1.192-.515.511 2.748 2.214 1.889.51-1.03.851-2.575 2.043-1.717 1.192.344 1.873.688 2.895 0-1.533.858-3.747 1.889-5.79 2.233Zm-.17-6.355c-.34 0-.851-.342-.68-.686h.68c-.17.172 0 .344 0 .686Zm1.362 1.203c-.68.515-1.021-.344-1.362-.859.34 0 1.022.343 1.362.859Zm4.768 6.183c0 2.06.51 4.464-.17 6.181-.17-1.545-.34-4.293.17-6.181Zm0-.344.17-1.031v1.03h-.17Zm.852 3.262.34 2.92c-.34-.686-.34-1.889-.34-2.92Zm-.341-13.394c-.511-.516-.852-1.374-.34-2.062l.85-.857c.171.515-.68.685-.85 1.373l.34 1.546Zm.34 1.888.17.172v.172l-.17-.344Zm0 8.588v-.688h.17v.516l-.17.172Zm.17 2.404v.344h-.17v-2.578l.17 2.234Zm-2.213-18.547-.681 1.03.68.858c-1.02 1.03-.51-1.545-1.872-1.03.681-.858 1.873-.858 2.724-1.202l1.192-.344c0 .344 0 .688.17 1.03-.34-1.03-1.532-.342-2.213-.342ZM88.19 23.7c-.17 0-.851-.516-.68-1.203l.68 1.203Zm-.51 1.201c-.512.344-.17-.516-.341-.686.34.17.681.342.34.686Zm1.361-1.03c.341-.344.852-.344 1.193-1.031-.34-.343-.852-.687-.682-1.203.682-.514 1.363.172 1.703 1.032-.51 1.202-2.043 1.888-1.532 3.434.34.516.681 1.546 1.532 1.546-1.192.171-.851 1.03-.34 1.718v.17c.34.859.681 1.547-.852 1.375.341-.516.852-.687.852-1.375v-.17c-.852 0-1.363-1.203-1.874.17.17 1.031-.68.344-1.361.516l-.17-.172c1.872.859 0-2.232 1.872-1.545.852-.859-.68-1.375-.852-2.233l-1.191.172c.17-1.03 2.213-.687 1.703-2.404Zm.341 6.697-.51.344h-.17l.68-.344Zm-1.192.344h-.68c0-.344.17-.172.34 0h.34Zm-.68-3.95c.85-.171.85.515 1.191.687-.51.171-1.021.687-1.021 1.374h-.341c-.17-.859 0-1.374.17-2.062Zm3.064 5.838c-1.532 2.233-4.597-1.545-5.449 1.547l-.51-1.718 5.96.171Zm-4.938-3.605c0-.516.511-.172.851-.172l.171 1.717c-1.192 0-.17-1.203-1.022-1.545Zm.17-5.152c.17 0 .511.172.681.514l-.68-.514Zm0-1.374c-.17-.172.341-.516.511-.344 0 .344-.51 0-.51.344Zm-1.021 3.778c0 .172-.341 0-.51-.344l.68-.172c-.17.172-.17.344-.17.516Zm-.851-1.89c-.17.172.17-.857.51-.172l-.51.172Zm.68 3.263c-.34.344-.51.516-1.02.516.17-.516.68-.859 1.02-.516Zm-.85-1.03c-.341 0-.512-.515-.17-.687.34.172.34.516.17.688Zm.34 4.294c-.17.515-.681.515-1.362.515 0-.687.851-.515 1.362-.515Zm-1.192-1.03c-.34 0-.511-.687-.17-.86.51-.171.17.515.17.86Zm-.851-2.405.17-.858.51.686-.68.172Zm.34 12.879-.34.344v.172h-.171c.17-.859-.51-1.201-1.362-1.375-.17.174-.34.174-.681.344.68-.858 2.214-.686 2.554.515Zm-1.532 1.03.17.173c-.34.516-1.022 1.202-1.532.858l1.361-1.03Zm-1.362-.342c-.341-.172-.682-.688-.682-1.203.34.172 1.022.687.681 1.203Zm2.213 4.636-2.384-.172c-.34-.515-.17-1.03.17-1.373-.17.344.17 1.545 1.022 1.373 1.533-.17 2.554-1.545 3.065-2.576.17-.515-.34-.857-.681-1.03l-.681.173c.51-1.203 2.043-.344 1.873.686.17 1.546-1.533 2.404-2.384 2.919Zm.34 1.717 3.236-3.949c3.745 3.092 8.343 4.808 12.6 6.01-2.725 2.06-7.492 1.89-10.557 0-2.214.343-3.576-1.03-5.278-2.06Zm13.452 4.638-.51.686-.682-.514c.17 0 .851-.344 1.192-.172Zm-5.278.858-.511-.858h1.022c.17.342-.17.514-.511.858Zm2.043 2.576c-.17-.344-.34-.515 0-.859.34 0 .681 0 .85.515 0 .344-.51.86-.85.344Zm7.322-2.233c-.51 0-.681-.343-.681-.859v-.17c.17.17.681.858 1.021.342.341-.686 0-1.545-.85-1.717-2.215 0-2.555 2.92-4.599 3.263-.34.172-.34.515 0 .859 1.533.515 2.214-1.718 3.235-2.405-.34.86-1.021 1.89-1.702 2.749-.511.171-1.022.342-1.873 0-.511-.516-.511-2.062-1.703-2.062-1.192.344-1.022 2.748-2.724 2.233-1.192-.859-1.362-1.717-2.384-2.92 1.362.687 1.873 3.091 3.406 2.233.34-1.03-.682-.515-1.193-1.202-1.022-.859-1.532-2.919-3.405-2.748-.681 0-1.192.687-1.192 1.203 0 .172.17.858.681.514.17 0 .511 0 .511-.342v-.172c0 .342.17.858-.17 1.03-.852.515-1.362-.516-1.533-1.202 0-.687.852-1.202 1.362-1.374 3.236-1.202 3.576 5.667 5.79 1.718.17-.516 1.192-1.031 1.532-.344.51.858 1.192 2.232 2.384 1.545.681-1.201 1.532-2.576 2.724-2.747.852-.172 1.703-.172 2.384.687 0 .859-.17 1.888-1.02 1.888Zm1.192-4.121-5.28-1.374-.34-2.92c4.257-.686 8.684-5.15 9.876-9.617.852-3.777.171-7.899-2.384-11.161-2.895-3.951-7.492-5.668-12.259-4.81-4.257.687-7.152 3.092-9.025 6.698-2.213 3.606-1.702 7.9-.34 11.506l-.17.515L76.1 40.7c-3.235-6.01-2.724-13.223.851-18.89 1.533-2.233 3.066-3.95 5.79-5.667l.34.344c5.108-3.435 13.963-3.435 19.07 0l.511-.516c6.811 4.465 9.536 12.021 8.344 19.749-1.363 5.839-4.427 10.648-10.216 13.567Zm21.795 5.152c-.34.172-1.192.858-1.703.343l-.171-.343c.511 0 1.534-.172 1.362-.859 0-.859-1.022-1.373-1.703-1.545-2.213 0-4.597.686-6.64 1.889.852.515 2.213.515 2.724 1.202-3.405-1.03-6.64.859-10.045.859-.511 0-.852-.688-1.192-1.03 1.702.515 4.426.342 6.129-.86.681-.687 1.363-1.202 1.873-2.06.171.172.171.858.171 1.373 2.553-.687 4.937-2.575 7.661-1.717l1.194.688c.509.514.68 1.373.34 2.06Zm-16.858-.515c1.363-2.233 4.258-2.576 6.64-2.748-.34 1.203-1.532 2.404-3.064 2.748-.852.343-2.554.343-3.576 0Zm8.343-2.92 2.896-.17-2.725 1.2-.171-1.03Zm49.891 3.435c-.171 0-.171 0-.171.172l-1.192-1.89c.681 0 1.873.86 1.363 1.718Zm-21.455-.172c-11.408-1.202-23.497-8.071-35.076-3.606-1.192.515-2.043 1.202-2.895 2.232 2.214-3.777 7.322-3.777 11.408-4.293 7.492.172 15.155 2.92 22.306 4.808.17-.515 1.022 0 1.192.172 9.025 1.546 19.412-.343 27.073-4.637-6.469 4.809-16.345 6.011-24.008 5.324Zm22.817-12.708c.851-.171 1.532.344 1.702 1.03-.68 2.232-1.191 3.607-.68 5.496-7.663 3.778-16.518 6.182-25.712 4.636-11.919-2.06-24.008-8.414-35.756-1.888l-.171-2.748 3.235-3.092c15.665-4.808 29.628 6.698 44.952 3.779 4.937-.687 8.684-1.89 12.941-5.324.511-.344.68-1.375-.341-1.375-.682 0-1.362.344-1.874.516.171-.686 1.023-.686 1.704-1.03Zm-2.384 3.262.17-1.201.341.344c0-.86 1.021-.516 1.361-.86-.34.516-1.021 1.203-1.872 1.717Zm-1.362.344-.682.344c.682-3.262 2.555-5.84 2.724-8.93 1.704-1.203.682-3.091.342-4.808l-.682-1.718.511-.344c3.405 4.81-1.021 10.648-2.213 15.456Zm12.429-1.889c-.851.172-1.021-1.203-1.872-.859-.341-.686-.681-1.545-1.533-1.717l-.17.172c-.341-.687-.51-1.545-1.192-1.717v-4.122c2.214 2.404 3.064 5.839 5.788 7.9-1.19-2.748-2.212-4.98-4.085-7.728-.852-1.03-1.703-1.889-2.896-2.405 1.875-.857 3.065 1.03 4.769 1.203l.51 1.03c.852.515.17 1.718 1.193 2.404-.852 1.031 1.872 1.718.851 2.406 1.021 1.201 0 1.888 1.362 2.918-.51.343 0 1.374.17 1.89-1.192-1.031-2.043-.172-2.895-1.375Z" fill="#231F20"/><path fill-rule="evenodd" clip-rule="evenodd" d="M58.222 2.919c-.85-.171-2.043-.343-2.894-.171l1.362 1.717c.511-.344 1.363-.686 1.532-1.546ZM125.31 10.819c-.852.172-1.534 1.03-.682 1.717.852.344 2.043.172 2.215-.859-.341-.514-.852-1.03-1.533-.858ZM132.12 13.052l-1.191-.344c-1.022.516-1.192-.344-1.874.172-.681.859 0 1.89.681 2.576.171-.172.342-.344.342-.687.34 2.232 2.382.171 2.893 1.546.172-.172 1.023 0 .852-.515-1.021-.516-1.192-1.717-1.703-2.748Zm-.51 2.232c-.511.172-.852-.515-1.021-.859 0-.514-.001-.858.51-1.03.169.344.681.516.851 1.03-.17.344-.169.515-.34.859ZM45.112 21.295c.851-.687.34-2.234.851-2.919l.17 2.232c1.193-1.03 1.193-2.576 1.873-4.121h-.851c0-.859 1.022-1.031 1.533-1.718l-.17-.172 1.872-.172c.17-.342.851-.172.681-.858-1.361 0-2.554-.343-3.916-.172-.511.344-1.362 1.202-1.022 1.717h.682c-.682.859-.682 2.233-1.022 3.264-.34-.86 0-1.89 0-2.576-2.044 1.201-.34 3.95-.68 5.495Zm3.065-6.698v-.172h.17v.172h-.17Zm-.34 0c0 .343-.511 0-.682.172 0 0 .511-.172.681-.172Z" fill="#231F20"/><path fill-rule="evenodd" clip-rule="evenodd" d="m130.929 13.91.17 1.03c.34 0 .682 0 .511-.343-.171-.172-.171-.858-.681-.686ZM94.49 15.456c-.51-1.203-2.724-1.545-3.234-.344-.511.688-.34 1.89.17 2.576 1.192.172 1.702 2.061 2.894 1.203l-1.02-.687c1.02-.516 1.19-1.375 1.19-2.748Zm-1.702 2.232c-.681.172-.851-.687-.851-1.201l.51-1.718c.511 0 1.022.515 1.022 1.202 0 .516 0 1.717-.681 1.717ZM44.26 17.516c.511-1.201.852-1.888 1.362-2.919-3.746 1.374 0 6.526-4.086 7.9.51.515 1.532 0 2.043-.344 1.533-1.201.51-3.092.681-4.637ZM98.747 15.456l-1.192-.172.341.687c-.34.858-.17 1.889-1.192 2.233-.34.172-.852-.172-.852-.516 0-1.201.17-2.232.682-2.748l-1.192-.343c.51 1.031-1.022 2.748.17 3.779 2.554 1.716 2.213-2.405 3.235-2.92ZM64.183 16.143c-.512-.515-1.363-1.718-2.044-1.031.17 1.03 1.192 1.375 2.044 1.03ZM89.041 15.97c-.17-2.231-2.383 0-3.405 0 0 .345.17.517.34 1.031l.511-1.03c.852.344 1.022 2.061 1.022 3.09.511-.342 1.362-.17 1.532-.685-1.02-.516-.85-2.061-1.362-2.92 1.022 0 1.533.859 2.044 1.717.681.172 1.022-.858.681-1.373-.34-.344-1.022-.172-1.363.17ZM62.139 18.204l.17-.516c.51 1.203 1.022 3.092 2.554 2.748-1.192-1.03-1.362-2.92-2.554-4.121l-.34.858c-.17-.686-.682-1.373-1.363-1.373 0 1.03.51 2.06 1.533 2.404ZM100.621 16.487c-.34-.344-1.022-.516-1.532-.687l.169.515c-.51 1.03-.51 2.232-1.532 2.746.51.172 1.021.688 1.363.516l-.171-.344c.51-1.029.51-2.232 1.703-2.746ZM85.125 16.143l-1.191 1.03c.85.343 1.532 1.888 1.532 2.748.51.171 1.021-.344 1.362-.688-1.022-.514-1.703-2.06-1.703-3.09ZM101.642 18.547c-.171-.515-.511-.687-1.021-.859-.511.344-.852.859-.34 1.373.68.516 1.19-.17 1.361-.514ZM82.742 17.86c-1.022.516-2.044 1.201-1.703 2.232.681.86 1.362 1.717 2.384 1.545.851-.514 1.533-1.201 1.533-2.06-.512-.858-1.022-1.889-2.214-1.717Zm1.192 2.92c-.511.515-1.533-.344-1.873-1.03 0-.517-.34-1.031.34-1.203.852-.171 1.362.686 1.703 1.202l-.17 1.031ZM107.091 28.679c-.511-.172-1.023-.687-1.023-1.374.852 0 2.384-1.03 3.066-.686l-.511-1.374c-.852.858-2.043 1.202-3.065 1.03l1.873-3.091c-.851-.515-2.724.687-3.576-.172.852-.859 1.192-1.89 2.213-2.06-.51-1.89-2.042.343-3.064 0-.17-1.03 2.043-2.405 0-3.092v.344c-.681.687-1.362 1.888-2.554 1.888.17.516.341.688 1.021.86-.511-.86 1.021-1.203 1.192-1.547 0 .859-.68 1.547-.511 2.404.852-.172 1.874-.857 2.215-.686-.681.514-.852 1.717-1.533 1.374l1.361 1.718.512-.344c.511 0 .34.514.681.858-.17.172-.17.687-.681.516 1.192 1.03.34 4.292 2.384 3.434Zm-1.363-4.979h.34l-.34.515V23.7ZM45.112 21.981c1.191-.172 2.554-.514 3.746-.686 0-.859-1.022-1.374-1.022-2.234-.51 1.031-2.043 2.234-2.724 2.92ZM53.455 19.577c-.681.172-1.192.859-1.362 1.375h.17c.681.17 1.703-.344 1.192-1.375Z" fill="#231F20"/><path fill-rule="evenodd" clip-rule="evenodd" d="M79.336 21.467c0-.859 1.022-.344 1.362-.687l-1.021-.516-.681 1.203c-.341 2.576 2.383.17 3.065 1.373-.511.86-1.022.344-1.703.344 0 .516.68.859 1.021 1.03.341-.687 1.362-1.374 1.022-2.06-.68-1.718-2.383.343-3.065-.687ZM147.956 22.84c-.341-1.03-1.533-1.203-2.214-1.717v.514c.341.688 1.362 1.547 2.214 1.203ZM48.688 21.637c-1.704.688-4.087.516-4.939 2.234l2.725-.859c.68-.687 2.895.172 2.214-1.375ZM127.183 21.981c.169.516.169.859.681 1.203l1.022-.687-1.703-.516ZM49.028 23.527l-.17-.687c-1.533.344-2.555 1.03-3.746 1.375l.17.686c1.533.344 2.043-.858 3.746-1.374Z" fill="#231F20"/><path fill-rule="evenodd" clip-rule="evenodd" d="M79.847 24.043c0-.343-.34-1.031-.681-1.203-.511.344-1.022 1.03-.511 1.545.34.344 1.022.344 1.192-.342ZM128.034 24.557c.512-.514 1.021-.857.681-1.545-.851.515-1.192.859-.681 1.545ZM46.133 26.447c1.193-.687 2.895-.859 2.895-2.404l-3.065 1.373c-.34.172-.17.859.17 1.03ZM80.018 25.76c-.852-.515-2.214-.515-2.725-1.545l-.681 1.373c.17 0 .34.172.34 0 .852.172 2.384.343 2.725 1.373.17-.342.851-.858.51-1.373-.17-.172 0 0-.17.172ZM135.186 25.93c-.852-.17-1.021-.857-1.703-.685l.17 1.202 1.533-.516ZM162.941 26.103c.169-.172 0-.343.169-.343l-1.021-.172v-.172c-.682 0-1.022.172-1.363.515.341.344.852.344 1.192.172v.172c.341.344 1.023.344 1.023 0l.169.516c.171 0 .681.17.681-.172l-.34-.688-.51.172ZM133.143 25.416l-.512 1.03c.171.345.512 0 .682 0l-.17-1.03ZM46.474 28.679h.851c1.192-.515 1.192-2.06 1.192-2.919-1.363.17-1.192 2.06-2.043 2.919ZM127.523 25.93l-.17.689c.17.514.681.858 1.362.686.852-1.03-.85-1.03-1.192-1.374ZM76.101 29.71c.852.171 2.043.171 2.554 1.03 0-.344.682-.859.17-1.203-.68.859-1.532-.17-2.043-.342l2.725-1.203v-.515c-1.022-.344-2.384-.516-3.235-1.202l-.17 1.03c.51-.514 1.362.344 2.042.172-.85.859-2.895.859-2.554 2.404l.511-.172ZM134.165 27.65l.85-1.203c-.51 0-.85 0-1.192.344l.342.858ZM161.238 26.447h-.681l-.342.858h.852l.171-.858ZM162.428 27.305l.171.859c-.511.687-1.192-.687-1.703 0 .171-.515-.85-.515-1.021-.515l.34.858c.171.172 1.192.86 1.703.516h.341c.34-.344 1.192-.687.511-1.031.17 0 .17 0 .34.172.341-.172.341-.687.51-1.03-.51-.343-.85.171-1.192.171Z" fill="#231F20"/><path fill-rule="evenodd" clip-rule="evenodd" d="M161.407 27.65c.511.17.852.17 1.021-.345.171-.172.171-.172.171-.344-.681-.686-1.361.172-1.192.688ZM129.397 26.79c0 .515-.682.515-.171.86.341.342 1.021.857 1.192 0 .34-.689-.681-.689-1.021-.86ZM131.099 27.65l-.341.857.51.344c.512.516.682-.344.852-.687-.17-.515-.681-.172-1.021-.515ZM108.964 28.85c-.172-.686-1.193-.686-1.533-.171-.34.344 0 .688.171 1.03.85.344 1.362-.172 1.362-.858ZM132.631 28.507l-.17.344c-.68.686.51.858.852 1.03l.34-.858-1.022-.516ZM140.634 29.71a5.188 5.188 0 0 0-1.192-.86v1.203c.341-.172 1.192.343 1.192-.344ZM139.273 29.881l-.171-.858-.852 1.03c.341-.172.852.515 1.023-.172Z" fill="#231F20"/><path fill-rule="evenodd" clip-rule="evenodd" d="M106.239 30.74c0 .687 0 1.203.342 1.717l.51-.514c1.192-.344 2.214.342 3.064.857 0-.343.171-.857-.34-.857-.17.514-.681-.344-1.192-.344.17-.344 1.022-.859 1.363-.859l-.341-1.373-1.874 1.545c-.51.172-1.021.343-1.532-.172ZM134.164 29.367l-.512 1.029c.512 0 .852 1.03 1.363.344.681-.859-.511-1.03-.851-1.373ZM135.186 31.427l.851.516c.341-.344.51-.516.51-1.031l-.85-.344-.511.859ZM78.655 33.488c-.17-.859.681-1.375 0-2.061-.51-.515-1.191-.859-1.873-.859-.51.172-.85.344-1.192.859-.68.858 0 2.061.511 2.576.852.344 2.043.344 2.554-.515Zm-2.554-1.717c.681-.344 2.895-.344 2.214 1.202-.681.515-1.703.171-2.384 0-.34-.344-.17-.86.17-1.202ZM137.058 31.599a.538.538 0 0 0 0 1.03c.341.171.341.171.681 0 .852-.686-.34-1.03-.681-1.03Z" fill="#231F20"/><path fill-rule="evenodd" clip-rule="evenodd" d="M108.452 34.347c.34-.344.852-.344.682-.859 0-1.03-1.874-.859-1.532 0 0 .515.34.687.85.859ZM78.825 37.095c-1.022.858-1.022-1.031-1.191-1.375.51-.172 1.362-.687 1.362 0l.17-.172c-.17-.515 0-1.201-.511-1.545-.511 1.03-2.043 1.03-2.724 1.202v-.172l-.341.172c.17.343.17 1.031.51 1.374l.512-.687c.851-.516 1.022 1.203.851 1.717h-1.191c-.171.344.34.859.34 1.374.51-.687 2.213-1.203 3.235-1.03l-.51-1.546-.512.688ZM106.068 35.72l.342-.344c1.021 0 1.021.516 1.021 1.375.171.514.34 1.202 1.192 1.029 1.021-.515.851-1.888 1.192-2.919-.851.344-2.724 0-3.405-.858l-.342 1.717Zm1.703 0c.681.172 1.873 0 1.193.859-.681.172-1.362-.172-1.193-.859ZM103.855 42.933c.512-.172 1.874-.172 2.384-.172.511 0 .852-.858.682-1.03l-.34.172c-.682-.515-2.044-1.031-1.874-2.06.34-.174.511.514.851.17-.851-.514-.34-1.201 0-1.717.341.344 1.023 0 1.023.687-.171.172-.512.516-.682.344 0 .516.511.516.851.686.681 0-.511-.858.341-1.03.17.172.851.344.68.86-.169.514-.68.342-1.021.685l.171.172c1.532.859 1.362-1.545 2.044-2.232-1.363.172-2.726-.688-3.407-1.717-.511 1.545-1.021 2.918-1.703 3.949.682-.343 1.363.859 1.703 1.203-1.191.17-2.043-.172-3.235.344.682.857 2.044 1.373 2.384 2.574.34-.17.851-.342.682-.857-.682.343-1.022-.688-1.534-1.03ZM53.625 39.67c.17 1.03-2.043 1.202-1.532 2.233l3.065-1.718c.68-.342 1.532.343 1.532-.516.34-.17.852.516 1.192-.17-1.532-1.375-2.554.17-4.257.17ZM123.607 40.528c.511.688-.34 2.748 1.362 2.233-.17-.688.17-2.576-1.362-2.233ZM125.48 41.044v1.89c0 .514.851.686 1.191.342v-1.203c0-.685-.68-.857-1.191-1.029ZM127.013 41.559c.51.688-.342 3.092 1.533 2.576v-.687c-.172-.687-.172-2.404-1.533-1.89ZM129.055 41.903l.342 2.576c.34 0 .85.172 1.021-.172-.34-1.031.171-2.576-1.363-2.404ZM130.929 42.417l.34 2.404c.341-.342.681.172 1.022-.342-.17-.859-.341-2.062-1.362-2.062ZM100.961 44.307v-.859h1.702c-.17-.344-.511-.515-.68-.859-.512.344-1.873.859-1.533 2.062.171 1.201 2.043.514 2.724.686.171 0 .171.343 0 .515-.34.516-1.021 0-1.361 0 .17.344.34.687.68.86.512-.173 1.193-.688 1.193-1.375 0-1.373-1.873-.686-2.725-1.03ZM132.802 43.276c-.342.344.169.859.169 1.375.341.342.852 0 .852-.172-.171-.859-.34-1.203-1.021-1.203ZM67.417 44.307c-.68-.172-.34.686-.17.858.17.172.681-1.03 1.192-.344 0 1.031.34 1.891-.17 2.576l1.532-.17-.17-.172c-.17-.859-.34-2.062.17-2.576l.681.686.17-.172c-.17-1.545-2.213-.514-3.235-.686ZM115.434 44.307c-2.214-.859-1.532 1.373-2.214 2.232l-1.532-1.888c-.681-.172-.681.17-1.193.342.172 0 .341 0 .341.172.171.687.682 2.062 0 2.748.171.172 1.022-.172 1.022-.344-.511-.342-.511-1.201-.34-1.717l1.192 1.717c.852.172.852-1.373 1.361-1.889l.171.172c0 .516.341 1.203-.171 1.545.512 0 1.533.172 1.703-.17l-.34-.344c0-.859-.851-2.062 0-2.576ZM117.647 44.307c-.851.514-1.192 1.202-1.021 2.061.51 1.201 1.702 1.03 2.384 1.201 1.021-.172 1.532-1.373 1.361-2.404-.509-.858-1.872-1.03-2.724-.858Zm.681 2.92c-.681-.344-.852-1.375-.681-2.234 1.021-.858 1.873 0 1.873 1.203-.17.516-.681 1.201-1.192 1.03ZM99.769 44.307l-2.384 1.202c0 .343.17.859.511 1.03 0 0 .17-.343 0-.687.17-.343.511-.687 1.022-.687.34.344.681.687.34 1.031l-.85.172.68 1.03c-.17-.515.17-.515.511-.86.17.345.511.86.34 1.203-.34.172-1.021.344-1.362 0-.17.344.34.687.511.859l2.383-1.203c-1.361-.685-1.361-2.232-1.703-3.09ZM65.374 47.397c-.852 0-.34-.685-.511-1.201.34-.172.51.343.851.343l.17-.171c0-.344-.17-.859-.34-1.03-.17.171-.17.686-.51.514-.682.344-.171-.687-.512-.859.512-.172 1.363-.514 1.703.344 0 0 .17-.172.17-.344l-.17-.514c-1.021.342-2.383-.172-2.894.342l.34.172c.17.859.511 2.234 0 2.92l2.895-.344c.17-.514.17-.857 0-1.03-.17.516-.681.688-1.192.858ZM124.289 47.055c-.852-.687-.852-2.748-2.555-2.404.681.514 0 1.888 0 2.576l-.681.342c.17.516 1.021.172 1.362.344-.681-.686-.169-1.545 0-2.061.682.86 1.192 2.061 2.214 2.576.34-1.03.17-2.232 1.021-3.09l-1.192-.173c.681.515 0 1.547-.169 1.89ZM85.296 46.024c-.681.515 0 1.373.51 1.545.511-.172.681-.686.681-1.03 0-.687-.85-.687-1.191-.515ZM56.35 46.024c-.34.344-1.192-.172-1.022.515h.34c.341.688.511 1.718.341 2.404-.51.344-1.192.688-1.533 0 0-.686-1.021-1.716-.34-2.404-.511.173-1.192.173-1.533.688.17 0 .17.17.341.17.511 1.203.511 2.748 2.384 2.406 2.384-.172.51-3.091 1.022-3.779ZM128.715 46.196c-.169.172 0 .343.34.343-.34 1.03-.34 2.233-1.361 2.748 1.021.172 2.384.516 3.575.344.512-.172 1.192-.859 1.022-1.718-.51-1.374-2.384-1.201-3.576-1.717Zm2.384 2.404c-.17.687-1.192 1.03-1.532.516l.34-2.233c.851 0 1.703.858 1.192 1.717ZM59.074 47.055c.17.686.68.514 1.022.858.51-.172.68-.516.68-.858.34-1.203-1.702-1.031-1.702 0ZM126.162 46.712c-.512.685-.171 1.716.509 1.545.341.171.852-.344.852-.688 0-.857-1.021-1.03-1.361-.857ZM52.093 49.459c-.17.514-.511.858-1.192 1.202-.51-.344-.17-.858-.34-1.202 0-.516.851 0 1.02 0 0-.516 0-.687-.34-1.031 0 .344-.51.688-.85.515 0-.343-.341-1.03.17-1.03.51-.344.851.344 1.361.172l-.51-.688c-.852.344-2.043.172-2.554.86h.17c.34.859 1.022 1.888.51 2.919 1.193-.172 2.044-.172 2.895-.859l-.17-1.03-.17.172ZM136.547 48.772c-.169-1.203-2.213-1.203-3.064-1.375l.17.344c-.17 1.031 0 2.232-1.022 2.92l1.703.343c-.34-.17-.169-1.03 0-1.545.341.344.341.686.852 1.202 0 .343 1.021.859 1.192.687l-.681-1.89c.34 0 .681-.342.85-.686Zm-1.872.17h-.341l.341-.685.851.171c.171.344-.34.688-.851.515ZM89.212 49.116c.51.17.851-.516.851-.859-.17-.688-1.022-.86-1.362-.344-.34.515-.17 1.203.51 1.203ZM48.177 51.348c-.341-1.03-1.022-2.405-.17-2.92-.681-.17-1.533 0-1.874.344 0 .17.17.17.341.17.34.86.852 2.062.17 2.92.51-.171 1.533 0 1.873-.342 0-.344-.17-.172-.34-.172ZM137.57 49.116c-.681.857-.341 1.545 0 2.404.68.515 1.872.687 2.555.515.85-.515 1.021-1.89.68-2.748-.852-.859-2.214-1.202-3.235-.171Zm2.213 1.888c0 .516-.852.859-1.192.516-.51-.516-.341-1.547-.17-2.233.852-1.03 2.213.516 1.362 1.717ZM41.365 49.287c-.17.516.34.344.511.516 0 1.201.511 2.232 0 2.918.852.172 1.533-.342 2.384-.514 1.022-.172 1.532-1.203 1.192-2.404-1.022-1.718-2.554-.344-4.087-.516Zm2.895 2.404c-.34.172-.681.516-1.022.344l-.51-2.404c1.362-.515 1.872 1.03 1.532 2.06ZM142.336 49.287c.171.858.171 2.92-.51 3.262h1.702l-.34-.17c.171-.688-.17-2.406.682-2.92l-1.534-.343v.17ZM144.55 49.287l-.17 1.03c.511 0 .17-.514.511-.686.171 0 .511 0 .681.342-.17 1.031.34 2.234-.51 2.576h1.532c-.511-.342-.342-1.888-.171-2.918.681 0 .852.514 1.192 1.03.341-.516 0-.858 0-1.202l-3.065-.172ZM16.357 90.846H4.097v-.859c2.553-.171 3.405-.343 3.405-3.263V68.693c-2.383.172-5.96.343-6.64 5.839H-.16l.17-7.041h20.433v7.04h-.852c-.68-5.495-4.256-5.666-6.64-5.838v18.031c0 3.092.851 3.092 3.405 3.263v.859ZM47.516 90.846H35.938v-.859c1.702-.171 3.064-.343 3.064-2.404v-7.9H30.66v7.9c0 2.061 1.363 2.233 3.235 2.404v.859H22.316v-.859c1.873-.171 2.894-.343 2.894-2.404V70.925c0-2.232-1.532-2.404-2.894-2.575v-.86h11.578v.86c-1.532.17-3.235.17-3.235 2.575v7.041h8.343v-7.041c0-2.404-1.532-2.404-3.064-2.575v-.86h11.578v.86c-1.532.17-3.065.343-3.065 2.575v16.658c0 2.061 1.192 2.233 3.065 2.404v.859ZM48.708 67.49H68.46v7.042h-.852c-.852-4.98-3.235-5.84-7.832-5.84-1.873 0-2.554.173-2.554 1.718v7.9c3.234 0 5.108-.86 5.618-5.152h.852v11.677h-.852c-.51-4.293-2.213-5.323-5.618-5.323v8.415c0 1.373.68 1.889 2.894 1.889 3.406 0 6.811-.86 9.024-6.183h.852l-1.362 7.213H48.708v-.859c1.873-.171 3.065-.343 3.065-2.404V70.925c0-2.404-1.533-2.404-3.065-2.575v-.86ZM97.066 90.846h-12.26v-.859c2.554-.171 3.405-.343 3.405-3.263V68.693c-2.384.172-5.96.343-6.64 5.839h-1.022l.17-7.041h20.433l.17 7.04H100.3c-.68-5.495-4.256-5.666-6.64-5.838v18.031c0 3.092.851 3.092 3.406 3.263v.859ZM114.944 90.846h-11.92v-.859c1.873-.171 3.065-.343 3.065-2.404V70.925c0-2.404-1.532-2.404-3.065-2.575v-.86h11.92v.86c-1.533.17-3.236.17-3.236 2.575v16.658c0 2.233 1.362 2.233 3.236 2.404v.859ZM147.126 90.846h-11.408v-.859c2.043-.171 3.064-.343 3.064-2.576V70.067h-.171l-8.513 20.779h-.851l-8.514-20.264h-.17v15.97c0 2.405.681 3.264 3.576 3.435v.859h-8.003v-.859c2.554-.171 3.065-.687 3.065-2.747V70.925c0-1.89-.681-2.404-3.065-2.575v-.86h8.684l6.811 16.315 6.811-16.315h8.684v.86c-2.044.17-3.065.343-3.065 3.262v15.112c0 2.92.681 2.92 3.065 3.263v.859ZM148.316 67.49h19.752v7.042h-.85c-.682-4.98-3.235-5.84-7.832-5.84-1.875 0-2.384.173-2.384 1.718v7.9c3.234 0 4.937-.86 5.448-5.152h.85v11.677h-.85c-.342-4.293-2.214-5.323-5.448-5.323v8.415c0 1.373.509 1.889 2.724 1.889 3.405 0 6.981-.86 9.024-6.183h1.021l-1.361 7.213h-20.094v-.859c2.044-.171 3.066-.343 3.066-2.404V70.925c0-2.404-1.362-2.404-3.066-2.575v-.86ZM186.288 74.532c-.681-2.404-2.725-6.526-6.812-6.526-1.702 0-3.574 1.202-3.574 3.434 0 1.718.68 2.577 3.405 3.95l5.108 2.576c1.192.516 3.745 2.576 3.745 6.354 0 2.92-2.213 7.213-8.513 7.213-3.235 0-4.768-1.202-5.789-1.202-.682 0-.851.687-1.022 1.202h-1.021v-8.587h1.021c.682 3.435 2.724 7.385 6.982 7.385 4.086 0 4.256-3.435 4.256-3.779 0-2.404-1.532-3.262-3.746-4.293l-2.384-1.03c-5.789-2.92-5.789-5.839-5.789-7.384 0-2.061 1.021-6.87 7.492-6.87 2.724 0 4.427 1.203 5.449 1.203.68 0 .851-.516 1.022-1.203h1.021v7.557h-.851Z" fill="#231F20"/><path d="M-.16 99.089h188.32" stroke="#231F20" stroke-width=".951" stroke-miterlimit="2.613"/></g><defs><clipPath id="a"><path fill="#fff" d="M0 0h188v100H0z"/></clipPath></defs></svg>