<svg width="80" height="80" viewBox="0 0 80 80" fill="none" xmlns="http://www.w3.org/2000/svg">
<rect width="80" height="80" fill="black"/>
<path d="M56.3976 32.0062C58.4473 33.6459 60.087 36.1057 61.3168 38.5653L67.4659 35.6957C66.236 31.5963 63.3665 27.9069 59.677 25.4472L56.3976 32.0062ZM21.1429 25.8571L12.5341 7H21.1429L27.2919 20.1181C25.6522 21.3479 23.1925 23.3974 21.1429 25.8571ZM33.851 52.0932H41.6398L62.1367 7H53.528L37.5404 41.4349L35.9007 37.7454C33.0311 40.205 31.3913 47.174 33.851 52.0932ZM51.0683 43.8945L47.3789 52.0932H60.087C59.2671 59.0622 53.1181 65.2113 44.5094 65.2113C34.6709 65.2113 26.882 57.0126 26.882 46.7641C26.882 39.3852 30.5714 33.236 36.7205 29.9565L40.8199 20.938C28.1118 22.5778 18.6832 33.6461 18.6832 46.7641C18.6832 61.1119 29.7516 73 44.0994 73C49.8386 73 57.2174 70.1306 60.087 66.0312V72.1803H67.4659V43.8945H51.0683Z" fill="white"/>
</svg>
