<svg xmlns="http://www.w3.org/2000/svg" width="84" height="85" fill="none" viewBox="0 0 84 85"><path fill="#000" d="M66.889 42.04C66.889 55.795 55.755 66.93 42 66.93V42.04h24.889ZM42 17.151v24.89H17.111c0-13.756 11.134-24.89 24.889-24.89Z"/><path fill="#fff" d="M42 17.151c13.755 0 24.889 11.134 24.889 24.89H42V17.15Zm-24.889 24.89H42v24.888c-13.755 0-24.889-11.134-24.889-24.889Z"/><path fill="#000" d="M42 17.151v1.365c12.97 0 23.524 10.552 23.524 23.524h1.365c0-13.745-11.144-24.889-24.889-24.889Zm0 48.413c-12.97 0-23.524-10.551-23.524-23.524H17.11C17.111 55.785 28.255 66.93 42 66.93M42 .04c-23.195 0-42 18.805-42 42s18.805 42 42 42 42-18.805 42-42-18.805-42-42-42Zm39.269 42c0 21.687-17.58 39.269-39.269 39.269S2.731 63.727 2.731 42.04C2.731 20.354 20.314 2.771 42 2.771c21.687 0 39.269 17.582 39.269 39.269Z"/><path fill="#000" d="M24.052 21.778c1.342-1.403 2.102-3.025.76-4.574-.73-.84-1.957-1.024-2.974-.61l-.1.04.031-.09c.15-.399.247-1.673-.846-2.552-.533-.429-1.201-.588-1.877-.52-1.261.128-2.23.983-4.87 3.906a63.289 63.289 0 0 0-2.653 3.175l7.251 6.831c2.403-2.64 3.383-3.623 5.277-5.606Zm-9.462-1.67c1.46-1.774 3.012-3.384 3.715-4.021.223-.201.464-.402.758-.48.476-.13.967.205 1.078.69.111.488-.197.951-.54 1.333-.773.865-3.605 3.808-3.605 3.808l-1.406-1.33Zm2.84 2.675s2.758-2.896 3.658-3.822c.358-.368.588-.59.834-.71.319-.155.666-.187.977.019a.852.852 0 0 1 .37.901c-.09.415-.431.809-.713 1.11L18.9 24.167l-1.47-1.384Zm25.399-9.151 2.322-5.165.147-.458-.041.477.244 6.902a35.62 35.62 0 0 1 2.484.326l-.377-10.222a51.873 51.873 0 0 0-3.47-.267l-2.286 5.638-.081.419-.082-.419-2.285-5.638c-1.154.05-2.309.14-3.468.267l-.378 10.222a37.14 37.14 0 0 1 2.485-.326l.244-6.902-.042-.477.148.458 2.322 5.165h2.114Zm19.28 10.685c.57.607 1.392 1.587 1.853 2.183l8.497-5.356c-.424-.551-1.1-1.39-1.606-1.98l-5.38 3.533-.368.314.274-.397 2.375-4.71-1.68-1.668-4.744 2.36-.4.272.319-.365 3.56-5.342a51.792 51.792 0 0 0-1.996-1.602l-5.393 8.43a37.951 37.951 0 0 1 2.158 1.811l5.078-2.616.325-.238-.239.323-2.632 5.048Z"/></svg>