<svg xmlns="http://www.w3.org/2000/svg" width="168" height="40" fill="none" viewBox="0 0 168 40"><path fill="#000" d="M48.55 13.53H35.275a6.247 6.247 0 0 0-6.136 6.33v13.144c-.056 3.442 2.693 6.28 6.136 6.34H48.55a6.25 6.25 0 0 0 6.135-6.34V19.85a6.245 6.245 0 0 0-6.135-6.32Zm2.253 8.09v9.737a4.032 4.032 0 0 1-3.96 4.1h-9.866a4.036 4.036 0 0 1-3.96-4.1V21.62a4.032 4.032 0 0 1 3.96-4.099h9.865a4.039 4.039 0 0 1 3.96 4.1ZM76.746 13.53H63.407a6.247 6.247 0 0 0-6.135 6.33v13.144c-.057 3.442 2.693 6.28 6.135 6.34h13.339a6.25 6.25 0 0 0 6.136-6.34V19.85a6.245 6.245 0 0 0-6.136-6.32Zm2.252 8.09v9.737a4.032 4.032 0 0 1-3.96 4.1h-9.866a4.04 4.04 0 0 1-3.93-4.1V21.62a4.032 4.032 0 0 1 3.961-4.099h9.865a4.04 4.04 0 0 1 3.93 4.1ZM132.854 13.53h-13.328a6.248 6.248 0 0 0-6.136 6.33v13.144a6.248 6.248 0 0 0 6.136 6.33h13.328a6.248 6.248 0 0 0 6.136-6.33V19.85a6.249 6.249 0 0 0-6.136-6.32Zm2.252 8.09v9.737a4.032 4.032 0 0 1-3.96 4.1h-9.865a4.036 4.036 0 0 1-3.961-4.1V21.62a4.032 4.032 0 0 1 3.961-4.099h9.865a4.039 4.039 0 0 1 3.96 4.1ZM161.004 13.53h-13.329a6.247 6.247 0 0 0-6.135 6.33v13.144a6.247 6.247 0 0 0 6.135 6.33h13.329a6.247 6.247 0 0 0 6.135-6.33V19.85a6.245 6.245 0 0 0-6.135-6.32Zm2.252 8.09v9.737a4.033 4.033 0 0 1-3.961 4.1h-9.865a4.036 4.036 0 0 1-3.961-4.1V21.62a4.033 4.033 0 0 1 3.961-4.099h9.865a4.036 4.036 0 0 1 3.961 4.1ZM20.247 13.53H6.92a5.901 5.901 0 0 0-2.165.43V.654H.86v32.361a6.247 6.247 0 0 0 6.136 6.33h13.251a6.25 6.25 0 0 0 6.136-6.34V19.85a6.245 6.245 0 0 0-6.136-6.32Zm2.253 8.09v9.737a4.032 4.032 0 0 1-3.961 4.1h-9.88a4.036 4.036 0 0 1-3.961-4.1V21.62c0-2.2 1.76-4.002 3.96-4.048h9.866A4.044 4.044 0 0 1 22.5 21.62ZM104.823 13.648H91.536a5.901 5.901 0 0 0-2.165.43V.788h-3.894V39.39h3.894v-.344c0-1.56-.077-17.19-.077-17.309 0-2.2 1.76-4.001 3.96-4.047h9.866a4.035 4.035 0 0 1 3.96 4.099v17.637h3.93V20.02a6.241 6.241 0 0 0-6.11-6.372h-.077Z"/></svg>