<svg xmlns="http://www.w3.org/2000/svg" width="180" height="29" fill="none" viewBox="0 0 180 29"><path fill="#000" d="M13.876.05C6.272.05 0 5.868 0 14.04s6.272 13.99 13.876 13.99c5.208 0 9.808-2.812 12.165-7.146l-4.714-2.7c-1.369 2.813-4.144 4.524-7.451 4.524-4.752 0-8.363-3.536-8.363-8.668s3.61-8.667 8.363-8.667c3.307 0 6.082 1.71 7.45 4.524l4.715-2.7C23.684 2.865 19.084.052 13.876.052Zm18.816.685v26.61h5.323V15.94H51.32v11.404h5.322V.735H51.32v9.884H38.015V.735h-5.323Zm41.057 0-11.786 26.61h5.817l2.623-6.082h13.913l2.623 6.082h5.816L80.972.735h-7.223Zm24.329 0v26.61h4.941V6.4l14.256 20.946h4.752V.735h-4.942v17.64L105.111.734h-7.033Zm34.212 0v26.61l19.769.001v-4.942h-14.827v-6.082h12.165V11.38h-12.165V5.677h14.065V.735H132.29Zm28.322 0v26.611H180v-5.321h-14.066V.735h-5.322ZM77.36 5.106l4.828 11.215h-9.657L77.36 5.106Z"/></svg>