<svg width="86" height="86" fill="none" xmlns="http://www.w3.org/2000/svg"><path d="M85.5 43.077c-.03 23.465-19.094 42.485-42.56 42.456C19.49 85.503.486 66.453.5 43.003.515 19.538 19.594.518 43.06.547c23.435.03 42.455 19.08 42.44 42.53ZM42.985 84.691c22.978 0 41.644-18.651 41.673-41.644C84.673 20.07 66.022 1.404 43.03 1.374c-22.977-.03-41.687 18.68-41.687 41.673 0 22.978 18.666 41.644 41.643 41.644Z" fill="#000"/><path d="M42.985 84.69c-22.977 0-41.643-18.68-41.643-41.657 0-22.993 18.71-41.688 41.688-41.659 22.992.03 41.643 18.71 41.628 41.673-.014 22.993-18.695 41.659-41.673 41.644Zm.03-82.415c-22.461 0-40.773 18.267-40.787 40.699-.015 22.49 18.252 40.801 40.698 40.83 22.505.016 40.817-18.251 40.831-40.742.015-22.475-18.281-40.787-40.742-40.787Z" fill="#FEFEFE"/><path d="M43.015 2.275c22.46 0 40.742 18.312 40.742 40.787-.014 22.476-18.326 40.758-40.83 40.743-22.447-.03-40.714-18.341-40.684-40.831.014-22.432 18.326-40.699 40.772-40.699ZM42.97 71.43c15.668.015 28.397-12.67 28.411-28.324.03-15.697-12.67-28.456-28.353-28.456-15.682-.015-28.412 12.7-28.412 28.368-.014 15.668 12.685 28.397 28.354 28.412ZM11.797 45.617a11.395 11.395 0 0 0-1.078-5.08c-.222-.487-.487-1.019-1.004-1.152-.473-.118-.901-.398-1.388-.443-.4-.03-.768.133-1.093.37-.37.265-.68.59-.901.989-.96 1.727-1.447 3.53-1.004 5.523.28 1.284.812 2.422 1.772 3.322.871.827 2.51.916 3.337.222.606-.517 1.02-1.123 1.167-1.92.103-.62.148-1.255.192-1.831Zm63.13.221c0 .739.03 1.536.236 2.319.325 1.196 1.21 1.86 2.437 1.875.945.015 1.58-.502 2.111-1.196 1.787-2.363 1.935-5.951.355-8.476-.28-.458-.62-.842-1.123-1.078-.457-.207-.841.015-1.284.103-.798.163-1.27.606-1.551 1.285-.709 1.624-1.255 3.293-1.181 5.168ZM55.67 12.228c-.044-.03-.074-.059-.118-.088.03-.28.06-.562.089-.857.147-1.196.28-2.392.428-3.588.044-.325.148-.576.561-.414.192.074.37.089.458-.133.088-.221-.089-.325-.251-.413-.724-.34-1.433-.694-2.156-1.049-.148-.073-.325-.147-.443.03-.133.192-.044.34.133.458.295.177.354.458.325.782-.06.473-.104.96-.148 1.433-.207 1.875-.413 3.736-.605 5.611-.015.192-.104.4.177.547.28.133.354-.089.472-.207a229.67 229.67 0 0 0 2.717-2.643c.104-.104.192-.28.4-.28.058.206 0 .383-.016.575-.133 1.21-.265 2.422-.384 3.633-.014.177-.133.398.163.546.28.133.384-.074.517-.207.723-.708 1.432-1.417 2.156-2.126.93-.916 1.86-1.846 2.79-2.762.237-.236.518-.443.887-.31.162.06.325.118.398-.103.09-.207-.014-.34-.206-.443-.576-.28-1.167-.561-1.743-.842-.177-.088-.325-.059-.428.104-.103.177.015.265.148.369.487.413.487.458.03.93-.946.96-1.891 1.905-2.836 2.85-.06.06-.104.148-.251.118.177-1.476.28-2.953.531-4.415.074-.414.237-.606.68-.399.177.089.325.074.413-.118.074-.177-.015-.295-.177-.37-.812-.398-1.624-.797-2.437-1.18-.147-.074-.295-.06-.398.088-.118.163-.015.28.103.384.443.458.576 1.816.148 2.289-.694.783-1.418 1.477-2.127 2.2ZM38.703 4.8c-.517.015-1.02.045-1.536.074-.163.015-.31.06-.325.237-.015.206.133.28.31.31.089.014.177.014.266.03.34.014.532.176.546.53.074 1.906.163 3.825.251 5.73.015.444-.192.68-.635.694-.206 0-.428.045-.413.296.015.28.266.28.487.266.901-.045 1.802-.074 2.703-.119.206-.014.472 0 .457-.295 0-.28-.25-.236-.443-.266-.576-.059-.664-.147-.708-.723-.045-.71-.074-1.418-.118-2.127-.015-.236.073-.31.31-.325.87-.03 1.742-.059 2.613-.103.237-.015.355.044.355.31 0 .724.03 1.447.074 2.17.03.444-.163.68-.606.724-.221.015-.458.015-.428.325.03.266.266.237.458.237.9-.03 1.801-.074 2.702-.104.222-.014.458-.014.458-.31-.015-.25-.236-.25-.443-.266-.546-.044-.665-.147-.694-.679l-.222-5.508c-.014-.606.089-.709.68-.783.162-.014.383.03.369-.25-.015-.267-.192-.31-.414-.296-.915.03-1.83.059-2.746.103-.207.015-.473-.015-.488.28-.015.31.251.281.458.296.458.015.68.236.68.709 0 .665.044 1.33.073 1.979.015.207-.015.325-.28.325-.872.014-1.743.059-2.614.103-.266.015-.34-.074-.34-.325-.015-.635-.044-1.27-.059-1.89-.015-.68.015-.724.709-.842.177-.03.34-.059.325-.28-.015-.237-.192-.28-.384-.28-.458 0-.916.029-1.388.043Zm32.192 24.425c-.014-.295.118-.413.31-.502.71-.34 1.418-.664 2.112-1.019.207-.103.28-.044.37.148.368.812.738 1.61 1.136 2.407.104.221.06.31-.147.399-.606.266-1.197.56-1.802.841-.664.296-.694.296-1.122-.324-.118-.163-.237-.237-.414-.148-.177.088-.162.236-.088.384.413.9.841 1.801 1.27 2.688.073.162.192.28.398.192.192-.09.177-.237.133-.414-.221-.694-.192-.753.458-1.063l4.696-2.215c.738-.355.768-.34 1.21.369.06.088.09.25.252.162.118-.059.251-.133.236-.295a1.302 1.302 0 0 0-.103-.34c-.37-.782-.739-1.58-1.123-2.362-.088-.192-.162-.488-.472-.355-.266.118-.148.355-.074.547.163.413.03.679-.369.856-.606.266-1.21.546-1.787.857-.266.132-.354.044-.472-.192a46.146 46.146 0 0 0-1.078-2.29c-.148-.295-.06-.383.192-.501.546-.237 1.092-.517 1.639-.768.635-.296.694-.28 1.078.325.118.177.236.295.443.177.177-.104.147-.266.074-.443l-1.24-2.614c-.075-.162-.193-.34-.414-.236-.207.088-.163.28-.118.457.192.65.192.695-.414.975-1.595.768-3.205 1.521-4.814 2.274-.665.31-.68.296-1.108-.325-.103-.162-.221-.25-.413-.147-.177.088-.148.25-.089.398.074.178.163.355.251.532.325.694.65 1.388.99 2.082.088.177.162.384.428.28.266-.103.148-.31.103-.501-.059-.089-.088-.222-.118-.296Zm-55.008-.487c0-1.89-1.063-3.293-2.82-3.869-1.802-.59-3.264-.148-4.342 1.33-.236.31-.443.649-.605 1.003-.502 1.078-.975 2.171-1.462 3.249-.074.177-.177.384.059.517.28.148.37-.104.458-.28.177-.385.443-.503.842-.326 1.727.768 3.455 1.521 5.198 2.29.398.176.531.457.354.87-.089.178-.177.385.074.503.28.118.354-.118.443-.31.458-1.049.915-2.083 1.373-3.131.28-.665.414-1.314.428-1.846Zm2.083 41.85c0 2.156 1.727 3.87 3.913 3.884 2.245.015 4.282-2.038 4.297-4.312.015-2.245-1.698-3.972-3.913-3.972-2.29 0-4.297 2.052-4.297 4.4ZM20.613 21c0 .221-.015.443-.148.605a48.37 48.37 0 0 1-1.329 1.713c-.118.163-.266.148-.428.015-.635-.502-1.27-1.004-1.92-1.506-.162-.118-.162-.207-.044-.354.28-.325.532-.65.797-.99.473-.576.576-.59 1.256-.266.162.074.28.163.413-.059.118-.192.044-.31-.089-.428l-1.727-1.373c-.177-.148-.355-.237-.547 0-.192.236.03.325.148.428.325.31.384.635.103.99a86.2 86.2 0 0 1-.93 1.21c-.118.148-.207.177-.37.044a72.362 72.362 0 0 0-1.668-1.314c-.162-.133-.192-.236-.044-.398.369-.444.709-.901 1.063-1.344.517-.635.694-.68 1.462-.355.133.06.266.178.399 0 .118-.177.03-.31-.118-.428-.281-.221-.576-.428-.842-.68-.31-.295-.532-.265-.798.075-1.063 1.373-2.14 2.717-3.204 4.09-.118.163-.28.325-.089.502.192.177.37.044.488-.133.28-.398.576-.369.945-.088 1.432 1.152 2.88 2.274 4.326 3.41.355.282.4.577.119.931-.133.163-.251.34-.03.502.222.163.355-.03.473-.177 1.107-1.403 2.215-2.82 3.337-4.223.148-.192.192-.34.03-.561-.296-.414-.561-.857-.842-1.285-.104-.163-.207-.31-.428-.177-.207.118-.148.28-.089.472.163.384.325.753.325 1.152Zm50.71-3.544c-1.343 0-2.215.782-2.318 1.92-.03.384.015.753.074 1.122.133.812.369 1.61.428 2.436.03.473-.118.872-.561 1.093-.443.237-.856.118-1.226-.147a2.015 2.015 0 0 1-.502-2.762l.31-.443c.089-.118.074-.207-.015-.325-.103-.118-.236-.177-.354-.074-.65.547-1.285 1.093-1.92 1.64-.118.103-.088.25 0 .369.06.088.133.192.251.118.325-.222.414.015.517.25.104.222.192.444.28.666.4.856 1.02 1.506 1.935 1.786 1.699.502 3.116-.827 2.85-2.643-.147-.99-.487-1.934-.56-2.924-.03-.443.088-.812.516-1.004.428-.192.827-.089 1.181.192.62.502.828 1.462.458 2.17-.133.266-.325.517-.487.754-.074.118-.177.207-.044.354.133.133.295.177.443.06.62-.518 1.24-1.064 1.846-1.596.118-.103.147-.236.059-.369-.074-.103-.148-.221-.325-.133-.266.133-.37-.015-.458-.25a5.143 5.143 0 0 0-.325-.783c-.472-.916-1.196-1.462-2.053-1.477ZM45.747 74.029c.443-.118.546.251.605.62.31 1.846.59 3.677.886 5.523.074.428-.074.709-.517.783-.192.03-.369.103-.31.34.06.236.266.206.443.177 1.654-.266 3.308-.517 4.947-.783.163-.03.325-.059.37-.266.088-.59.177-1.196.25-1.787.015-.118 0-.25-.162-.28-.148-.03-.266.015-.325.162-.118.296-.25.576-.369.871-.148.325-.384.591-.753.665-.606.118-1.211.207-1.831.295-.237.045-.355-.044-.399-.295-.103-.635-.221-1.27-.325-1.92-.118-.753-.118-.753.665-.886l.531-.088c.739-.133.871-.045 1.123.62.059.148.059.34.31.295.25-.044.25-.221.221-.413l-.354-2.23c-.03-.192-.104-.355-.355-.325-.25.044-.177.236-.177.384 0 .576-.118.753-.68.871-.398.089-.797.118-1.195.207-.237.044-.34-.015-.37-.251-.103-.694-.206-1.403-.324-2.097-.045-.266.059-.354.295-.384.443-.059.886-.148 1.344-.207.974-.133.974-.133 1.418.753.058.119.073.281.265.237.192-.045.222-.192.192-.355-.059-.398-.147-.797-.192-1.196-.03-.369-.206-.428-.546-.384-1.61.266-3.205.517-4.814.768-.192.03-.428.044-.414.31.03.34.266.28.547.266ZM23.744 16.688c-.015-.177.103-.251.221-.325.325-.207.65-.428.99-.65.369-.236.753-.679 1.092-.65.414.045.812.473 1.196.754.458.34.458.428.06.827-.104.118-.222.206-.09.369.119.147.267.192.43.088.132-.088.28-.177.413-.265.635-.414 1.255-.827 1.89-1.24.147-.104.25-.222.118-.414-.074-.118-.148-.237-.31-.133-.458.295-.857.103-1.255-.163a776.224 776.224 0 0 0-4.401-2.997c-.576-.384-1.137-.783-1.713-1.182-.133-.088-.251-.133-.414-.014-.147.103-.147.206-.118.354l.133.753c.414 2.245.827 4.504 1.226 6.749.059.325.03.635-.222.886-.118.133-.295.25-.103.457.177.192.354.119.517 0l1.55-1.018c.192-.119.414-.237.237-.532-.177-.31-.355-.06-.532 0-.266.103-.517.192-.605-.177a122.76 122.76 0 0 1-.31-1.477Zm38.01 59.26c-.073-.56-.147-1.092-.221-1.638-.015-.148-.089-.266-.251-.252-.133.015-.251.09-.266.252-.015.147-.015.295-.03.457-.044.591-.25 1.078-.812 1.359-.472.236-.945.458-1.417.709-.281.147-.443.059-.562-.207-.31-.635-.605-1.27-.93-1.905-.103-.192-.074-.295.133-.384.384-.177.768-.354 1.137-.546.414-.207.738-.163 1.004.25.089.134.178.355.414.193.221-.133.147-.296.059-.473-.296-.59-.59-1.181-.871-1.787-.09-.177-.192-.31-.414-.236-.28.104-.148.295-.089.443.163.414.015.709-.354.9-.399.208-.812.4-1.21.621-.193.104-.282.074-.385-.118-.28-.59-.561-1.167-.856-1.742-.104-.192-.074-.296.118-.384a35.23 35.23 0 0 0 1.3-.635c.856-.414.87-.414 1.55.25.088.09.162.222.34.104.132-.103.147-.207.073-.355-.177-.354-.354-.723-.546-1.092-.103-.207-.251-.28-.473-.163-1.52.753-3.056 1.492-4.577 2.245-.148.074-.31.177-.222.384.089.192.266.192.414.103.457-.28.723-.074.915.34a180.69 180.69 0 0 0 2.215 4.49c.222.427.133.708-.266.93-.162.088-.31.177-.206.383.118.222.295.148.457.06 1.522-.754 3.043-1.507 4.578-2.26.163-.044.296-.118.251-.295Zm-47.077-8.874c.147-.015.295-.015.457-.03.148-.015.296-.03.296-.25-.015-.193-.074-.311-.28-.311-.252 0-.518-.03-.769-.06-1.654-.147-2.79-2.022-2.141-3.543.561-1.315 2.599-2.629 4.017-2.614 1.358.03 2.48 1.388 2.244 2.717-.088.502-.34.93-.635 1.344-.088.133-.25.251-.059.428.177.163.325.089.473-.03.59-.472 1.166-.944 1.757-1.417.089-.074.266-.133.162-.31-.088-.148-.177-.28-.384-.222-.398.133-.487-.088-.546-.428-.162-1.107-.753-1.95-1.654-2.584-2.008-1.403-4.917-.65-6.232 1.61-.723 1.255-.708 2.525.015 3.78.709 1.24 1.787 1.92 3.279 1.92Zm18.887 6.984c-.015.133-.03.266.147.325.163.045.266-.044.325-.177.192-.384.355-.768.561-1.137.163-.31.09-.487-.221-.635-1.521-.723-3.027-1.462-4.548-2.185-.178-.089-.414-.251-.561.014-.148.251.073.37.265.473.31.177.488.399.31.768-.841 1.728-1.668 3.47-2.51 5.198-.177.37-.443.517-.842.31-.192-.103-.413-.177-.531.103-.104.266.133.34.31.414.782.384 1.565.753 2.363 1.137.191.088.428.266.59-.015.148-.266-.118-.354-.28-.472-.37-.222-.488-.488-.266-.901.221-.399.384-.812.576-1.226.531-1.122.531-1.122 1.654-.517.487.251.56.428.398.945-.059.178-.221.37.074.488.28.103.37-.104.473-.296.295-.605.59-1.225.886-1.83.088-.193.192-.385-.06-.547-.28-.177-.339.088-.442.221-.266.384-.591.488-1.005.251-.28-.147-.56-.28-.856-.413-.207-.089-.221-.192-.118-.384.325-.635.62-1.27.916-1.905.103-.221.206-.236.413-.133.354.192.724.37 1.093.532.694.325 1.137.768.886 1.594Zm3.913-.738c-.207.06-.561-.192-.635.192-.074.414.325.31.532.37.31.103.487.265.457.62-.162 1.846-.324 3.691-.502 5.523-.059.65-.118.664-.753.679-.206 0-.384.044-.384.28-.014.207.163.266.34.28.93.075 1.86.163 2.791.237.192.015.428.044.458-.221.044-.28-.192-.28-.384-.325-.547-.118-.65-.251-.62-.798.03-.502.088-.989.133-1.476.103-.975.103-.975 1.092-.872.842.089.857.089.96.916.03.207.118.251.295.266.163.015.252-.06.266-.237.06-.782.133-1.565.192-2.333.015-.192-.059-.31-.266-.354-.206-.044-.236.103-.295.25-.251.695-.34.754-1.093.68-.236-.015-.472-.044-.723-.059-.207-.015-.28-.103-.251-.325.073-.679.118-1.344.162-2.023.015-.266.089-.384.384-.325.325.06.665.089.99.089.841 0 1.476.25 1.61 1.21.014.178.147.208.294.208.163 0 .178-.119.192-.252.03-.428.06-.87.104-1.299.03-.325-.104-.443-.428-.473-1.64-.133-3.264-.28-4.918-.428Zm-3.13-59.999c-.296-.015-.429-.207-.517-.413-.665-1.832-1.33-3.677-1.994-5.509-.044-.118-.074-.206.074-.295.856-.561 1.595-.458 2.215.34.074.103.133.25.31.162.162-.088.192-.236.133-.384-.162-.472-.34-.93-.502-1.403-.089-.221-.222-.295-.458-.206-1.89.679-3.795 1.358-5.685 2.037-.222.074-.296.222-.222.458.163.443.31.872.473 1.315.059.191.162.324.384.28.265-.059.192-.25.177-.428-.06-.827.044-1.004.827-1.33.147-.058.31-.103.458-.176.25-.133.384-.074.487.206.605 1.743 1.24 3.485 1.846 5.228.236.664.221.694-.399 1.004-.162.089-.31.162-.236.37.074.22.266.22.443.147.472-.162.93-.34 1.403-.502.443-.163.886-.31 1.314-.473.163-.059.295-.177.236-.384-.059-.206-.236-.192-.413-.147-.118.03-.251.073-.355.103Zm37.744 54.24c.015-.354-.073-.753-.177-1.152-.044-.162-.088-.295-.295-.236-.207.044-.251.162-.222.354.045.251.074.502.089.768.133 1.684-1.64 3.013-3.205 2.363-1.196-.502-2.067-1.388-2.57-2.6-.324-.782-.191-1.535.385-2.185.59-.664 1.329-.915 2.2-.664.222.059.428.147.635.221.133.045.266.163.399-.03.118-.191.015-.31-.133-.413-.532-.443-1.078-.87-1.61-1.314-.088-.074-.177-.207-.31-.089-.118.104-.236.207-.147.384.206.355 0 .473-.296.591-.62.236-1.137.62-1.535 1.152-1.566 2.097-.562 5.139 2.023 6.099 2.259.827 4.784-.871 4.77-3.249Zm-3.086-53.206c-.015-.148-.118-.237-.221-.325l-2.157-1.846c-.147-.133-.31-.295-.502-.103-.221.206-.044.369.104.531.428.502.443.517.015 1.02a510.674 510.674 0 0 1-3.663 4.282c-.398.472-.517.457-1.019.118-.177-.118-.34-.236-.502-.03-.162.207 0 .355.163.488.723.62 1.432 1.24 2.156 1.846.147.132.31.295.502.088.207-.221.03-.37-.118-.532-.414-.472-.429-.531-.015-1.018 1.152-1.36 2.304-2.703 3.455-4.047.576-.664.576-.664 1.344-.25.207.117.458 0 .458-.222Zm5.892 47.358c-.015-1.462-1.373-2.746-2.88-2.732-1.388.015-2.406 1.108-2.421 2.614-.015 1.255 1.432 2.555 2.85 2.555a2.433 2.433 0 0 0 2.451-2.437Zm-.753 4.194c.162-.059.207-.192.28-.295.857-1.33 1.714-2.644 2.555-3.973.074-.118.266-.25.045-.413-.251-.163-.281.088-.355.207a238.585 238.585 0 0 0-2.067 3.219c-.192.295-.399.605-.576.915-.044.074-.118.148-.044.237.044.044.118.073.162.103Zm4.519-7.841c-.015-.62-.473-1.108-1.063-1.108-.665 0-1.211.606-1.197 1.314.015.62.473 1.123 1.064 1.108.635 0 1.21-.62 1.196-1.314Z" fill="#242021"/><path d="M42.97 71.43c-15.668-.015-28.367-12.744-28.367-28.412.014-15.668 12.744-28.383 28.426-28.368 15.683.015 28.398 12.759 28.368 28.471-.03 15.639-12.759 28.324-28.427 28.309Zm27.512-28.412c-.03-15.166-12.33-27.467-27.497-27.467-15.166 0-27.511 12.36-27.496 27.511.03 15.166 12.33 27.467 27.496 27.467 15.18 0 27.526-12.36 27.497-27.511ZM11.797 45.617c-.044.576-.089 1.21-.192 1.831-.148.797-.561 1.418-1.167 1.92-.827.694-2.466.605-3.337-.222-.96-.9-1.492-2.038-1.772-3.322-.443-1.994.044-3.795 1.004-5.523.222-.399.546-.724.9-.99.326-.236.695-.413 1.094-.369.487.044.915.325 1.388.443.531.133.782.665 1.004 1.152a11.395 11.395 0 0 1 1.078 5.08Zm-2.274-5.538c-.045.458-.207.901-.045 1.344.148.443.133.886.06 1.33-.222 1.431-.31 2.879.029 4.311.089.414.162.827.044 1.255-.03.104-.103.251.045.31.162.06.236-.088.31-.206.25-.399.162-.813.03-1.226-.193-.576-.193-1.152-.104-1.742.133-.975.251-1.935.207-2.924-.045-.827-.192-1.67-.576-2.452ZM74.927 45.838c-.074-1.875.472-3.544 1.181-5.168.295-.665.753-1.122 1.55-1.285.444-.088.828-.295 1.285-.103.502.221.842.62 1.123 1.078 1.58 2.525 1.432 6.113-.355 8.476-.531.694-1.166 1.211-2.111 1.196-1.226-.014-2.112-.694-2.437-1.875-.207-.783-.236-1.58-.236-2.319Zm2.23-5.537c-.03.074-.074.162-.104.236-.458 1.226-.531 2.496-.443 3.78.074 1.197.28 2.393-.148 3.574-.133.37-.03.768.37 1.019.133-.118.103-.251.073-.384-.073-.34-.044-.694.03-1.034.354-1.476.399-2.968.177-4.474-.044-.355-.118-.724.015-1.078.207-.546.133-1.093.03-1.64ZM55.67 12.228c.71-.723 1.433-1.417 2.097-2.156.428-.472.295-1.846-.148-2.289-.103-.118-.221-.221-.103-.384.104-.147.251-.162.399-.088.812.399 1.624.782 2.436 1.181.148.074.252.192.178.37-.089.191-.251.206-.414.118-.428-.207-.605 0-.68.398-.25 1.462-.354 2.954-.53 4.416.147.03.191-.06.25-.119.945-.945 1.905-1.89 2.836-2.85.472-.472.457-.531-.03-.93-.118-.103-.236-.207-.148-.37.104-.176.237-.191.429-.102.576.28 1.166.56 1.742.841.177.089.28.222.207.443-.089.222-.236.163-.399.104-.369-.133-.635.073-.886.31-.93.915-1.86 1.846-2.79 2.761-.724.709-1.433 1.433-2.157 2.127-.133.133-.236.354-.517.206-.28-.133-.177-.354-.162-.546.118-1.21.25-2.422.384-3.633.015-.192.074-.369.015-.576-.207 0-.281.178-.4.281-.915.886-1.816 1.772-2.716 2.643-.119.118-.207.34-.473.207-.28-.133-.192-.354-.177-.546.192-1.876.399-3.736.605-5.612.045-.472.104-.96.148-1.432.03-.325-.015-.606-.325-.783-.177-.103-.266-.266-.133-.458.118-.177.296-.103.443-.03.724.355 1.433.695 2.156 1.05.177.088.34.191.251.413-.088.221-.266.206-.457.133-.4-.163-.517.088-.562.413-.147 1.196-.28 2.392-.428 3.589-.03.28-.059.56-.088.856a.151.151 0 0 1 .147.044ZM38.703 4.8c.472-.03.93-.044 1.403-.073.192-.015.369.03.384.28.014.222-.148.251-.325.28-.694.119-.724.163-.71.842.016.635.045 1.27.06 1.89 0 .252.074.34.34.326.87-.06 1.742-.09 2.613-.104.266 0 .296-.118.28-.325-.029-.664-.073-1.329-.073-1.979 0-.472-.221-.679-.68-.708-.206-.015-.472.03-.457-.296.015-.295.28-.266.487-.28.916-.045 1.831-.074 2.747-.104.222-.014.399.03.413.296.015.295-.206.236-.369.25-.576.075-.694.178-.679.783.06 1.832.133 3.677.222 5.509.03.531.147.634.694.679.206.015.443.015.443.266.014.295-.237.295-.458.31-.9.03-1.802.074-2.702.103-.192.015-.429.03-.458-.236-.03-.31.206-.31.428-.325.443-.03.635-.266.605-.724a35.528 35.528 0 0 1-.073-2.17c0-.266-.119-.325-.355-.31-.871.044-1.742.088-2.614.103-.236 0-.325.074-.31.325.044.709.06 1.417.118 2.126.045.576.133.665.71.724.191.015.427-.015.442.266 0 .295-.25.28-.458.295-.9.044-1.801.074-2.702.118-.221.015-.472.015-.487-.266-.015-.25.206-.295.413-.295.443-.015.65-.251.635-.694-.088-1.905-.162-3.825-.25-5.73-.016-.354-.208-.517-.547-.531-.089 0-.177-.015-.266-.03-.177-.03-.325-.089-.31-.31.015-.192.162-.236.325-.236.502 0 1.004-.015 1.52-.045ZM70.895 29.225c.015.074.06.207.089.34.059.192.162.399-.104.502-.25.103-.34-.103-.428-.28-.325-.695-.65-1.389-.99-2.083a8.61 8.61 0 0 1-.25-.531c-.06-.148-.074-.31.088-.399.178-.089.296 0 .414.148.428.62.443.635 1.107.325a706.1 706.1 0 0 0 4.814-2.275c.591-.28.606-.34.414-.974-.06-.192-.103-.37.118-.458.222-.103.325.074.414.236l1.24 2.614c.074.162.103.34-.074.443-.192.118-.325 0-.443-.177-.384-.606-.443-.62-1.078-.325-.546.251-1.078.517-1.639.768-.251.118-.34.207-.192.502.384.753.738 1.521 1.078 2.289.103.236.207.325.473.192.59-.31 1.181-.59 1.786-.857.414-.177.532-.457.37-.856-.074-.192-.207-.428.073-.546.296-.133.37.162.473.354.37.782.753 1.58 1.122 2.363.045.103.089.221.104.34.014.162-.118.22-.237.295-.177.088-.192-.06-.25-.163-.444-.709-.458-.723-1.212-.369l-4.695 2.215c-.665.31-.68.37-.458 1.063.059.178.059.34-.133.414-.192.088-.31-.03-.399-.192-.428-.901-.842-1.787-1.27-2.688-.074-.147-.074-.31.089-.384.177-.088.295-.015.413.148.428.62.458.62 1.123.325.605-.266 1.196-.576 1.801-.842.207-.089.266-.177.148-.399a119.89 119.89 0 0 1-1.137-2.407c-.089-.192-.177-.25-.37-.147-.694.34-1.402.679-2.111 1.019-.163.044-.296.162-.28.457ZM15.887 28.738a5.165 5.165 0 0 1-.413 1.816 665.461 665.461 0 0 1-1.373 3.131c-.089.192-.178.428-.444.31-.265-.103-.162-.31-.073-.502.192-.413.059-.694-.355-.871-1.727-.768-3.47-1.521-5.198-2.29-.398-.176-.664-.058-.841.326-.09.177-.178.428-.458.28-.237-.133-.133-.34-.06-.516.488-1.079.96-2.171 1.463-3.25a5.34 5.34 0 0 1 .605-1.003c1.078-1.477 2.54-1.92 4.342-1.33 1.742.606 2.805 2.009 2.805 3.899Zm-.96.59c0-.752-.324-1.461-.945-2.022-.531-.503-1.181-.827-1.89-1.005-1.772-.428-3.263.488-3.677 2.275-.059.221-.03.354.207.457 1.742.753 3.47 1.507 5.198 2.29.236.103.354.058.487-.134.37-.546.591-1.122.62-1.86ZM17.97 70.588c0-2.333 2.023-4.4 4.297-4.415 2.215 0 3.928 1.728 3.913 3.972-.015 2.274-2.052 4.327-4.297 4.312-2.186 0-3.913-1.713-3.913-3.869Zm3.307 2.924c.281.015.591-.059.872-.221 1.491-.872 2.48-2.142 2.835-3.84.162-.782-.222-1.447-.857-1.92-.59-.457-1.27-.576-1.949-.236-1.624.798-2.614 2.127-2.968 3.87-.251 1.24.768 2.362 2.067 2.347Z" fill="#FEFEFE"/><path d="M20.613 21c0-.399-.162-.768-.295-1.122-.06-.177-.133-.34.088-.473.222-.118.325.015.428.177.281.429.547.872.842 1.285.163.222.118.37-.03.561a466.392 466.392 0 0 0-3.337 4.224c-.118.147-.25.34-.472.177-.222-.163-.104-.34.03-.502.28-.355.235-.65-.119-.93a1104.358 1104.358 0 0 1-4.327-3.412c-.354-.28-.664-.31-.945.089-.118.162-.295.31-.487.133-.207-.178-.044-.355.088-.502 1.079-1.359 2.156-2.717 3.205-4.09.266-.34.487-.37.797-.075.266.251.561.458.842.68.148.118.222.25.118.428-.118.192-.266.059-.399 0-.767-.325-.945-.28-1.461.354-.355.443-.71.901-1.064 1.344-.133.163-.118.266.045.399.56.428 1.122.871 1.668 1.314.163.133.251.103.37-.044.31-.414.62-.812.93-1.211.28-.37.221-.694-.104-.99-.118-.103-.34-.192-.147-.428.192-.221.369-.133.546 0l1.728 1.374c.148.118.207.236.089.428-.133.207-.252.133-.414.059-.68-.325-.783-.31-1.255.266-.266.325-.517.664-.798.99-.133.147-.118.235.045.354.65.487 1.284.989 1.92 1.506.162.133.31.133.428-.015.443-.561.886-1.137 1.329-1.713.103-.207.118-.428.118-.635ZM71.323 17.456c.857.03 1.58.576 2.053 1.477.133.25.236.516.325.782.074.236.192.384.458.251.177-.088.25.03.325.133.088.133.059.266-.06.37-.62.531-1.225 1.063-1.845 1.594-.148.118-.31.089-.443-.059s-.03-.236.044-.354c.162-.251.354-.488.487-.753.37-.71.177-1.67-.457-2.171-.355-.28-.754-.384-1.182-.192-.428.192-.546.576-.517 1.004.074.99.414 1.935.561 2.924.266 1.816-1.151 3.145-2.85 2.643-.915-.28-1.535-.915-1.934-1.787-.103-.221-.192-.443-.28-.664-.104-.222-.193-.458-.518-.251-.118.074-.191-.03-.25-.118-.09-.118-.119-.266 0-.37a66.267 66.267 0 0 1 1.92-1.639c.117-.103.25-.044.353.074.09.104.104.207.015.325l-.31.443a2.004 2.004 0 0 0 .502 2.762c.384.265.783.384 1.226.147.443-.236.59-.62.561-1.093-.059-.826-.295-1.624-.428-2.436-.06-.37-.103-.738-.074-1.122.103-1.138.975-1.935 2.319-1.92ZM45.747 74.029c-.266.015-.517.074-.532-.221-.015-.266.207-.281.414-.31 1.61-.252 3.219-.503 4.814-.769.34-.059.517 0 .546.384.03.4.118.798.192 1.197.03.162 0 .31-.192.354-.192.044-.221-.118-.266-.236-.443-.886-.443-.886-1.417-.753-.443.059-.886.147-1.344.206-.237.03-.34.118-.296.384.119.694.222 1.403.325 2.097.03.237.133.296.37.251.398-.088.797-.118 1.196-.207.56-.118.694-.295.679-.87 0-.163-.074-.355.177-.385.251-.03.325.133.355.325l.354 2.23c.03.192.015.37-.222.413-.25.045-.25-.147-.31-.295-.25-.68-.384-.753-1.122-.62l-.532.089c-.782.132-.782.132-.664.886.103.635.221 1.27.325 1.92.044.25.162.339.398.295.606-.104 1.226-.178 1.832-.296.369-.073.605-.34.753-.664.133-.28.25-.576.369-.871.059-.163.177-.192.325-.163.162.03.177.162.162.28-.074.591-.162 1.197-.25 1.787-.03.222-.193.237-.37.266-1.654.266-3.308.517-4.947.783-.192.03-.384.059-.443-.177-.06-.236.118-.31.31-.34.443-.088.59-.354.517-.782-.295-1.846-.59-3.678-.886-5.523-.074-.4-.177-.783-.62-.665ZM23.744 16.688c.103.502.206 1.004.34 1.492.088.369.339.28.605.177.162-.06.34-.325.531 0 .163.295-.059.413-.236.531l-1.55 1.02c-.178.117-.355.191-.517 0-.192-.207-.015-.326.103-.459.251-.25.28-.56.221-.886a1076.93 1076.93 0 0 1-1.225-6.748l-.133-.753c-.03-.148-.015-.251.118-.355.148-.103.28-.074.413.015.576.399 1.138.783 1.713 1.181 1.463 1.005 2.94 1.994 4.401 2.998.399.266.798.443 1.255.163.178-.104.237.014.31.133.119.192.03.31-.118.413-.62.413-1.255.827-1.89 1.24-.133.089-.28.178-.413.266-.178.104-.31.06-.429-.088-.133-.163-.03-.266.089-.37.399-.413.399-.502-.06-.827-.383-.28-.767-.708-1.195-.753-.34-.03-.724.414-1.093.65-.325.207-.65.428-.99.65-.147.059-.265.133-.25.31Zm-.68-3.75c.177.915.31 1.712.473 2.51.03.132.074.236.236.118.502-.34 1.019-.68 1.58-1.049a146.724 146.724 0 0 0-2.289-1.58ZM61.754 75.949c.045.177-.088.236-.221.31-1.521.753-3.042 1.506-4.578 2.26-.163.088-.354.162-.458-.06-.103-.192.044-.295.207-.384.399-.221.487-.487.266-.93-.753-1.492-1.477-2.998-2.215-4.49-.207-.413-.458-.62-.916-.339-.162.089-.34.103-.413-.103-.089-.207.059-.31.221-.384 1.521-.753 3.057-1.492 4.578-2.245.221-.118.37-.044.472.162.178.37.355.724.547 1.093.074.148.059.251-.074.355-.162.133-.236-.015-.34-.104-.679-.664-.694-.664-1.55-.25-.428.206-.857.427-1.3.634-.192.089-.221.192-.118.384.295.576.59 1.152.857 1.743.088.207.192.221.384.118.398-.207.812-.414 1.21-.62.37-.192.517-.488.355-.901-.06-.148-.207-.34.089-.443.221-.074.324.059.413.236.28.59.576 1.196.871 1.787.089.177.148.34-.059.472-.25.163-.34-.059-.413-.192-.251-.413-.59-.457-1.004-.25-.37.191-.753.369-1.137.546-.192.088-.222.177-.133.384.325.635.635 1.27.93 1.905.133.266.28.354.561.207.458-.251.945-.473 1.418-.71.56-.28.768-.782.812-1.358.015-.147.015-.295.03-.458a.26.26 0 0 1 .265-.25c.163-.016.237.103.251.25.045.532.119 1.064.192 1.625ZM14.677 67.074c-1.477 0-2.555-.694-3.279-1.95-.709-1.255-.738-2.51-.015-3.78 1.315-2.26 4.21-3.013 6.232-1.61.901.635 1.492 1.477 1.654 2.585.06.34.148.56.547.428.206-.074.295.074.383.221.104.178-.059.237-.162.31-.576.473-1.167.946-1.757 1.418-.148.118-.296.192-.473.03-.192-.178-.03-.296.06-.429.28-.413.53-.841.634-1.343.236-1.33-.886-2.688-2.244-2.718-1.433-.03-3.456 1.3-4.017 2.614-.65 1.521.487 3.397 2.141 3.544.251.03.517.045.768.06.222 0 .28.118.28.31.015.221-.147.236-.295.25-.162.06-.31.06-.457.06ZM33.564 74.058c.236-.841-.192-1.284-.901-1.58-.37-.162-.738-.34-1.093-.531-.207-.118-.31-.089-.413.133-.296.65-.606 1.285-.916 1.905-.103.192-.088.295.118.384.296.118.576.266.857.413.428.236.738.133 1.004-.25.089-.134.162-.4.443-.222.251.162.162.354.059.546-.295.605-.576 1.226-.886 1.831-.089.192-.177.399-.473.296-.295-.119-.133-.31-.073-.488.162-.517.088-.68-.4-.945-1.107-.59-1.107-.59-1.653.517-.192.413-.354.827-.576 1.226-.236.413-.103.679.266.9.177.104.443.192.28.473-.162.28-.384.103-.59.015-.783-.37-1.58-.753-2.363-1.137-.163-.089-.414-.148-.31-.414.103-.28.325-.207.532-.103.398.207.664.074.841-.31.842-1.728 1.669-3.47 2.51-5.198.178-.384 0-.606-.31-.768-.191-.104-.413-.222-.265-.473.147-.266.369-.103.56-.015 1.522.724 3.028 1.462 4.55 2.186.31.148.398.325.22.635-.206.37-.368.753-.56 1.137-.06.133-.163.221-.325.177-.163-.059-.133-.207-.133-.34ZM37.477 73.32c1.654.148 3.278.296 4.918.428.324.03.457.148.428.473-.044.428-.074.871-.104 1.3-.014.118-.03.25-.192.25-.147 0-.265-.029-.295-.206-.118-.96-.753-1.211-1.61-1.211-.324 0-.664-.03-.989-.089-.295-.059-.37.06-.384.325-.044.68-.103 1.344-.162 2.023-.03.222.044.31.25.325.237.015.473.044.724.06.753.058.842.014 1.093-.68.06-.148.089-.295.295-.251.207.044.281.148.266.354-.059.783-.133 1.566-.192 2.333-.015.163-.103.237-.266.237-.162-.015-.265-.06-.295-.266-.118-.827-.118-.827-.96-.916-.99-.103-.99-.103-1.093.872-.044.487-.103.99-.132 1.476-.045.547.073.695.62.798.192.044.428.044.384.325-.03.266-.266.236-.458.221-.93-.074-1.86-.162-2.791-.236-.177-.015-.354-.074-.34-.28.015-.222.178-.266.384-.281.635-.015.694-.03.753-.68.178-1.845.325-3.691.502-5.522.03-.355-.132-.517-.457-.62-.207-.075-.606.044-.532-.37.074-.369.428-.133.635-.192ZM34.346 13.321c.104-.03.237-.059.37-.103.177-.045.354-.06.413.147.06.192-.074.31-.236.384-.443.163-.871.31-1.315.473-.472.162-.93.34-1.402.502-.192.059-.37.074-.443-.148-.074-.207.073-.28.236-.369.62-.31.635-.34.399-1.004-.606-1.743-1.24-3.485-1.846-5.228-.104-.28-.222-.34-.488-.206-.147.073-.31.118-.457.177-.783.325-.887.502-.827 1.329.014.177.088.369-.178.428-.236.044-.325-.103-.383-.28-.148-.444-.31-.887-.473-1.315-.089-.236-.015-.369.221-.458 1.89-.679 3.796-1.358 5.686-2.037.236-.089.369-.015.458.206.162.473.34.93.502 1.403.059.163.03.31-.133.384-.178.089-.236-.059-.31-.162-.62-.798-1.359-.901-2.215-.34-.148.089-.119.192-.074.295.664 1.832 1.329 3.677 1.993 5.509.074.206.207.398.502.413ZM72.091 67.561c0 2.377-2.525 4.076-4.755 3.249-2.584-.96-3.588-4.002-2.023-6.1a3.396 3.396 0 0 1 1.536-1.15c.295-.104.502-.237.295-.592-.103-.177.03-.28.148-.384.133-.118.221.015.31.089.546.428 1.078.871 1.61 1.314.133.104.25.222.133.414-.118.192-.251.088-.399.03-.207-.075-.428-.163-.635-.222-.871-.251-1.61 0-2.2.664-.576.65-.71 1.403-.384 2.186.502 1.196 1.373 2.097 2.57 2.599 1.565.65 3.322-.68 3.204-2.363a6.8 6.8 0 0 0-.089-.768c-.03-.192.015-.31.222-.354.221-.06.25.074.295.236.088.399.177.798.162 1.152ZM69.005 14.355c0 .221-.251.34-.472.221-.768-.413-.768-.413-1.344.251-1.152 1.344-2.319 2.688-3.456 4.046-.413.488-.399.562.015 1.02.148.162.325.324.118.531-.192.192-.354.03-.502-.088l-2.156-1.846c-.148-.133-.325-.281-.163-.488.163-.221.34-.088.503.03.502.354.62.354 1.018-.118a508.808 508.808 0 0 0 3.663-4.283c.428-.502.413-.517-.015-1.019-.133-.162-.325-.325-.103-.531.192-.178.354-.015.502.103.723.62 1.432 1.24 2.156 1.846.118.088.221.177.236.325ZM74.897 61.713a2.399 2.399 0 0 1-2.437 2.422c-1.432 0-2.864-1.3-2.85-2.555.015-1.491 1.034-2.599 2.422-2.613 1.492 0 2.85 1.284 2.865 2.746Zm-2.126 1.58c.767.045 1.151-.192 1.388-.65.266-.516.192-1.004-.148-1.432-.59-.753-1.358-1.21-2.289-1.418-.531-.118-.945.074-1.27.473-.325.413-.384.9-.118 1.344.62 1.019 1.536 1.55 2.437 1.683ZM74.144 65.907c-.06-.03-.118-.074-.177-.118-.074-.089 0-.177.044-.236.192-.31.384-.606.576-.916.694-1.078 1.373-2.141 2.067-3.22.074-.102.104-.368.355-.206.221.163.03.295-.044.414a363.522 363.522 0 0 1-2.555 3.972c-.06.118-.104.266-.266.31ZM78.663 58.066c.014.694-.561 1.314-1.211 1.329-.59 0-1.049-.488-1.063-1.108-.015-.709.546-1.314 1.196-1.314.605-.015 1.063.472 1.078 1.093Zm-.207.014c0-.502-.384-.915-.842-.93-.531-.015-1.019.517-1.004 1.108.015.517.384.9.871.9.517 0 .975-.487.975-1.078Z" fill="#FEFEFE"/><path d="M70.482 43.018c.03 15.151-12.33 27.511-27.497 27.511-15.15 0-27.467-12.3-27.496-27.467-.03-15.151 12.33-27.511 27.496-27.511 15.166 0 27.482 12.301 27.497 27.467ZM43.827 17.81c-1.418-.03-2.525.074-3.633.207-2.303.28-4.135 1.344-5.597 3.116-2.185 2.658-3.012 5.7-2.717 9.097.133 1.55.517 3.056.872 4.563.162.708.133 1.122-.576 1.506-.783.413-.842 1.226-.266 1.905.605.709 1.255 1.388 1.89 2.067.37.399.665.384 1.034-.015.325-.354.694-.62 1.166-.723 1.064-.236 1.743.192 1.95 1.255.059.31.059.635.073.945.03 1.02.06 2.053.074 3.072.015.635.31 1.122.753 1.535.074.06.148.178.266.119.089-.045.06-.163.074-.251.044-.325.074-.665.118-.99.03-.221.118-.472.355-.458.28.015.236.296.236.503-.015.413-.03.812-.06 1.21-.029.34.237.325.459.37.265.059.25-.148.265-.31.045-.444.074-.901.118-1.344.015-.178.06-.414.266-.414.222.015.28.236.266.458-.03.473-.044.93-.074 1.403-.014.236.015.399.296.354.236-.044.605.177.635-.325.03-.487.088-.96.147-1.432.03-.192.133-.413.31-.399.207.015.207.266.207.443-.015.458-.015.901-.059 1.359-.044.399.236.354.458.354.221 0 .502.045.472-.354a8.298 8.298 0 0 1 .015-1.211c.015-.192.06-.487.31-.473.222.015.28.281.28.503v.354c0 .28-.014.576 0 .856.016.502.43.296.68.34.251.06.325-.074.325-.325-.015-.443.015-.871.03-1.314.014-.192.044-.428.25-.428.222-.015.296.25.31.428.03.399.016.812.016 1.226 0 .236 0 .472.31.487.354.015.31-.266.325-.473.014-.472 0-.93.014-1.403.015-.221.118-.472.34-.457.177 0 .207.265.207.457 0 .488.014.96 0 1.448 0 .265.073.31.31.221.56-.192.886-.694.827-1.3-.03-.265-.074-.531-.045-.812.192-1.358.384-2.717.576-4.06.133-.901.62-1.182 1.492-.887.517.178.974.473 1.403.813.28.221.59.295.856.03 1.034-1.005 1.86-2.142 2.053-3.619.074-.517-.133-.871-.635-1.004-.458-.118-.517-.384-.473-.753.03-.222.045-.458.074-.68.207-1.255.428-2.525.62-3.78.237-1.55.458-3.1.089-4.666-.635-2.673-2.097-4.83-4.164-6.601-.99-.842-2.156-1.344-3.441-1.566-1.034-.162-2.038-.147-2.732-.177ZM56.01 64.667c1.181 0 1.698-.325 1.683-1.152 0-.665.28-1.063.798-1.403.62-.414.753-.975.428-1.654-.266-.561-.709-.886-1.344-.916l-3.204-.133a2.882 2.882 0 0 1-1.256-.324c-2.348-1.197-4.68-2.407-7.029-3.604-.118-.059-.295-.073-.31-.236 0-.177.192-.207.325-.266 2.54-1.181 5.08-2.362 7.605-3.544.547-.25 1.078-.266 1.595.06.428.25.842.191 1.226-.075.517-.369.812-.9.65-1.52-.148-.576.029-.96.443-1.315a2.74 2.74 0 0 0 .398-.428c.207-.28.222-.576.015-.886-.694-1.063-2.2-1.093-2.806.015-.458.827-1.122 1.343-1.949 1.727-3.19 1.477-6.38 2.983-9.554 4.475-.517.25-.99.236-1.507-.044-2.732-1.462-5.463-2.924-8.21-4.357-.68-.354-1.152-.827-1.285-1.624-.089-.576-.561-.798-1.093-.871-.502-.074-.96.014-1.255.516-.37.62-.384.606-1.122.443a1.687 1.687 0 0 0-.768.015.612.612 0 0 0-.517.547c-.236 1.462.694 2.45 2.127 2.215.605-.089 1.136 0 1.653.265 2.644 1.374 5.287 2.732 7.93 4.106.133.074.34.133.34.28 0 .192-.236.192-.37.251-2.775 1.108-5.566 2.2-8.328 3.338-.694.28-1.344.399-2.038.059-.605-.28-1.137-.104-1.595.354a3.127 3.127 0 0 0-.56.753c-.37.694-.31 1.123.25 1.654.428.399.591.827.488 1.418-.119.753.103 1.196.664 1.477.606.31 1.24.221 1.743-.266.65-.62 1.225-1.285 1.713-2.038a3.88 3.88 0 0 1 1.757-1.506l8.639-3.899c.443-.192.812-.192 1.24.06a748.337 748.337 0 0 0 9.48 5.434c.636.354 1.123.768 1.36 1.476.265.842.87 1.167 1.55 1.123ZM9.523 40.08c.384.782.531 1.624.576 2.465.044.975-.089 1.95-.207 2.924-.074.59-.089 1.167.103 1.743.133.398.222.827-.03 1.225-.073.119-.147.266-.31.207-.147-.059-.088-.206-.044-.31.133-.428.06-.842-.044-1.255-.34-1.432-.236-2.865-.03-4.312.074-.458.09-.886-.059-1.33-.162-.457 0-.9.045-1.358ZM77.156 40.3c.104.562.178 1.108-.03 1.64-.132.34-.058.724-.014 1.078.207 1.506.177 2.998-.177 4.474a2.22 2.22 0 0 0-.03 1.034c.03.133.074.266-.073.384-.4-.251-.488-.65-.37-1.019.429-1.181.222-2.377.148-3.574-.088-1.284-.015-2.554.443-3.78.03-.089.074-.162.103-.236ZM14.928 29.329a3.328 3.328 0 0 1-.62 1.846c-.134.192-.252.236-.488.133-1.728-.768-3.456-1.536-5.198-2.29-.236-.103-.251-.22-.207-.457.414-1.772 1.905-2.703 3.677-2.274.709.177 1.359.502 1.89 1.004.606.576.946 1.27.946 2.038ZM21.277 73.512c-1.3 0-2.318-1.107-2.067-2.333.354-1.743 1.344-3.072 2.968-3.87.68-.339 1.359-.22 1.95.237.634.473 1.018 1.152.856 1.92-.355 1.683-1.33 2.968-2.835 3.84-.28.162-.606.22-.872.206ZM23.064 12.937c.813.561 1.521 1.049 2.29 1.565-.562.37-1.079.71-1.58 1.049-.163.118-.222.015-.237-.118-.148-.783-.296-1.58-.473-2.496ZM72.77 63.293c-.9-.133-1.816-.664-2.436-1.668-.28-.458-.207-.93.118-1.344.325-.414.739-.59 1.27-.473.93.207 1.698.665 2.29 1.418.339.428.427.915.147 1.432-.237.458-.62.68-1.388.635ZM78.456 58.08c0 .576-.458 1.078-.99 1.078-.487 0-.856-.383-.87-.9-.015-.591.472-1.123 1.004-1.108.472.015.856.428.856.93Zm-.28-.162c-.222.03-.385.03-.488-.192-.074-.162-.28-.192-.443-.103-.25.147-.354.428-.399.679-.03.177.237.177.384.251.148.089.296.148.458.207.044.015.133.015.163-.015.059-.074.014-.133-.06-.177-.295-.192-.103-.296.074-.414.074-.059.237 0 .31-.236Z" fill="#242021"/><path d="M43.827 17.81c.694.03 1.713.015 2.702.192 1.285.222 2.452.724 3.441 1.566 2.068 1.772 3.53 3.928 4.164 6.6.37 1.566.148 3.116-.088 4.667-.192 1.27-.414 2.525-.62 3.78-.03.222-.045.443-.074.68-.045.369.015.635.472.753.502.118.71.487.635 1.004-.192 1.477-1.019 2.614-2.052 3.618-.266.266-.576.192-.857-.03-.428-.34-.871-.65-1.403-.812-.871-.295-1.358-.015-1.491.886-.207 1.359-.384 2.717-.576 4.061-.044.266.015.547.044.812a1.217 1.217 0 0 1-.827 1.3c-.236.088-.325.044-.31-.222.015-.487 0-.96 0-1.447 0-.177-.03-.443-.207-.458-.221-.014-.325.237-.34.458-.014.473 0 .93-.014 1.403 0 .222.03.487-.325.473-.31-.015-.325-.251-.31-.488 0-.413.015-.812-.015-1.225-.015-.192-.074-.443-.31-.429-.192 0-.236.251-.251.429-.015.443-.044.87-.03 1.314 0 .251-.073.384-.324.325-.251-.06-.665.162-.68-.34-.014-.28 0-.576 0-.856v-.355c-.014-.221-.073-.487-.28-.502-.237-.015-.296.28-.31.473-.03.398-.03.812-.015 1.21.03.4-.251.355-.473.355-.221 0-.502.044-.458-.354.045-.443.045-.901.06-1.359 0-.177 0-.428-.207-.443-.177-.015-.295.207-.31.399-.06.472-.118.96-.148 1.432-.03.502-.399.28-.635.325-.28.044-.325-.118-.295-.354.03-.473.044-.93.074-1.403.014-.207-.045-.443-.266-.458-.192-.015-.251.221-.266.413-.044.444-.074.901-.118 1.344-.015.163-.015.355-.266.31-.207-.044-.473-.014-.458-.369.03-.398.06-.812.06-1.21 0-.207.044-.488-.237-.503-.236-.015-.325.251-.354.458-.045.325-.074.665-.119.99-.014.088.015.206-.073.25-.119.06-.192-.059-.266-.118-.458-.413-.753-.9-.753-1.535a214.127 214.127 0 0 0-.074-3.072c-.015-.31-.015-.635-.074-.945-.207-1.063-.886-1.492-1.95-1.255-.472.103-.841.354-1.166.723-.369.399-.664.399-1.034.015-.635-.68-1.284-1.359-1.89-2.067-.59-.68-.517-1.492.266-1.905.709-.384.738-.798.576-1.507-.354-1.506-.738-3.012-.871-4.563-.296-3.396.531-6.438 2.717-9.096 1.462-1.787 3.308-2.85 5.597-3.116a22.892 22.892 0 0 1 3.662-.222Zm6.97 13.852c-1.034.074-1.92.148-2.806.221-.886.074-1.772.133-2.658.222-.458.044-.797.266-.93.724-.148.457-.118.9.236 1.255.783.782 1.58 1.565 2.451 2.26.665.53 1.433.678 2.245.413.355-.118.709-.237 1.063-.37 1.64-.605 2.629-2.51 2.186-4.208-.089-.355-.28-.517-.635-.517h-1.152Zm-13.984 5.154c1.063 0 2.067-.133 2.909-.813.694-.56 1.27-1.24 1.757-1.978.133-.207.221-.429.295-.665.118-.413 0-.709-.413-.856-.325-.118-.65-.266-.99-.28l-5.39-.444c-.738-.059-1.225.384-1.255 1.137-.015.59.074 1.167.207 1.743.266 1.24 1.565 2.348 2.88 2.156Zm6.497 1.698h.044c0 .487-.014.96 0 1.447 0 .222.045.458.251.605.488.34 1.433-.044 1.566-.62.192-.827-.517-2.687-1.211-3.175-.355-.25-.606-.147-.635.296-.03.487-.015.96-.015 1.447Zm-.221-.192v-1.108c0-.192-.03-.398-.237-.502-.192-.088-.31.074-.428.177-.916.828-1.388 1.832-1.21 3.072.058.443.486.768.93.738.457-.014.797-.354.856-.841.03-.443.044-.901.089-1.536Z" fill="#FEFEFE"/><path d="M56.01 64.667c-.68.044-1.285-.296-1.55-1.078-.237-.71-.74-1.123-1.36-1.477-3.16-1.802-6.32-3.618-9.48-5.434-.428-.252-.797-.252-1.24-.06-2.88 1.315-5.76 2.6-8.64 3.899a3.957 3.957 0 0 0-1.756 1.506 11.294 11.294 0 0 1-1.713 2.038c-.503.473-1.152.561-1.743.266-.561-.28-.797-.724-.664-1.477.103-.576-.074-1.019-.488-1.417-.576-.532-.62-.96-.25-1.654.147-.28.339-.532.56-.754.458-.472.99-.65 1.595-.354.709.325 1.359.222 2.038-.059 2.776-1.122 5.553-2.215 8.329-3.337.147-.06.384-.06.369-.251 0-.133-.207-.207-.34-.281-2.643-1.373-5.286-2.747-7.93-4.105a2.654 2.654 0 0 0-1.654-.266c-1.432.221-2.362-.768-2.126-2.215.044-.31.236-.487.517-.546.25-.06.502-.06.768-.015.753.162.753.177 1.122-.443.295-.488.753-.591 1.255-.517.517.074.99.295 1.093.871.133.798.605 1.27 1.285 1.625 2.746 1.447 5.478 2.894 8.21 4.356.517.28.975.295 1.507.044 3.19-1.506 6.364-2.998 9.554-4.474.827-.384 1.491-.916 1.95-1.728.62-1.108 2.11-1.093 2.805-.015.192.296.192.606-.015.886a2.75 2.75 0 0 1-.398.428c-.414.355-.591.739-.444 1.315.163.62-.118 1.151-.65 1.52-.383.281-.797.34-1.225.075-.517-.325-1.049-.31-1.595-.06-2.54 1.182-5.08 2.363-7.605 3.545-.133.059-.325.088-.325.265 0 .148.192.178.31.237 2.348 1.196 4.681 2.407 7.03 3.603.398.207.812.31 1.255.325l3.204.133c.635.03 1.078.354 1.344.915.31.68.177 1.24-.428 1.654-.517.34-.798.739-.798 1.403.015.783-.502 1.122-1.683 1.108ZM78.175 57.918c-.073.236-.236.177-.324.236-.178.104-.37.222-.074.414.074.044.133.103.059.177-.03.03-.118.03-.163.015-.147-.06-.31-.118-.457-.207-.133-.074-.414-.074-.384-.251.044-.251.147-.532.398-.68.163-.088.37-.058.443.104.118.221.28.221.502.192Zm-.575.103c-.015-.147-.09-.25-.222-.236-.192.03-.251.207-.295.355-.045.191.162.221.266.221.221 0 .177-.221.25-.34Z" fill="#FEFEFE"/><path d="M50.797 31.662h1.152c.354 0 .546.162.635.517.443 1.698-.547 3.603-2.186 4.208-.354.133-.709.252-1.063.37-.827.265-1.58.118-2.245-.414-.87-.694-1.668-1.477-2.45-2.26-.355-.354-.385-.797-.237-1.255.148-.457.472-.679.93-.723l2.658-.222c.871-.073 1.758-.133 2.806-.221ZM36.813 36.816c-1.33.192-2.614-.901-2.895-2.171-.133-.576-.221-1.152-.207-1.743.03-.753.517-1.196 1.256-1.137 1.801.133 3.603.28 5.39.443.34.03.664.163.989.28.414.163.532.459.414.857-.06.237-.163.458-.296.665a8.332 8.332 0 0 1-1.757 1.979c-.827.679-1.831.827-2.895.827ZM43.31 38.514c0-.487-.015-.96 0-1.447.03-.443.28-.547.635-.296.694.488 1.403 2.348 1.211 3.175-.133.576-1.078.945-1.565.62-.207-.147-.237-.383-.251-.605-.015-.487 0-.96 0-1.447h-.03ZM43.089 38.322c-.045.65-.06 1.093-.104 1.536a.895.895 0 0 1-.856.841c-.443.015-.886-.295-.93-.738-.163-1.24.31-2.26 1.21-3.072.118-.103.251-.25.428-.177.207.089.237.296.237.502.015.429.015.857.015 1.108ZM77.6 58.021c-.074.118-.03.355-.251.34-.104 0-.31-.03-.266-.221.03-.148.103-.34.295-.355.133-.03.207.089.222.236Z" fill="#242021"/></svg>