<svg xmlns="http://www.w3.org/2000/svg" width="152" height="40" fill="none" viewBox="0 0 152 40"><path fill="#000" d="M.61 20.203c0-6.345 4.527-10.246 11.766-10.246h7.496V.654h9.38v29.225h-16.91C5.137 29.879.61 26.129.61 20.203Zm9.897-.314c0 2.433 1.473 3.702 4.303 3.702h5.011V16.14h-4.965c-2.83 0-4.35 1.28-4.35 3.749Zm79.406-.012c0 6.346-4.527 10.246-11.766 10.246h-7.495v9.303h-9.38V10.201h16.91c7.204 0 11.731 3.75 11.731 9.676Zm-9.896.314c0-2.433-1.475-3.702-4.309-3.702h-5.006v7.451h4.971c2.834 0 4.344-1.28 4.344-3.749Zm71.373-.314c0 6.346-4.528 10.246-11.767 10.246h-7.495v9.303h-9.381V10.201h16.911c7.205 0 11.732 3.75 11.732 9.676Zm-9.897.314c0-2.433-1.475-3.702-4.309-3.702h-5.005v7.451h4.97c2.834 0 4.344-1.28 4.344-3.749Zm-48.785-.14c0-7.101 5.682-10.897 13.506-10.897s13.506 3.796 13.506 10.898c0 7.101-5.682 10.99-13.506 10.99-7.824-.01-13.506-3.889-13.506-10.99Zm17.814-.11c0-3.462-1.735-5.199-4.366-5.199-2.632 0-4.366 1.737-4.366 5.2 0 3.414 1.734 5.28 4.366 5.28 2.643-.012 4.366-1.866 4.366-5.28Zm-52.395.496c0-7.101-4.567-11.4-12.819-11.4-7.926 0-13.029 4.299-13.029 11.027 0 6.81 5.056 10.863 13.482 10.863 5.3 0 9.577-1.986 11.832-5.21l-6.718-2.453c-1.162 1.273-2.917 1.974-4.765 1.974-2.778 0-4.707-1.121-5.207-3.025a3.67 3.67 0 0 1-.081-.386h17.305v-1.39ZM40.895 17.42c.222-2.307 1.82-3.726 4.594-3.726 2.775 0 4.372 1.5 4.372 3.726h-8.965Z"/></svg>