<svg xmlns="http://www.w3.org/2000/svg" width="132" height="50" fill="none" viewBox="0 0 132 50"><path fill="#231F20" d="M18.962 24.897a5.93 5.93 0 0 1-5.954 5.955 5.93 5.93 0 0 1-5.955-5.955 5.93 5.93 0 0 1 5.955-5.954h5.954v5.954ZM25.578.42h-6.616v12.04h-5.954A12.423 12.423 0 0 0 .57 24.898c0 6.88 5.557 12.438 12.438 12.438 6.88 0 12.437-5.557 12.437-12.438V12.46L25.578.42ZM91.338 30.852a5.93 5.93 0 0 0 5.955-5.955 5.93 5.93 0 0 0-5.955-5.954 5.93 5.93 0 0 0-5.954 5.954c.132 3.308 2.779 5.955 5.954 5.955Zm-12.305-5.955c0-6.88 5.557-12.437 12.438-12.437 6.88 0 12.437 5.557 12.437 12.437 0 6.88-5.557 12.438-12.437 12.438a12.423 12.423 0 0 1-12.438-12.438ZM124.682 24.897c0-3.175-2.647-5.821-5.822-5.821-3.176 0-5.822 2.646-5.822 5.821v11.909h-6.483V24.897c0-6.88 5.557-12.437 12.437-12.437a12.423 12.423 0 0 1 12.438 12.437v11.909h-6.484c-.264 0-.264-10.32-.264-11.909ZM63.817 20.663c-.927-.661-.662-1.72.926-2.117 1.985-.529 5.425-.132 8.336 1.191l3.043-4.234c-1.323-1.059-4.234-2.514-8.468-2.779 0 0-7.145-.926-10.056 4.5 0 0-2.514 5.027 2.514 8.203 3.043 1.852 8.336 2.646 10.056 3.44 1.323.794.926 2.25-1.059 2.646-3.44.794-7.939-1.19-9.394-2.25l-3.176 4.367c2.117 1.588 4.764 3.043 8.998 3.705 0 0 6.748 1.19 10.453-3.44.661-.794 3.705-6.484-2.382-9.792-3.176-1.72-8.204-2.514-9.791-3.44ZM33.384 41.57c.265.132 3.308 2.248 6.219 2.248 7.145.133 7.542-7.277 7.542-8.997-1.323 1.456-4.102 2.382-5.822 2.382-6.88 0-12.305-5.293-12.305-12.173V12.989H35.5v12.04c0 3.176 2.646 5.823 5.822 5.823s5.822-2.647 5.822-5.822V12.989h6.483v12.04c0 10.718.53 21.7-9.923 24.214-7.807 1.853-13.364-3.043-13.761-3.307l3.44-4.367Z"/></svg>