<svg xmlns="http://www.w3.org/2000/svg" width="162" height="34" fill="none" viewBox="0 0 162 34"><path fill="#000" d="M112.779.661h-5.67c-.324 0-.486.322-.486.482v12.251h-5.67V1.144c0-.322-.324-.483-.486-.483h-5.67c-.324 0-.486.322-.486.482v31.445c0 .322.324.483.486.483h5.67c.324 0 .486-.322.486-.483V20.016h5.67v12.572c0 .322.324.483.486.483h5.67c.324 0 .486-.322.486-.483V1.143c0-.16-.162-.482-.486-.482Zm-47.79 0h-5.67c-.324 0-.486.16-.486.482V23.42c0 1.126-.324 1.93-.81 2.574-.486.643-1.134.804-1.944.804a2.74 2.74 0 0 1-1.944-.804c-.486-.644-.81-1.448-.81-2.574V1.143c0-.321-.324-.482-.486-.482h-5.67c-.324 0-.486.16-.486.482v22.438c0 2.895.648 5.63 2.43 7.425 1.782 1.77 4.212 2.735 6.993 2.735 2.916 0 5.373-.965 6.993-2.735 1.782-1.769 2.43-4.342 2.43-7.425V1.143c-.027-.16-.189-.482-.54-.482ZM9.423.178c-2.916 0-5.373.965-6.993 2.735C.648 4.682 0 7.255 0 10.338v13.404c0 2.895.648 5.63 2.43 7.425 1.782 1.77 4.212 2.735 6.993 2.735 2.916 0 5.373-.965 6.993-2.735 1.782-1.769 2.43-4.342 2.43-7.425v-7.399c0-.322-.324-.643-.648-.643H9.909c-.324 0-.648.321-.648.643v5.495c0 .322.324.644.648.644h2.133v1.287c0 1.126-.324 2.117-.81 2.734-.486.643-1.134.804-1.944.804a2.74 2.74 0 0 1-1.944-.804c-.486-.643-.81-1.608-.81-2.734V10.526c0-1.126.324-2.118.81-2.734.486-.644 1.134-.805 1.944-.805a2.74 2.74 0 0 1 1.944.805c.486.643.81 1.608.81 2.734v1.287c0 .321.324.482.486.482h5.67c.324 0 .486-.16.486-.482v-1.287c0-2.895-.648-5.63-2.43-7.426C14.796 1.143 12.177.178 9.423.178Zm73.116 25.655c-.486.643-1.134.804-2.133.804h-3.24v-6.809h3.24c.81 0 1.458.322 1.944.804.486.643.81 1.448.81 2.413.054 1.34-.108 2.117-.621 2.788Zm-5.373-18.55h2.916c.81 0 1.458.16 1.944.803.486.483.648 1.287.648 2.28 0 .99-.162 1.768-.648 2.412-.486.482-1.134.804-1.782.804h-2.916v-6.3h-.162Zm9.423 9.194c.972-.965 2.754-3.217 2.754-6.139 0-3.404-1.296-5.495-2.295-6.621-1.782-1.93-4.212-2.895-6.993-2.895h-8.883c-.324 0-.486.321-.486.482v31.472c0 .321.324.482.486.482h9.423c2.916 0 5.67-1.126 7.479-3.404.972-1.287 2.133-3.405 2.133-6.622-.189-3.86-2.619-6.138-3.618-6.755Zm-51.651-3.083c-.486.644-1.296.965-2.295.965h-2.754V7.282h2.754c.972 0 1.782.322 2.295.965.648.644.81 1.448.81 2.574s-.135 1.93-.81 2.573Zm3.591 5.817c.648-.482 1.134-.804 1.62-1.447 1.134-1.287 2.592-3.566 2.592-7.104 0-3.405-1.296-5.63-2.592-6.943-1.62-1.93-4.05-2.895-6.831-3.056h-9.423c-.324 0-.486.322-.486.482v31.445c0 .322.324.483.486.483h5.67c.324 0 .486-.322.486-.483V20.954h1.944l3.591 11.929c0 .16.324.322.486.322h5.994c.162 0 .324-.161.486-.161.162 0 .162-.322.162-.483l-4.185-13.35Zm115.668 6.622c-.486.643-1.134.804-2.133.804h-3.24v-6.809h3.24c.81 0 1.458.322 1.944.804.486.643.81 1.448.81 2.413.189 1.34-.108 2.117-.621 2.788Zm-5.211-18.55h2.916c.81 0 1.458.16 1.944.803.486.483.648 1.287.648 2.28 0 .99-.162 1.768-.648 2.412-.486.482-1.134.804-1.782.804h-2.916v-6.3h-.162Zm9.423 9.194c.972-.965 2.754-3.217 2.754-6.139 0-3.404-1.296-5.495-2.295-6.621-1.782-1.93-4.212-2.895-6.993-2.895h-8.964c-.324 0-.486.321-.486.482v31.472c0 .321.324.482.486.482h9.477c2.916 0 5.67-1.126 7.479-3.404.972-1.287 2.133-3.405 2.133-6.622-.324-3.86-2.754-6.138-3.591-6.755ZM136.647.661h-5.67c-.324 0-.486.16-.486.482V23.42c0 1.126-.324 1.93-.81 2.574-.486.643-1.134.804-1.944.804a2.74 2.74 0 0 1-1.944-.804c-.486-.644-.81-1.448-.81-2.574V1.143c0-.321-.324-.482-.486-.482H118.8c-.324 0-.486.16-.486.482v22.438c0 2.895.648 5.63 2.43 7.425 1.782 1.77 4.212 2.735 6.993 2.735 2.916 0 5.373-.965 6.993-2.735 1.782-1.769 2.43-4.342 2.43-7.425V1.143c.162-.16-.162-.482-.513-.482Z"/></svg>