<svg xmlns="http://www.w3.org/2000/svg" width="178" height="34" fill="none" viewBox="0 0 178 34"><path fill="#000" d="M84.578 26.611V7.485c0-4.375 2.71-6.608 6.608-6.52h1.402c3.895 0 6.65 1.97 6.65 6.304v3.325c0 .875-.57 1.357-1.529 1.532l-3.066.667v-5.57a2.055 2.055 0 0 0-2.322-2.23h-.87a2.021 2.021 0 0 0-2.276 2.23v19.652a2.023 2.023 0 0 0 2.276 2.23h.876a2.057 2.057 0 0 0 2.321-2.23v-3.11h4.594l-.052 2.846c0 4.334-2.709 6.509-6.61 6.509h-1.43c-3.875 0-6.572-2.186-6.572-6.509Zm-19.402 0-.038-2.845h4.595l.047 3.109c0 1.443 1 2.23 2.502 2.23h.876a2.2 2.2 0 0 0 2.504-2.23v-3.02c0-2.978-1.753-3.457-5.473-5.558-4.684-2.45-5.03-3.94-5.03-7.308V7.483c0-4.375 2.752-6.608 6.652-6.52h1.402c3.896 0 6.828 2.192 6.828 6.52v2.67c0 .874-.57 1.357-1.533 1.532l-3.064.657v-5.12c0-1.443-1.001-2.23-2.504-2.23h-.876a2.053 2.053 0 0 0-2.321 2.23V10.9c0 2.1 1.05 2.752 2.5 3.632l3.831 1.924c3.627 1.796 4.155 3.852 4.155 6.871v3.284c0 4.334-2.932 6.509-6.827 6.509h-1.438c-3.873 0-6.788-2.186-6.788-6.509Zm102.454 6.304h-8.403V1.182h8.403c3.895-.088 6.609 2.146 6.609 6.524v18.686c0 4.295-2.613 6.525-6.39 6.525l-.219-.002Zm-3.808-4.102h3.544a2.022 2.022 0 0 0 2.276-2.233V7.454a2.026 2.026 0 0 0-1.37-2.145 2.023 2.023 0 0 0-.906-.086h-3.544v23.59Zm-21.764 4.102V1.182h12.823V5.56h-8.315v22.975h8.315v4.378h-12.823Zm-19.355 0V1.182h8.4c3.896-.088 6.608 2.146 6.608 6.524v7.79c0 4.373-2.708 6.607-6.608 6.52h-3.149V19.48c0-1.229.438-1.62 1.576-1.62h1.313a2.02 2.02 0 0 0 2.174-1.329 2.03 2.03 0 0 0 .104-.904V7.444a2.039 2.039 0 0 0-.106-.903 2.024 2.024 0 0 0-2.173-1.324h-3.545v27.698h-4.594Zm-7.667 0-1.227-6.829h-5.659l.527-2.708c.174-.965.659-1.445 1.531-1.445h2.848l-2.41-13.355-4.464 24.337h-4.504l6.213-31.733h5.645l6.006 31.73-4.506.003Zm-58.054 0-7.66-20.346v20.346H45.03V1.182h4.07l7.397 19.621V1.182h4.3v31.73l-3.814.003Zm-19.627 0-1.227-6.829H30.48l.526-2.708c.175-.965.659-1.445 1.534-1.445h2.845L32.978 8.578l-4.472 24.337h-4.503L30.22 1.182h5.645l5.994 31.73-4.505.003Zm-20.508 0v-20.57l-4.679 13.784h-3.28L4.201 12.344v20.57H0V1.183h4.202l6.392 17.245L16.85 1.182h4.2v31.73l-4.204.003ZM147.22 18.777v-2.709c0-1.225.439-1.62 1.579-1.62h5.338v4.333l-6.917-.004Zm29.747-15.462-.739-1.786v1.786h-.239V1.182h.36l.657 1.655.636-1.655H178v2.126h-.25v-1.78l-.703 1.787h-.079Zm-2.095-.007-.018-1.912h-.616v-.214h1.501v.214h-.619v1.912h-.248Z"/></svg>