<svg xmlns="http://www.w3.org/2000/svg" width="128" height="48" fill="none" viewBox="0 0 128 48"><g fill="#000" clip-path="url(#a)"><path d="m89.725 19.857 5.07-8.04H82.269V.565h-7.819V32.03c0 3.894.364 6.992 1.09 9.294.726 2.303 2.042 3.957 3.949 4.961 1.069.554 2.219.936 3.406 1.13 1.034.185 5.319.285 8.592-1.319l-2.105-7.232c-5.685 2.538-7.093.132-7.093-7.716V19.858h7.437ZM8.223 46.499H0V12.015h6.943l.722 7.195a13.234 13.234 0 0 1 4.585-5.936c2.057-1.478 4.602-2.217 7.639-2.22 4.333 0 7.657 1.37 9.974 4.108 2.317 2.738 3.475 6.423 3.475 11.054v20.283h-8.223V28.38c0-3.078-.574-5.506-1.722-7.284-1.147-1.778-3.203-2.667-6.168-2.667-3.074 0-5.343.98-6.806 2.938-1.464 1.96-2.196 4.697-2.196 8.212V46.5ZM63.16 39.114a14.316 14.316 0 0 1-5.444 6.025c-2.48 1.578-5.63 2.368-9.446 2.368s-6.723-.834-8.721-2.5c-2.001-1.658-3.001-3.987-3.001-6.986a10.767 10.767 0 0 1 1.14-5.094 8.752 8.752 0 0 1 3.361-3.478c.475-.317.974-.597 1.492-.838a12.42 12.42 0 0 1 1.557-.597 26.091 26.091 0 0 1 4.027-.931c1.61-.26 3.698-.53 6.263-.808 3.115-.315 5.289-.732 6.524-1.253 1.234-.52 1.855-1.416 1.861-2.684v-.06a4.016 4.016 0 0 0-1.693-3.296c-1.13-.879-3.118-1.318-5.966-1.318-3.182 0-5.469.55-6.86 1.65-1.392 1.099-2.182 2.704-2.371 4.814h-8.39c.369-4.156 2.018-7.373 4.945-9.652 2.927-2.28 6.965-3.419 12.112-3.419 5.595 0 9.67 1.039 12.23 3.117 2.56 2.078 3.837 5.335 3.833 9.772v22.553h-6.617l-.836-7.385Zm-8.948 1.467a10.968 10.968 0 0 0 2.89-1.17c1.716-.943 3.17-2.3 4.227-3.95a9.152 9.152 0 0 0 1.49-4.914v-1.194c-.596.561-1.485 1.02-2.666 1.378a28.88 28.88 0 0 1-4.501.895c-2.37.28-4.176.55-5.417.808a8.804 8.804 0 0 0-2.983 1.11 4.259 4.259 0 0 0-1.444 1.467 3.837 3.837 0 0 0-.47 1.942v.06a3.495 3.495 0 0 0 1.333 2.908c.888.7 2.297 1.05 4.223 1.05a13.65 13.65 0 0 0 3.32-.388l-.002-.002Z"/><path d="M115.416 39.59c-1.272.552-2.91.829-4.914.83-3.093 0-5.475-.678-7.148-2.036-1.672-1.357-2.713-3.334-3.12-5.928H127.9s.764-7.181-1.926-12.648a15.38 15.38 0 0 0-10.147-8.143 22.517 22.517 0 0 0-5.376-.6c-3.792 0-7.03.788-9.713 2.365a15.318 15.318 0 0 0-6.112 6.557 16.916 16.916 0 0 0-1.61 4.4 23.592 23.592 0 0 0-.518 5.06v.538c0 3.513.61 6.578 1.83 9.193a13.516 13.516 0 0 0 5.687 6.137 15.586 15.586 0 0 0 4.449 1.616c1.841.375 3.716.556 5.595.54 2.49.036 4.97-.311 7.355-1.029l-1.998-6.852ZM103.681 20c1.706-1.397 4.017-2.096 6.931-2.096 2.845 0 5.025.679 6.542 2.036 1.517 1.358 2.465 3.334 2.844 5.928h-19.645c.508-2.524 1.618-4.48 3.328-5.868Z"/></g><defs><clipPath id="a"><path fill="#fff" d="M0 0h128v46.952H0z" transform="translate(0 .564)"/></clipPath></defs></svg>