<svg width="86" height="78" viewBox="0 0 86 78" fill="none" xmlns="http://www.w3.org/2000/svg">
<path d="M81.3505 24.402C79.0563 24.402 77.221 22.6126 77.221 20.3643C77.221 18.116 79.0563 16.3265 81.3505 16.3265C83.6447 16.3265 85.48 18.116 85.48 20.3643C85.48 22.5208 83.6447 24.402 81.3505 24.402ZM81.3505 16.8771C79.4234 16.8771 77.7716 18.4066 77.7716 20.3796C77.7716 22.3526 79.3316 23.882 81.3505 23.882C83.2776 23.882 84.9294 22.3526 84.9294 20.3796C84.9294 18.3913 83.3694 16.8771 81.3505 16.8771Z" fill="black"/>
<path d="M83.1871 22.7972H82.5448C82.453 22.7054 82.453 22.5219 82.453 22.2619C82.453 21.9866 82.3612 21.8184 82.3612 21.5431C82.3612 21.2678 82.3612 21.0995 82.2695 21.0077C82.0859 20.7324 81.9024 20.6407 81.5353 20.6407H80.5259V22.889H79.9753V17.8571H81.26C81.8106 17.8571 82.2695 17.9488 82.5448 18.1324C82.8201 18.3159 83.0036 18.6677 83.0036 19.203C83.0036 19.5701 82.9118 19.8301 82.7283 20.0136C82.5448 20.1971 82.3612 20.3807 81.9942 20.3807C82.2695 20.3807 82.453 20.4724 82.5448 20.5642L82.8201 20.8395C82.9118 20.9313 82.9118 21.023 82.9118 21.2066V22.2772C82.9118 22.4607 83.0036 22.5525 83.0036 22.6443C83.0036 22.736 83.0954 22.736 83.0954 22.736V22.8278L83.1871 22.7972ZM82.3612 19.203C82.3612 18.8512 82.2695 18.5759 81.9942 18.4841C81.7648 18.3618 81.52 18.3006 81.26 18.3006H80.4341V20.0901H81.3518C81.6271 20.0901 81.9024 19.9983 82.0859 19.9065C82.2695 19.7383 82.3612 19.5701 82.3612 19.203ZM14.6216 38.8565C14.6216 47.9262 13.9792 54.4723 10.6756 56.1852V61.7525C18.5523 60.7583 21.03 52.331 21.03 38.8565C21.03 25.5808 19.1947 17.0465 10.6756 15.9758V21.3595C13.9792 22.889 14.6216 29.175 14.6216 38.8565ZM10.6909 56.1852C10.0485 56.537 9.49793 56.537 8.58026 56.537H6.74491V21.5431C7.38728 21.1913 8.21319 21.0077 9.03909 21.0077C9.68146 21.0077 10.3238 21.1913 10.6909 21.3595V15.9758H8.58026C5.46016 15.9758 1.89653 16.7864 0.52002 17.8571V73.1469H6.74491V61.5689C7.38728 61.5689 8.39672 61.7525 9.40616 61.7525H10.6909V56.1852ZM31.0327 7.97678C28.922 7.97678 27.2702 6.44732 27.2702 4.29079C27.2702 2.40955 28.922 0.78833 31.0327 0.78833C32.868 0.78833 34.6116 2.31779 34.6116 4.29079C34.6116 6.46261 32.9598 7.99207 31.0327 7.97678ZM34.1528 16.5111H27.7443V61.5689H34.1528V16.5111ZM56.2381 61.5689L51.1909 42.2672L46.2355 61.5689H39.5518L47.4285 36.3482L40.1941 16.5111H46.8778L51.1909 31.3163L55.4122 16.5111H62.0042L54.9534 36.3482L62.8301 61.5689H56.2381ZM71.3644 70.1033C73.4751 70.1033 74.9434 71.6328 74.9434 73.6058C74.9434 75.7623 73.4751 77.2917 71.3644 77.2917C69.2538 77.2917 67.602 75.7623 67.602 73.6058C67.602 71.6175 69.3456 70.1033 71.3644 70.1033ZM74.4692 16.3276H68.2444V61.5689H74.4692V16.3276Z" fill="black"/>
</svg>
