<svg width="86" height="86" viewBox="0 0 86 86" fill="none" xmlns="http://www.w3.org/2000/svg">
<path d="M85.5 43.077C85.4705 66.542 66.406 85.5622 42.9409 85.5327C19.4906 85.5031 0.485241 66.4534 0.500009 43.0031C0.514776 19.538 19.594 0.517894 43.0591 0.547428C66.4946 0.576963 85.5148 19.6266 85.5 43.077ZM42.9852 84.6909C65.963 84.6909 84.6287 66.04 84.6583 43.0474C84.673 20.0697 66.0221 1.40393 43.0295 1.37439C20.0518 1.34486 1.34174 20.0549 1.34174 43.0474C1.34174 66.0252 20.0075 84.6909 42.9852 84.6909Z" fill="black"/>
<path d="M42.9852 84.6909C20.0075 84.6909 1.34167 66.0104 1.34167 43.0327C1.34167 20.0401 20.0518 1.34486 43.0295 1.37439C66.0221 1.40393 84.673 20.0844 84.6583 43.0474C84.6435 66.04 65.963 84.7057 42.9852 84.6909ZM43.0147 2.27519C20.5538 2.27519 2.24247 20.5422 2.2277 42.9736C2.21293 65.464 20.48 83.7754 42.9261 83.8049C65.4313 83.8197 83.7426 65.5526 83.7574 43.0622C83.7722 20.5865 65.4756 2.27519 43.0147 2.27519Z" fill="#FEFEFE"/>
<path d="M43.0147 2.27519C65.4756 2.27519 83.7574 20.5865 83.7574 43.0622C83.7426 65.5379 65.4313 83.8197 42.9261 83.8049C20.48 83.7754 2.21299 65.464 2.24252 42.9736C2.25729 20.5422 20.5686 2.27519 43.0147 2.27519ZM42.9705 71.43C58.6385 71.4447 71.3678 58.7597 71.3825 43.1065C71.4121 27.409 58.7123 14.6501 43.0295 14.6501C27.3468 14.6353 14.6174 27.3499 14.6174 43.0179C14.6027 58.6859 27.3025 71.4152 42.9705 71.43ZM11.7969 45.6169C11.8412 43.8892 11.4573 42.1023 10.7189 40.537C10.4974 40.0497 10.2316 39.5181 9.71473 39.3852C9.24218 39.267 8.81393 38.9865 8.32661 38.9422C7.9279 38.9126 7.55872 39.0751 7.23384 39.3113C6.86466 39.5771 6.55455 39.902 6.33304 40.3007C5.37317 42.0285 4.88585 43.8301 5.32887 45.8237C5.60945 47.1084 6.14106 48.2455 7.10093 49.1463C7.9722 49.9733 9.61135 50.0619 10.4383 49.3678C11.0438 48.8509 11.4573 48.2455 11.6049 47.4481C11.7083 46.8278 11.7526 46.1928 11.7969 45.6169ZM74.9267 45.8384C74.9267 46.5768 74.9562 47.3742 75.1629 48.1569C75.4878 49.353 76.3739 50.0176 77.5995 50.0323C78.5446 50.0471 79.1796 49.5302 79.7112 48.8362C81.4981 46.4734 81.6457 42.885 80.0657 40.3598C79.7851 39.902 79.4454 39.5181 78.9433 39.2818C78.4856 39.0751 78.1016 39.2966 77.6586 39.3852C76.8612 39.5476 76.3886 39.9906 76.108 40.6699C75.3992 42.2943 74.8528 43.963 74.9267 45.8384ZM55.6702 12.2283C55.6259 12.1988 55.5964 12.1692 55.5521 12.1397C55.5816 11.8591 55.6112 11.5785 55.6407 11.2832C55.7884 10.087 55.9213 8.8909 56.069 7.69476C56.1133 7.36988 56.2166 7.11884 56.6301 7.28128C56.8221 7.35511 56.9993 7.36988 57.0879 7.14837C57.1765 6.92686 56.9993 6.82349 56.8368 6.73489C56.1133 6.39524 55.4044 6.04083 54.6808 5.68642C54.5332 5.61258 54.356 5.53875 54.2378 5.71595C54.1049 5.90793 54.1935 6.0556 54.3707 6.17374C54.6661 6.35094 54.7251 6.63152 54.6956 6.9564C54.6365 7.42895 54.5922 7.91627 54.5479 8.38882C54.3412 10.2643 54.1345 12.1249 53.9425 14.0004C53.9277 14.1923 53.8391 14.3991 54.1197 14.5467C54.4003 14.6796 54.4741 14.4581 54.5922 14.34C55.5078 13.4687 56.4086 12.5827 57.3094 11.6967C57.4128 11.5933 57.5014 11.4161 57.7081 11.4161C57.7672 11.6228 57.7081 11.8 57.6933 11.992C57.5604 13.2029 57.4275 14.4138 57.3094 15.6247C57.2946 15.802 57.1765 16.0235 57.4718 16.1711C57.7524 16.304 57.8558 16.0973 57.9887 15.9644C58.7123 15.2556 59.4211 14.5467 60.1447 13.8379C61.075 12.9223 62.0054 11.992 62.9357 11.0764C63.172 10.8402 63.4526 10.6334 63.8217 10.7663C63.9842 10.8254 64.1466 10.8845 64.2205 10.663C64.3091 10.4562 64.2057 10.3233 64.0137 10.2199C63.4378 9.93937 62.8471 9.6588 62.2712 9.37822C62.094 9.28962 61.9463 9.31915 61.8429 9.48159C61.7396 9.6588 61.8577 9.7474 61.9906 9.85077C62.4779 10.2643 62.4779 10.3086 62.0201 10.7811C61.075 11.741 60.1299 12.6861 59.1848 13.6312C59.1258 13.6902 59.0815 13.7788 58.9338 13.7493C59.111 12.2726 59.2144 10.7959 59.4654 9.33392C59.5392 8.92044 59.7017 8.72846 60.1447 8.9352C60.3219 9.02381 60.4696 9.00904 60.5582 8.81707C60.632 8.63986 60.5434 8.52172 60.381 8.44789C59.5688 8.04917 58.7566 7.65046 57.9444 7.26651C57.7967 7.19267 57.649 7.20744 57.5457 7.35511C57.4275 7.51755 57.5309 7.63569 57.649 7.73906C58.0921 8.19684 58.225 9.55542 57.7967 10.028C57.1027 10.8106 56.3791 11.5047 55.6702 12.2283ZM38.7027 4.80039C38.1859 4.81516 37.6838 4.84469 37.167 4.87422C37.0045 4.88899 36.8568 4.93329 36.8421 5.1105C36.8273 5.31724 36.975 5.39108 37.1522 5.42061C37.2408 5.43538 37.3294 5.43538 37.418 5.45014C37.7576 5.46491 37.9496 5.62735 37.9644 5.98176C38.0382 7.88673 38.1268 9.80647 38.2154 11.7114C38.2302 12.1545 38.0234 12.3907 37.5804 12.4055C37.3737 12.4055 37.1522 12.4498 37.167 12.7008C37.1817 12.9814 37.4328 12.9814 37.6543 12.9666C38.5551 12.9223 39.4559 12.8928 40.3567 12.8485C40.5634 12.8337 40.8292 12.8485 40.8144 12.5532C40.8144 12.2726 40.5634 12.3169 40.3714 12.2874C39.7955 12.2283 39.7069 12.1397 39.6626 11.5638C39.6183 10.8549 39.5888 10.1461 39.5445 9.43729C39.5297 9.20101 39.6183 9.12718 39.8546 9.11241C40.7258 9.08288 41.5971 9.05334 42.4684 9.00904C42.7046 8.99427 42.8228 9.05334 42.8228 9.31915C42.8228 10.0427 42.8523 10.7663 42.8966 11.4899C42.9262 11.9329 42.7342 12.1692 42.2912 12.2135C42.0697 12.2283 41.8334 12.2283 41.8629 12.5384C41.8924 12.8042 42.1287 12.7747 42.3207 12.7747C43.2215 12.7451 44.1223 12.7008 45.0231 12.6713C45.2446 12.6565 45.4809 12.6565 45.4809 12.3612C45.4661 12.1102 45.2446 12.1101 45.0379 12.0954C44.4915 12.0511 44.3733 11.9477 44.3438 11.4161C44.27 9.58496 44.1961 7.73906 44.1223 5.90793C44.1075 5.30247 44.2109 5.1991 44.8016 5.12527C44.964 5.1105 45.1855 5.1548 45.1708 4.87422C45.156 4.60841 44.9788 4.56411 44.7573 4.57888C43.8417 4.60841 42.9262 4.63795 42.0106 4.68225C41.8038 4.69702 41.538 4.66748 41.5233 4.96283C41.5085 5.27294 41.7743 5.2434 41.981 5.25817C42.4388 5.27294 42.6603 5.49445 42.6603 5.967C42.6603 6.63152 42.7046 7.29605 42.7342 7.9458C42.7489 8.15254 42.7194 8.27068 42.4536 8.27068C41.5823 8.28545 40.7111 8.32975 39.8398 8.37405C39.574 8.38882 39.5002 8.30021 39.5002 8.04917C39.4854 7.41418 39.4559 6.77919 39.4411 6.15897C39.4263 5.47968 39.4559 5.43538 40.1499 5.31724C40.3271 5.28771 40.4896 5.25817 40.4748 5.03666C40.46 4.80039 40.2828 4.75609 40.0909 4.75609C39.6331 4.75609 39.1753 4.78562 38.7027 4.80039ZM70.8952 29.2253C70.8805 28.93 71.0134 28.8119 71.2053 28.7232C71.9142 28.3836 72.623 28.0587 73.317 27.7043C73.5238 27.6009 73.5976 27.66 73.6862 27.852C74.0554 28.6642 74.4246 29.4616 74.8233 30.259C74.9267 30.4805 74.8824 30.5691 74.6756 30.6578C74.0702 30.9236 73.4795 31.2189 72.874 31.4995C72.2095 31.7948 72.18 31.7948 71.7517 31.1746C71.6336 31.0122 71.5154 30.9383 71.3382 31.0269C71.161 31.1155 71.1758 31.2632 71.2496 31.4109C71.6631 32.3117 72.0914 33.2125 72.5196 34.0985C72.5934 34.261 72.7116 34.3791 72.9183 34.2905C73.1103 34.2019 73.0955 34.0542 73.0512 33.877C72.8297 33.1829 72.8593 33.1239 73.509 32.8138C75.0743 32.0754 76.6397 31.337 78.205 30.5987C78.9433 30.2443 78.9729 30.259 79.4159 30.9679C79.475 31.0565 79.5045 31.2189 79.6669 31.1303C79.7851 31.0712 79.918 30.9974 79.9032 30.835C79.8884 30.7168 79.8441 30.5987 79.7999 30.4953C79.4307 29.7127 79.0615 28.9152 78.6775 28.1326C78.5889 27.9406 78.5151 27.6452 78.205 27.7781C77.9392 27.8963 78.0573 28.1326 78.1311 28.3245C78.2936 28.738 78.1607 29.0038 77.762 29.181C77.1565 29.4468 76.5511 29.7274 75.9751 30.0375C75.7093 30.1704 75.6207 30.0818 75.5026 29.8456C75.1629 29.0777 74.8085 28.3098 74.4246 27.5566C74.2769 27.2613 74.3655 27.1727 74.6166 27.0546C75.1629 26.8183 75.7093 26.5377 76.2557 26.2867C76.8907 25.9913 76.9498 26.0061 77.3337 26.6115C77.4519 26.7887 77.57 26.9069 77.7767 26.7887C77.9539 26.6854 77.9244 26.5229 77.8506 26.3457C77.4371 25.4745 77.0236 24.6032 76.6101 23.7319C76.5363 23.5695 76.4182 23.3923 76.1966 23.4957C75.9899 23.5843 76.0342 23.7762 76.0785 23.9534C76.2705 24.6032 76.2705 24.6475 75.665 24.9281C74.0702 25.696 72.4605 26.4491 70.8509 27.2022C70.1864 27.5123 70.1716 27.4976 69.7434 26.8773C69.64 26.7149 69.5219 26.6263 69.3299 26.7297C69.1527 26.8183 69.1822 26.9807 69.2413 27.1284C69.3151 27.3056 69.4037 27.4828 69.4923 27.66C69.8172 28.3541 70.1421 29.0481 70.4817 29.7422C70.5703 29.9194 70.6442 30.1261 70.91 30.0228C71.1758 29.9194 71.0577 29.7127 71.0134 29.5207C70.9543 29.4321 70.9248 29.2992 70.8952 29.2253ZM15.8874 28.738C15.8874 26.8478 14.8242 25.4449 13.0669 24.869C11.2653 24.2783 9.80333 24.7213 8.72532 26.1981C8.48905 26.5082 8.28231 26.8478 8.11987 27.2022C7.61778 28.2802 7.14523 29.373 6.65792 30.451C6.58408 30.6282 6.48071 30.835 6.71699 30.9679C6.99756 31.1155 7.08616 30.8645 7.17477 30.6873C7.35197 30.3033 7.61778 30.1852 8.0165 30.3624C9.74426 31.1303 11.472 31.8834 13.2146 32.6513C13.6133 32.8285 13.7462 33.1091 13.569 33.5226C13.4804 33.6998 13.3918 33.9065 13.6428 34.0247C13.9234 34.1428 13.9972 33.9065 14.0858 33.7146C14.5436 32.6661 15.0014 31.6324 15.4592 30.5839C15.7397 29.9194 15.8726 29.2696 15.8874 28.738ZM17.9696 70.5883C17.9696 72.7443 19.6974 74.4573 21.8829 74.472C24.1275 74.4868 26.1654 72.4342 26.1802 70.16C26.1949 67.9154 24.4819 66.1876 22.2668 66.1876C19.9779 66.1876 17.9696 68.2403 17.9696 70.5883ZM20.6129 21C20.6129 21.2215 20.5982 21.443 20.4652 21.6055C20.037 22.1814 19.594 22.7573 19.1362 23.3185C19.0181 23.4809 18.8704 23.4661 18.7079 23.3332C18.073 22.8311 17.438 22.3291 16.7882 21.827C16.6258 21.7088 16.6258 21.6202 16.7439 21.4726C17.0245 21.1477 17.2755 20.8228 17.5413 20.4832C18.0139 19.9072 18.1173 19.8925 18.7966 20.2173C18.959 20.2912 19.0771 20.3798 19.21 20.1583C19.3282 19.9663 19.2543 19.8482 19.1214 19.73C18.5455 19.2722 17.9696 18.8145 17.3937 18.3567C17.2165 18.209 17.0393 18.1204 16.8473 18.3567C16.6553 18.593 16.8768 18.6816 16.995 18.7849C17.3198 19.095 17.3789 19.4199 17.0983 19.7743C16.7882 20.1878 16.4781 20.5865 16.168 20.9852C16.0499 21.1329 15.9613 21.1624 15.7988 21.0295C15.2524 20.5865 14.6913 20.1435 14.1301 19.7153C13.9677 19.5824 13.9381 19.479 14.0858 19.3165C14.455 18.8735 14.7946 18.4157 15.1491 17.9727C15.6659 17.3377 15.8431 17.2934 16.611 17.6183C16.7439 17.6774 16.8768 17.7955 17.0097 17.6183C17.1279 17.4411 17.0393 17.3082 16.8916 17.1901C16.611 16.9686 16.3157 16.7618 16.0499 16.5108C15.7397 16.2154 15.5182 16.245 15.2524 16.5846C14.1892 17.958 13.1112 19.3018 12.0479 20.6751C11.9298 20.8376 11.7674 21 11.9593 21.1772C12.1513 21.3544 12.3285 21.2215 12.4467 21.0443C12.7272 20.6456 13.0226 20.6751 13.3918 20.9557C14.8242 22.1075 16.2714 23.2298 17.7185 24.3669C18.073 24.6475 18.1173 24.9428 17.8367 25.2973C17.7038 25.4597 17.5856 25.6369 17.8071 25.7993C18.0287 25.9618 18.1616 25.7698 18.2797 25.6221C19.3872 24.2192 20.4948 22.8016 21.6171 21.3987C21.7648 21.2067 21.8091 21.0591 21.6466 20.8376C21.3513 20.4241 21.0855 19.9811 20.8049 19.5528C20.7015 19.3904 20.5982 19.2427 20.3766 19.3756C20.1699 19.4937 20.229 19.6562 20.288 19.8482C20.4505 20.2321 20.6129 20.6013 20.6129 21ZM71.3235 17.4559C69.9797 17.4559 69.1084 18.2385 69.005 19.3756C68.9755 19.7596 69.0198 20.1287 69.0789 20.4979C69.2118 21.3101 69.448 22.1075 69.5071 22.9345C69.5366 23.4071 69.389 23.8058 68.9459 24.0273C68.5029 24.2636 68.0895 24.1454 67.7203 23.8796C66.8342 23.2446 66.6127 22.0337 67.2182 21.1181C67.3216 20.9705 67.4249 20.8228 67.5283 20.6751C67.6169 20.557 67.6021 20.4684 67.5135 20.3502C67.4102 20.2321 67.2773 20.173 67.1591 20.2764C66.5094 20.8228 65.8744 21.3692 65.2394 21.9156C65.1212 22.0189 65.1508 22.1666 65.2394 22.2847C65.2985 22.3734 65.3723 22.4767 65.4904 22.4029C65.8153 22.1814 65.9039 22.4177 66.0073 22.6539C66.1106 22.8754 66.1992 23.0969 66.2879 23.3185C66.6866 24.175 67.3068 24.8247 68.2224 25.1053C69.9206 25.6074 71.3382 24.2783 71.0724 22.462C70.9248 21.4726 70.5851 20.5275 70.5113 19.5381C70.4817 19.095 70.5999 18.7259 71.0281 18.5339C71.4564 18.3419 71.8551 18.4453 72.2095 18.7259C72.8297 19.2279 73.0365 20.1878 72.6673 20.8966C72.5344 21.1624 72.3424 21.4135 72.18 21.6498C72.1061 21.7679 72.0028 21.8565 72.1357 22.0042C72.2686 22.1371 72.431 22.1814 72.5787 22.0632C73.1989 21.5464 73.8191 21 74.4246 20.4684C74.5427 20.365 74.5723 20.2321 74.4837 20.0992C74.4098 19.9958 74.336 19.8777 74.1588 19.9663C73.893 20.0992 73.7896 19.9515 73.701 19.7153C73.6124 19.4494 73.509 19.1836 73.3761 18.9326C72.9036 18.017 72.18 17.4706 71.3235 17.4559ZM45.7467 74.029C46.1897 73.9109 46.2931 74.2801 46.3521 74.6492C46.6623 76.4951 46.9428 78.3263 47.2382 80.1722C47.312 80.6004 47.1643 80.881 46.7213 80.9548C46.5294 80.9844 46.3521 81.0582 46.4112 81.2945C46.4703 81.5307 46.677 81.5012 46.8542 81.4717C48.5082 81.2059 50.1621 80.9548 51.8012 80.689C51.9637 80.6595 52.1261 80.63 52.1704 80.4232C52.259 79.8325 52.3476 79.2271 52.4215 78.6364C52.4362 78.5182 52.4215 78.3853 52.259 78.3558C52.1113 78.3263 51.9932 78.3706 51.9341 78.5182C51.816 78.8136 51.6831 79.0942 51.565 79.3895C51.4173 79.7144 51.181 79.9802 50.8118 80.054C50.2064 80.1722 49.6009 80.2608 48.9807 80.3494C48.7444 80.3937 48.6263 80.3051 48.582 80.054C48.4786 79.419 48.3605 78.784 48.2571 78.1343C48.139 77.3812 48.139 77.3812 48.9216 77.2483C49.0988 77.2187 49.276 77.1892 49.4533 77.1597C50.1916 77.0267 50.3245 77.1154 50.5756 77.7799C50.6346 77.9276 50.6346 78.1195 50.8857 78.0752C51.1367 78.0309 51.1367 77.8537 51.1072 77.6617C50.989 76.9234 50.8709 76.1702 50.7528 75.4319C50.7232 75.2399 50.6494 75.0775 50.3983 75.107C50.1473 75.1513 50.2211 75.3433 50.2211 75.491C50.2211 76.0669 50.103 76.2441 49.5419 76.3622C49.1431 76.4508 48.7444 76.4804 48.3457 76.569C48.1094 76.6133 48.0061 76.5542 47.9765 76.3179C47.8732 75.6239 47.7698 74.915 47.6517 74.221C47.6074 73.9552 47.7107 73.8666 47.947 73.837C48.39 73.778 48.833 73.6894 49.2908 73.6303C50.2654 73.4974 50.2654 73.4974 50.7085 74.3834C50.7675 74.5016 50.7823 74.664 50.9743 74.6197C51.1662 74.5754 51.1958 74.4277 51.1662 74.2653C51.1072 73.8666 51.0186 73.4678 50.9743 73.0691C50.9447 72.7 50.7675 72.6409 50.4279 72.6852C48.8183 72.951 47.2234 73.202 45.6138 73.4531C45.4218 73.4826 45.1855 73.4974 45.2003 73.7632C45.2298 74.1028 45.4661 74.0438 45.7467 74.029ZM23.7436 16.688C23.7288 16.5108 23.8469 16.4369 23.9651 16.3631C24.29 16.1564 24.6148 15.9349 24.9545 15.7133C25.3237 15.4771 25.7076 15.0341 26.0472 15.0636C26.4607 15.1079 26.8594 15.5361 27.2434 15.8167C27.7012 16.1564 27.7012 16.245 27.3025 16.6437C27.1991 16.7618 27.081 16.8504 27.2139 17.0129C27.332 17.1605 27.4797 17.2048 27.6421 17.1015C27.775 17.0129 27.9227 16.9243 28.0556 16.8357C28.6906 16.4222 29.3108 16.0087 29.9458 15.5952C30.0935 15.4918 30.1968 15.3737 30.0639 15.1817C29.9901 15.0636 29.9163 14.9455 29.7538 15.0488C29.296 15.3442 28.8973 15.1522 28.4986 14.8864C27.0366 13.8822 25.5599 12.878 24.098 11.8886C23.5221 11.5047 22.9609 11.106 22.385 10.7073C22.2521 10.6187 22.1339 10.5744 21.9715 10.6925C21.8238 10.7959 21.8238 10.8992 21.8534 11.0469C21.8977 11.298 21.942 11.549 21.9863 11.8C22.3997 14.0447 22.8132 16.304 23.2119 18.5486C23.271 18.8735 23.2415 19.1836 22.9904 19.4347C22.8723 19.5676 22.6951 19.6857 22.8871 19.8925C23.0643 20.0844 23.2415 20.0106 23.4039 19.8925C23.9208 19.5528 24.4376 19.2132 24.9545 18.8735C25.1464 18.7554 25.368 18.6373 25.1908 18.3419C25.0135 18.0318 24.8363 18.2828 24.6591 18.3419C24.3933 18.4453 24.1423 18.5339 24.0537 18.1647C23.9503 17.6922 23.8469 17.1901 23.7436 16.688ZM61.7543 75.9487C61.6805 75.3876 61.6067 74.856 61.5328 74.3096C61.5181 74.1619 61.4442 74.0438 61.2818 74.0585C61.1489 74.0733 61.0307 74.1471 61.016 74.3096C61.0012 74.4573 61.0012 74.6049 60.9864 74.7674C60.9421 75.358 60.7354 75.8454 60.1742 76.126C59.7017 76.3622 59.2291 76.5837 58.7566 76.8348C58.476 76.9824 58.3136 76.8938 58.1954 76.628C57.8853 75.993 57.59 75.3581 57.2651 74.7231C57.1617 74.5311 57.1913 74.4277 57.398 74.3391C57.782 74.1619 58.1659 73.9847 58.5351 73.7927C58.9486 73.586 59.2734 73.6303 59.5392 74.0438C59.6279 74.1767 59.7165 74.3982 59.9527 74.2357C60.1742 74.1028 60.1004 73.9404 60.0118 73.7632C59.7164 73.1725 59.4211 72.5818 59.1405 71.9764C59.0519 71.7992 58.9486 71.6663 58.7271 71.7401C58.4465 71.8435 58.5794 72.0354 58.6384 72.1831C58.8009 72.5966 58.6532 72.8919 58.284 73.0839C57.8853 73.2906 57.4718 73.4826 57.0731 73.7041C56.8812 73.8075 56.7925 73.778 56.6892 73.586C56.4086 72.9953 56.128 72.4194 55.8327 71.8435C55.7293 71.6515 55.7588 71.5481 55.9508 71.4595C56.3938 71.2528 56.8221 71.046 57.2503 70.8245C58.1068 70.411 58.1216 70.411 58.8009 71.0756C58.8895 71.1642 58.9633 71.2971 59.1405 71.1789C59.2734 71.0756 59.2882 70.9722 59.2144 70.8245C59.0372 70.4701 58.86 70.1009 58.668 69.7318C58.5646 69.525 58.4169 69.4512 58.1954 69.5693C56.6744 70.3224 55.1386 71.0608 53.6176 71.8139C53.4699 71.8878 53.3075 71.9911 53.3961 72.1979C53.4847 72.3898 53.6619 72.3899 53.8096 72.3013C54.2674 72.0207 54.5332 72.2274 54.7251 72.6409C55.4487 74.1471 56.1723 75.6386 56.9402 77.1301C57.1617 77.5584 57.0731 77.839 56.6744 78.0605C56.512 78.1491 56.3643 78.2377 56.4677 78.4444C56.5858 78.6659 56.763 78.5921 56.9255 78.5035C58.4465 77.7504 59.9675 76.9972 61.5033 76.2441C61.6657 76.1998 61.7986 76.126 61.7543 75.9487ZM14.6765 67.0737C14.8242 67.0589 14.9718 67.0589 15.1343 67.0441C15.282 67.0294 15.4296 67.0146 15.4296 66.7931C15.4149 66.6011 15.3558 66.483 15.1491 66.483C14.898 66.483 14.6322 66.4534 14.3812 66.4239C12.7272 66.2762 11.5902 64.4008 12.2399 62.8798C12.8011 61.5655 14.8389 60.2512 16.2566 60.266C17.6152 60.2955 18.7375 61.6541 18.5012 62.9831C18.4126 63.4852 18.1616 63.9135 17.8662 64.327C17.7776 64.4599 17.6152 64.578 17.8071 64.7552C17.9844 64.9176 18.132 64.8438 18.2797 64.7257C18.8704 64.2531 19.4463 63.7806 20.037 63.308C20.1256 63.2342 20.3028 63.1751 20.1994 62.9979C20.1108 62.8502 20.0222 62.7173 19.8155 62.7764C19.4168 62.9093 19.3282 62.6878 19.2691 62.3482C19.1067 61.2406 18.516 60.3989 17.6152 59.7639C15.6068 58.361 12.6977 59.1141 11.3834 61.3735C10.6598 62.6287 10.6746 63.8987 11.3982 65.1539C12.107 66.3944 13.185 67.0737 14.6765 67.0737ZM33.5638 74.0585C33.549 74.1914 33.5342 74.3244 33.7114 74.3834C33.8739 74.4277 33.9772 74.3391 34.0363 74.2062C34.2283 73.8223 34.3907 73.4383 34.5975 73.0691C34.7599 72.759 34.6861 72.5818 34.3759 72.4342C32.8549 71.7106 31.3487 70.9722 29.8277 70.2486C29.6504 70.16 29.4142 69.9976 29.2665 70.2634C29.1188 70.5144 29.3403 70.6326 29.5323 70.7359C29.8424 70.9131 30.0196 71.1346 29.8424 71.5038C29.0007 73.2316 28.1737 74.9741 27.332 76.7019C27.1548 77.0711 26.889 77.2187 26.4903 77.012C26.2983 76.9086 26.0768 76.8348 25.9586 77.1154C25.8553 77.3812 26.0915 77.455 26.2688 77.5288C27.0514 77.9128 27.8341 78.282 28.6315 78.6659C28.8235 78.7545 29.0598 78.9317 29.2222 78.6511C29.3699 78.3853 29.1041 78.2967 28.9416 78.1786C28.5724 77.9571 28.4543 77.6913 28.6758 77.2778C28.8973 76.8791 29.0598 76.4656 29.2517 76.0521C29.7833 74.9298 29.7833 74.9298 30.9057 75.5353C31.393 75.7863 31.4668 75.9635 31.3044 76.4804C31.2453 76.6576 31.0829 76.8495 31.3782 76.9677C31.6588 77.0711 31.7474 76.8643 31.8508 76.6723C32.1461 76.0669 32.4414 75.4467 32.7368 74.8412C32.8254 74.6492 32.9288 74.4573 32.6777 74.2948C32.3971 74.1176 32.3381 74.3834 32.2347 74.5163C31.9689 74.9003 31.644 75.0036 31.2305 74.7674C30.95 74.6197 30.6694 74.4868 30.374 74.3539C30.1673 74.2653 30.1525 74.1619 30.2559 73.9699C30.5808 73.335 30.8761 72.7 31.1715 72.065C31.2748 71.8435 31.3782 71.8287 31.5849 71.9321C31.9394 72.124 32.3085 72.3012 32.6777 72.4637C33.3718 72.7886 33.8148 73.2316 33.5638 74.0585ZM37.4771 73.3202C37.2703 73.3792 36.9159 73.1282 36.8421 73.5122C36.7682 73.9256 37.1669 73.8223 37.3737 73.8813C37.6838 73.9847 37.861 74.1471 37.8315 74.5016C37.669 76.3475 37.5066 78.1934 37.3294 80.0245C37.2703 80.6743 37.2113 80.689 36.5763 80.7038C36.3695 80.7038 36.1923 80.7481 36.1923 80.9844C36.1775 81.1911 36.3548 81.2502 36.532 81.2649C37.4623 81.3388 38.3926 81.4274 39.323 81.5012C39.5149 81.516 39.7512 81.5455 39.7807 81.2797C39.825 80.9991 39.5888 80.9991 39.3968 80.9548C38.8504 80.8367 38.747 80.7038 38.7766 80.1574C38.8061 79.6553 38.8652 79.168 38.9095 78.6807C39.0128 77.706 39.0128 77.706 40.0023 77.8094C40.844 77.898 40.8587 77.898 40.9621 78.725C40.9916 78.9317 41.0802 78.976 41.2575 78.9908C41.4199 79.0056 41.5085 78.9317 41.5233 78.7545C41.5823 77.9718 41.6562 77.1892 41.7152 76.4213C41.73 76.2293 41.6562 76.1112 41.4494 76.0669C41.2427 76.0226 41.2132 76.1702 41.1541 76.3179C40.903 77.012 40.8144 77.0711 40.0613 76.9972C39.825 76.9824 39.5888 76.9529 39.3377 76.9381C39.131 76.9234 39.0572 76.8348 39.0867 76.6133C39.1605 75.934 39.2048 75.2695 39.2491 74.5902C39.2639 74.3244 39.3377 74.2062 39.6331 74.2653C39.9579 74.3244 40.2976 74.3539 40.6225 74.3539C41.4642 74.3539 42.0992 74.6049 42.2321 75.5648C42.2469 75.742 42.3798 75.7715 42.5274 75.7715C42.6899 75.7715 42.7046 75.6534 42.7194 75.5205C42.7489 75.0922 42.7785 74.6492 42.8228 74.221C42.8523 73.8961 42.7194 73.778 42.3945 73.7484C40.7554 73.6155 39.131 73.4678 37.4771 73.3202ZM34.3464 13.3211C34.0511 13.3063 33.9182 13.1143 33.8296 12.9076C33.165 11.0764 32.5005 9.23055 31.836 7.39941C31.7917 7.28128 31.7622 7.19267 31.9098 7.10407C32.7663 6.54292 33.5047 6.64629 34.1249 7.44372C34.1987 7.54709 34.2578 7.69476 34.435 7.60616C34.5975 7.51755 34.627 7.36988 34.5679 7.22221C34.4055 6.74966 34.2283 6.29187 34.0658 5.81932C33.9772 5.59782 33.8443 5.52398 33.6081 5.61258C31.7179 6.29187 29.8129 6.97117 27.9227 7.65046C27.7012 7.72429 27.6273 7.87196 27.7012 8.10824C27.8636 8.55126 28.0113 8.97951 28.1737 9.42252C28.2328 9.6145 28.3362 9.7474 28.5577 9.7031C28.8235 9.64403 28.7496 9.45205 28.7349 9.27485C28.6758 8.44789 28.7792 8.27068 29.5618 7.9458C29.7095 7.88673 29.872 7.84243 30.0196 7.76859C30.2707 7.63569 30.4036 7.69476 30.5069 7.97534C31.1124 9.71786 31.7474 11.4604 32.3528 13.2029C32.5891 13.8674 32.5743 13.897 31.9541 14.2071C31.7917 14.2957 31.644 14.3695 31.7179 14.5763C31.7917 14.7978 31.9837 14.7978 32.1609 14.7239C32.6334 14.5615 33.0912 14.3843 33.5638 14.2219C34.0068 14.0594 34.4498 13.9117 34.878 13.7493C35.0405 13.6902 35.1734 13.5721 35.1143 13.3654C35.0552 13.1586 34.878 13.1734 34.7008 13.2177C34.5827 13.2472 34.4498 13.2915 34.3464 13.3211ZM72.0914 67.561C72.1061 67.2066 72.0175 66.8078 71.9142 66.4091C71.8699 66.2467 71.8256 66.1138 71.6188 66.1729C71.4121 66.2172 71.3678 66.3353 71.3973 66.5273C71.4416 66.7783 71.4711 67.0294 71.4859 67.2952C71.6188 68.9786 69.8467 70.3077 68.2814 69.6579C67.0853 69.1558 66.214 68.2698 65.7119 67.0589C65.3871 66.2762 65.52 65.5231 66.0959 64.8733C66.6866 64.2088 67.4249 63.9578 68.2962 64.2088C68.5177 64.2679 68.7244 64.3565 68.9312 64.4303C69.0641 64.4746 69.197 64.5928 69.3299 64.4008C69.448 64.2088 69.3447 64.0907 69.197 63.9873C68.6654 63.5443 68.119 63.1161 67.5874 62.673C67.4988 62.5992 67.4102 62.4663 67.2773 62.5844C67.1591 62.6878 67.041 62.7912 67.1296 62.9684C67.3363 63.3228 67.1296 63.4409 66.8342 63.5591C66.214 63.7953 65.6972 64.1793 65.2985 64.7109C63.7331 66.8078 64.7373 69.8499 67.3216 70.8098C69.5809 71.6367 72.1061 69.9385 72.0914 67.561ZM69.005 14.3548C68.9903 14.2071 68.8869 14.1185 68.7835 14.0299C68.0599 13.4097 67.3511 12.8042 66.6275 12.184C66.4798 12.0511 66.3174 11.8886 66.1254 12.0806C65.9039 12.2874 66.0811 12.4498 66.2288 12.6122C66.657 13.1143 66.6718 13.1291 66.2436 13.6312C65.0326 15.0636 63.807 16.496 62.5813 17.9137C62.1826 18.3862 62.0644 18.3714 61.5624 18.0318C61.3851 17.9137 61.2227 17.7955 61.0603 18.0023C60.8978 18.209 61.0603 18.3567 61.2227 18.4896C61.9463 19.1098 62.6551 19.73 63.3787 20.3355C63.5264 20.4684 63.6888 20.6308 63.8808 20.4241C64.0875 20.2026 63.9103 20.0549 63.7627 19.8925C63.3492 19.4199 63.3344 19.3608 63.7479 18.8735C64.8997 17.5149 66.0516 16.1711 67.2034 14.8273C67.7793 14.1628 67.7793 14.1628 68.5472 14.5763C68.754 14.6944 69.005 14.5763 69.005 14.3548ZM74.8971 61.7132C74.8824 60.2512 73.5238 58.9665 72.0175 58.9812C70.6294 58.996 69.6105 60.0888 69.5957 61.595C69.5809 62.8502 71.0281 64.1498 72.4458 64.1498C73.8191 64.1498 74.8971 63.057 74.8971 61.7132ZM74.144 65.907C74.3064 65.848 74.3507 65.7151 74.4246 65.6117C75.2811 64.2827 76.1376 62.9684 76.9793 61.6393C77.0531 61.5212 77.2451 61.3883 77.0236 61.2258C76.7726 61.0634 76.743 61.3144 76.6692 61.4326C75.9751 62.4958 75.2811 63.5738 74.6018 64.6518C74.4098 64.9472 74.2031 65.2573 74.0259 65.5674C73.9816 65.6412 73.9077 65.7151 73.9816 65.8037C74.0259 65.848 74.0997 65.8775 74.144 65.907ZM78.6628 58.0657C78.648 57.4454 78.1902 56.9581 77.5995 56.9581C76.935 56.9581 76.3886 57.5636 76.4034 58.2724C76.4182 58.8926 76.8759 59.3947 77.4666 59.3799C78.1016 59.3799 78.6775 58.7597 78.6628 58.0657Z" fill="#242021"/>
<path d="M42.9705 71.43C27.3025 71.4152 14.6027 58.6859 14.6027 43.0179C14.6174 27.3499 27.3468 14.6353 43.0295 14.6501C58.7123 14.6649 71.4268 27.409 71.3973 43.1213C71.3678 58.7597 58.6385 71.4447 42.9705 71.43ZM70.4817 43.0179C70.4522 27.852 58.1511 15.5509 42.9852 15.5509C27.8193 15.5509 15.4739 27.911 15.4887 43.0622C15.5182 58.2281 27.8193 70.5292 42.9852 70.5292C58.1659 70.5292 70.5113 58.169 70.4817 43.0179Z" fill="#FEFEFE"/>
<path d="M11.7969 45.6169C11.7526 46.1928 11.7083 46.8278 11.6049 47.4481C11.4573 48.2455 11.0438 48.8657 10.4383 49.3678C9.61135 50.0619 7.9722 49.9733 7.10093 49.1463C6.14106 48.2455 5.60945 47.1084 5.32887 45.8237C4.88585 43.8301 5.37317 42.0285 6.33304 40.3007C6.55455 39.902 6.87942 39.5771 7.23384 39.3113C7.55872 39.0751 7.9279 38.8979 8.32661 38.9422C8.81393 38.9865 9.24218 39.267 9.71473 39.3852C10.2463 39.5181 10.4974 40.0497 10.7189 40.537C11.4573 42.1023 11.8412 43.8892 11.7969 45.6169ZM9.52274 40.0792C9.47844 40.537 9.316 40.98 9.47844 41.423C9.62611 41.866 9.61134 42.3091 9.53751 42.7521C9.316 44.1845 9.2274 45.6317 9.56704 47.0641C9.65564 47.4776 9.72948 47.8911 9.61134 48.3193C9.58181 48.4227 9.50797 48.5704 9.65564 48.6294C9.81808 48.6885 9.89192 48.5408 9.96575 48.4227C10.2168 48.024 10.1282 47.6105 9.99529 47.197C9.80332 46.6211 9.80332 46.0452 9.89192 45.4545C10.0248 44.4798 10.143 43.52 10.0987 42.5306C10.0544 41.7036 9.90669 40.8619 9.52274 40.0792Z" fill="#FEFEFE"/>
<path d="M74.9267 45.8384C74.8528 43.963 75.3992 42.2943 76.108 40.6699C76.4034 40.0054 76.8612 39.5476 77.6586 39.3852C78.1016 39.2966 78.4856 39.0898 78.9433 39.2818C79.4454 39.5033 79.7851 39.902 80.0657 40.3598C81.6457 42.885 81.4981 46.4734 79.7112 48.8362C79.1796 49.5302 78.5446 50.0471 77.5995 50.0323C76.3738 50.0176 75.4878 49.3383 75.1629 48.1569C74.9562 47.3742 74.9267 46.5768 74.9267 45.8384ZM77.1565 40.3007C77.1269 40.3746 77.0826 40.4632 77.0531 40.537C76.5953 41.7627 76.5215 43.0327 76.6101 44.3174C76.6839 45.5135 76.8907 46.7097 76.4624 47.8911C76.3295 48.2602 76.4329 48.659 76.8316 48.91C76.9645 48.7919 76.935 48.659 76.9054 48.5261C76.8316 48.1864 76.8611 47.832 76.935 47.4924C77.2894 46.0156 77.3337 44.5241 77.1122 43.0179C77.0679 42.6635 76.994 42.2943 77.1269 41.9399C77.3337 41.3935 77.2598 40.8471 77.1565 40.3007Z" fill="#FEFEFE"/>
<path d="M55.6702 12.2283C56.3791 11.5047 57.1026 10.8106 57.7672 10.0723C58.1954 9.59973 58.0625 8.22638 57.6195 7.78336C57.5161 7.66522 57.398 7.56185 57.5161 7.39941C57.6195 7.25174 57.7672 7.23698 57.9148 7.31081C58.727 7.70953 59.5392 8.09347 60.3514 8.49219C60.4991 8.56602 60.6025 8.68416 60.5286 8.86137C60.44 9.05334 60.2776 9.06811 60.1151 8.97951C59.6869 8.77277 59.5097 8.9795 59.4359 9.37822C59.1848 10.8402 59.0814 12.3317 58.9042 13.7936C59.0519 13.8231 59.0962 13.7345 59.1553 13.6755C60.1004 12.7304 61.0602 11.7853 61.9906 10.8254C62.4631 10.3529 62.4484 10.2938 61.961 9.89507C61.8429 9.7917 61.7248 9.68833 61.8134 9.52589C61.9167 9.34868 62.0496 9.33392 62.2416 9.42252C62.8175 9.7031 63.4082 9.98368 63.9841 10.2643C64.1614 10.3529 64.2647 10.4858 64.1909 10.7073C64.1023 10.9288 63.9546 10.8697 63.7922 10.8106C63.423 10.6777 63.1572 10.8845 62.9061 11.1207C61.9758 12.0363 61.0455 12.9666 60.1151 13.8822C59.3916 14.591 58.6827 15.3146 57.9591 16.0087C57.8262 16.1416 57.7229 16.3631 57.4423 16.2154C57.1617 16.0825 57.2651 15.861 57.2798 15.669C57.398 14.4581 57.5309 13.2472 57.6638 12.0363C57.6786 11.8443 57.7376 11.6671 57.6786 11.4604C57.4718 11.4604 57.398 11.6376 57.2798 11.741C56.3643 12.627 55.4635 13.513 54.5627 14.3843C54.4445 14.5024 54.3559 14.7239 54.0901 14.591C53.8096 14.4581 53.8982 14.2366 53.9129 14.0447C54.1049 12.1692 54.3116 10.3086 54.5184 8.43312C54.5627 7.96057 54.6217 7.47325 54.666 7.0007C54.6956 6.67582 54.6513 6.39524 54.3412 6.21804C54.164 6.11467 54.0754 5.95223 54.2083 5.76026C54.3264 5.58305 54.5036 5.65689 54.6513 5.73072C55.3749 6.08513 56.0837 6.42478 56.8073 6.77919C56.9845 6.86779 57.1469 6.97117 57.0583 7.19267C56.9697 7.41418 56.7925 7.39941 56.6006 7.32558C56.2018 7.16314 56.0837 7.41418 56.0394 7.73906C55.8917 8.9352 55.7588 10.1313 55.6111 11.3275C55.5816 11.6081 55.5521 11.8886 55.5225 12.184C55.5964 12.1692 55.6407 12.1988 55.6702 12.2283Z" fill="#FEFEFE"/>
<path d="M38.7027 4.80039C39.1753 4.77085 39.6331 4.75608 40.1056 4.72655C40.2976 4.71178 40.4748 4.75608 40.4896 5.00712C40.5043 5.22863 40.3419 5.25817 40.1647 5.2877C39.4706 5.40584 39.4411 5.45014 39.4559 6.12943C39.4706 6.76442 39.5002 7.39941 39.5149 8.01963C39.5149 8.27068 39.5888 8.35928 39.8546 8.34451C40.7258 8.28544 41.5971 8.25591 42.4684 8.24114C42.7342 8.24114 42.7637 8.123 42.7489 7.91626C42.7194 7.25174 42.6751 6.58721 42.6751 5.93746C42.6751 5.46491 42.4536 5.25817 41.9958 5.22863C41.7891 5.21387 41.5233 5.25817 41.538 4.93329C41.5528 4.63794 41.8186 4.66748 42.0254 4.65271C42.9409 4.60841 43.8565 4.57888 44.772 4.54934C44.9936 4.53457 45.1708 4.57888 45.1855 4.84469C45.2003 5.14003 44.9788 5.08096 44.8164 5.09573C44.2404 5.16956 44.1223 5.27294 44.1371 5.87839C44.1961 7.70952 44.27 9.55542 44.3586 11.3866C44.3881 11.9182 44.5062 12.0215 45.0526 12.0658C45.2594 12.0806 45.4956 12.0806 45.4956 12.3317C45.5104 12.627 45.2594 12.627 45.0379 12.6418C44.1371 12.6713 43.2363 12.7156 42.3355 12.7451C42.1435 12.7599 41.9072 12.7747 41.8777 12.5089C41.8481 12.1988 42.0844 12.1988 42.3059 12.184C42.7489 12.1544 42.9409 11.9182 42.9114 11.4604C42.8671 10.7368 42.8376 10.0132 42.8376 9.28961C42.8376 9.0238 42.7194 8.96474 42.4831 8.9795C41.6119 9.0238 40.7406 9.0681 39.8693 9.08287C39.6331 9.08287 39.5445 9.15671 39.5592 9.40775C39.6035 10.1166 39.6183 10.8254 39.6774 11.5342C39.7217 12.1101 39.8103 12.1988 40.3862 12.2578C40.5782 12.2726 40.8144 12.2431 40.8292 12.5236C40.8292 12.819 40.5782 12.8042 40.3714 12.819C39.4706 12.8633 38.5698 12.8928 37.669 12.9371C37.4475 12.9519 37.1965 12.9519 37.1817 12.6713C37.1669 12.4203 37.3885 12.376 37.5952 12.376C38.0382 12.3612 38.2449 12.1249 38.2302 11.6819C38.1416 9.77693 38.0677 7.85719 37.9791 5.95223C37.9644 5.59781 37.7724 5.43537 37.4328 5.42061C37.3442 5.42061 37.2556 5.40584 37.1669 5.39107C36.9897 5.36154 36.8421 5.30247 36.8568 5.08096C36.8716 4.88899 37.0193 4.84469 37.1817 4.84469C37.6838 4.84469 38.1859 4.82992 38.7027 4.80039Z" fill="#FEFEFE"/>
<path d="M70.8952 29.2253C70.91 29.2992 70.9543 29.4321 70.9838 29.565C71.0429 29.757 71.1463 29.9637 70.8804 30.0671C70.6294 30.1704 70.5408 29.9637 70.4522 29.7865C70.1273 29.0924 69.8024 28.3984 69.4628 27.7043C69.3742 27.5271 69.2856 27.3499 69.2118 27.1727C69.1527 27.025 69.1379 26.8626 69.3004 26.774C69.4776 26.6854 69.5957 26.774 69.7138 26.9217C70.1421 27.5419 70.1569 27.5566 70.8214 27.2465C72.431 26.4934 74.0259 25.7403 75.6355 24.9724C76.2262 24.6918 76.2409 24.6327 76.049 23.9977C75.9899 23.8058 75.9456 23.6286 76.1671 23.54C76.3886 23.4366 76.492 23.6138 76.5806 23.7762C76.9941 24.6475 77.4075 25.5188 77.821 26.39C77.8949 26.5525 77.9244 26.7297 77.7472 26.833C77.5552 26.9512 77.4223 26.833 77.3042 26.6558C76.9202 26.0504 76.8612 26.0356 76.2262 26.331C75.6798 26.582 75.1482 26.8478 74.587 27.0989C74.336 27.217 74.2474 27.3056 74.395 27.6009C74.779 28.3541 75.1334 29.122 75.473 29.8899C75.5764 30.1261 75.6798 30.2147 75.9456 30.0818C76.5363 29.7717 77.127 29.4911 77.7324 29.2253C78.1459 29.0481 78.2641 28.7676 78.1016 28.3688C78.0278 28.1769 77.8949 27.9406 78.1755 27.8225C78.4708 27.6896 78.5446 27.9849 78.648 28.1769C79.0172 28.9595 79.4011 29.757 79.7703 30.5396C79.8146 30.643 79.8589 30.7611 79.8737 30.8793C79.8884 31.0417 79.7555 31.1008 79.6374 31.1746C79.4602 31.2632 79.4454 31.1155 79.3864 31.0122C78.9433 30.3033 78.9286 30.2886 78.1755 30.643C76.6101 31.3813 75.0448 32.1197 73.4795 32.8581C72.8149 33.1682 72.8002 33.2272 73.0217 33.9213C73.0808 34.0985 73.0808 34.261 72.8888 34.3348C72.6968 34.4234 72.5787 34.3053 72.4901 34.1428C72.0618 33.242 71.6483 32.356 71.2201 31.4552C71.1463 31.3075 71.1463 31.1451 71.3087 31.0712C71.4859 30.9826 71.604 31.0565 71.7222 31.2189C72.1504 31.8391 72.18 31.8391 72.8445 31.5438C73.4499 31.278 74.0406 30.9679 74.6461 30.7021C74.8528 30.6135 74.9119 30.5248 74.7938 30.3033C74.4098 29.5059 74.0259 28.7085 73.6567 27.8963C73.5681 27.7043 73.4795 27.6452 73.2875 27.7486C72.5934 28.0883 71.8846 28.4279 71.1758 28.7676C71.0134 28.8119 70.8805 28.93 70.8952 29.2253Z" fill="#FEFEFE"/>
<path d="M15.8874 28.738C15.8726 29.2696 15.7397 29.9342 15.4739 30.5544C15.0161 31.6029 14.5583 32.6513 14.1006 33.685C14.012 33.877 13.9234 34.1133 13.6575 33.9951C13.3917 33.8918 13.4951 33.685 13.5837 33.4931C13.7757 33.0796 13.6428 32.799 13.2293 32.6218C11.5015 31.8539 9.759 31.1008 8.03124 30.3329C7.63252 30.1557 7.36671 30.2738 7.18951 30.6578C7.1009 30.835 7.0123 31.086 6.73172 30.9383C6.49545 30.8054 6.59882 30.5987 6.67266 30.4215C7.15997 29.3435 7.63252 28.2507 8.13461 27.1727C8.29705 26.8183 8.50379 26.4786 8.74006 26.1685C9.81807 24.6918 11.28 24.2488 13.0816 24.8395C14.8242 25.4449 15.8874 26.8478 15.8874 28.738ZM14.9275 29.3287C14.9275 28.5756 14.6026 27.8668 13.9824 27.3056C13.4508 26.8035 12.801 26.4786 12.0922 26.3014C10.3202 25.8732 8.82867 26.7887 8.41519 28.5756C8.35612 28.7971 8.38565 28.93 8.62193 29.0334C10.3645 29.7865 12.0922 30.5396 13.82 31.3223C14.0563 31.4257 14.1744 31.3813 14.3073 31.1894C14.6765 30.643 14.898 30.0671 14.9275 29.3287Z" fill="#FEFEFE"/>
<path d="M17.9696 70.5883C17.9696 68.255 19.9927 66.1876 22.2668 66.1729C24.4819 66.1729 26.1949 67.9006 26.1801 70.1452C26.1654 72.4194 24.1275 74.472 21.8829 74.4573C19.6973 74.4573 17.9696 72.7443 17.9696 70.5883ZM21.2774 73.5122C21.558 73.5269 21.8681 73.4531 22.1487 73.2906C23.6402 72.4194 24.6296 71.1494 24.984 69.4512C25.1464 68.6685 24.7625 68.004 24.1275 67.5314C23.5368 67.0737 22.8575 66.9555 22.1782 67.2952C20.5538 68.0926 19.5644 69.4216 19.21 71.1642C18.959 72.4046 19.9779 73.5269 21.2774 73.5122Z" fill="#FEFEFE"/>
<path d="M20.6129 21C20.6129 20.6013 20.4505 20.2321 20.3176 19.8777C20.2585 19.7005 20.1847 19.538 20.4062 19.4051C20.6277 19.287 20.731 19.4199 20.8344 19.5823C21.115 20.0106 21.3808 20.4536 21.6761 20.8671C21.8386 21.0886 21.7943 21.2363 21.6466 21.4282C20.5243 22.8311 19.4168 24.234 18.3092 25.6517C18.1911 25.7993 18.0582 25.9913 17.8367 25.8289C17.6152 25.6664 17.7333 25.4892 17.8662 25.3268C18.1468 24.9724 18.1025 24.677 17.7481 24.3965C16.3009 23.2594 14.8537 22.1223 13.4213 20.9852C13.0669 20.7047 12.7568 20.6751 12.4762 21.0738C12.358 21.2363 12.1808 21.3839 11.9889 21.2067C11.7821 21.0295 11.9446 20.8523 12.0775 20.7047C13.1555 19.3461 14.2335 17.9875 15.2819 16.6141C15.5478 16.2745 15.7693 16.245 16.0794 16.5403C16.3452 16.7913 16.6405 16.9981 16.9211 17.2196C17.0688 17.3377 17.1426 17.4706 17.0392 17.6478C16.9211 17.8398 16.7734 17.7069 16.6405 17.6478C15.8726 17.323 15.6954 17.3673 15.1786 18.0023C14.8242 18.4453 14.4698 18.9031 14.1153 19.3461C13.9824 19.5085 13.9972 19.6119 14.1596 19.7448C14.7208 20.173 15.2819 20.616 15.8283 21.0591C15.9908 21.192 16.0794 21.1624 16.1975 21.0148C16.5076 20.6013 16.8177 20.2026 17.1278 19.8039C17.4084 19.4347 17.3494 19.1098 17.0245 18.8144C16.9063 18.7111 16.6848 18.6225 16.8768 18.3862C17.0688 18.1647 17.246 18.2533 17.4232 18.3862C17.9991 18.844 18.575 19.3018 19.151 19.7596C19.2986 19.8777 19.3577 19.9958 19.2396 20.1878C19.1067 20.3945 18.9885 20.3207 18.8261 20.2469C18.1468 19.922 18.0434 19.9368 17.5709 20.5127C17.3051 20.8376 17.054 21.1772 16.7734 21.5021C16.6405 21.6498 16.6553 21.7384 16.8177 21.8565C17.4675 22.3438 18.1025 22.8459 18.7375 23.3627C18.8999 23.4957 19.0476 23.4957 19.1657 23.348C19.6087 22.7868 20.0518 22.2109 20.4948 21.635C20.5981 21.4282 20.6129 21.2067 20.6129 21Z" fill="#FEFEFE"/>
<path d="M71.3235 17.4559C72.18 17.4854 72.9036 18.0318 73.3761 18.9326C73.509 19.1836 73.6124 19.4494 73.701 19.7153C73.7748 19.9515 73.893 20.0992 74.1588 19.9663C74.336 19.8777 74.4098 19.9958 74.4837 20.0992C74.5723 20.2321 74.5427 20.365 74.4246 20.4684C73.8044 21 73.1989 21.5316 72.5787 22.0632C72.431 22.1814 72.2686 22.1518 72.1357 22.0042C72.0028 21.8565 72.1061 21.7679 72.18 21.6498C72.3424 21.3987 72.5344 21.1624 72.6673 20.8966C73.0365 20.1878 72.8445 19.2279 72.2095 18.7259C71.8551 18.4453 71.4564 18.3419 71.0281 18.5339C70.5999 18.7259 70.4817 19.1098 70.5113 19.5381C70.5851 20.5275 70.9248 21.4726 71.0724 22.462C71.3382 24.2783 69.9206 25.6074 68.2224 25.1053C67.3068 24.8247 66.6866 24.1897 66.2879 23.3185C66.1845 23.0969 66.0959 22.8754 66.0073 22.6539C65.9039 22.4324 65.8153 22.1961 65.4904 22.4029C65.3723 22.4767 65.2985 22.3734 65.2394 22.2847C65.1508 22.1666 65.1212 22.0189 65.2394 21.9156C65.8744 21.3544 66.5094 20.808 67.1591 20.2764C67.2773 20.173 67.4102 20.2321 67.5135 20.3502C67.6021 20.4536 67.6169 20.557 67.5283 20.6751C67.4249 20.8228 67.3216 20.9705 67.2182 21.1181C66.6127 22.0337 66.8195 23.2299 67.7203 23.8796C68.1042 24.1454 68.5029 24.2636 68.9459 24.0273C69.389 23.791 69.5366 23.4071 69.5071 22.9345C69.448 22.1075 69.2118 21.3101 69.0789 20.4979C69.0198 20.1287 68.9755 19.7596 69.005 19.3756C69.1084 18.2385 69.9797 17.4411 71.3235 17.4559Z" fill="#FEFEFE"/>
<path d="M45.7467 74.029C45.4809 74.0438 45.2298 74.1028 45.2151 73.8075C45.2003 73.5417 45.4218 73.5269 45.6286 73.4974C47.2382 73.2463 48.8478 72.9953 50.4427 72.7295C50.7823 72.6704 50.9595 72.7295 50.989 73.1134C51.0186 73.5122 51.1072 73.9109 51.181 74.3096C51.2106 74.472 51.181 74.6197 50.989 74.664C50.7971 74.7083 50.7675 74.5459 50.7232 74.4277C50.2802 73.5417 50.2802 73.5417 49.3056 73.6746C48.8626 73.7337 48.4196 73.8223 47.9618 73.8813C47.7255 73.9109 47.6221 73.9995 47.6664 74.2653C47.7846 74.9593 47.8879 75.6682 47.9913 76.3622C48.0208 76.5985 48.1242 76.6576 48.3605 76.6133C48.7592 76.5247 49.1579 76.4951 49.5566 76.4065C50.1178 76.2884 50.2507 76.1112 50.2359 75.5353C50.2359 75.3728 50.1621 75.1809 50.4131 75.1513C50.6642 75.1218 50.738 75.2842 50.7675 75.4762C50.8857 76.2146 51.0038 76.9677 51.122 77.706C51.1515 77.898 51.1367 78.0752 50.9004 78.1195C50.6494 78.1638 50.6494 77.9718 50.5903 77.8242C50.3393 77.1449 50.2064 77.071 49.468 77.2039C49.2908 77.2335 49.1136 77.263 48.9364 77.2926C48.1537 77.4255 48.1537 77.4255 48.2719 78.1786C48.3752 78.8136 48.4934 79.4486 48.5968 80.0983C48.6411 80.3494 48.7592 80.438 48.9955 80.3937C49.6009 80.2903 50.2211 80.2165 50.8266 80.0983C51.1958 80.0245 51.4321 79.7587 51.5797 79.4338C51.7126 79.1532 51.8308 78.8579 51.9489 78.5625C52.008 78.4001 52.1261 78.3706 52.2738 78.4001C52.4362 78.4296 52.451 78.5625 52.4362 78.6807C52.3624 79.2714 52.2738 79.8768 52.1852 80.4675C52.1557 80.689 51.9932 80.7038 51.816 80.7333C50.1621 80.9991 48.5082 81.2502 46.869 81.516C46.677 81.5455 46.4851 81.575 46.426 81.3388C46.3669 81.1025 46.5441 81.0287 46.7361 80.9991C47.1791 80.9105 47.3268 80.6447 47.2529 80.2165C46.9576 78.3706 46.6623 76.5394 46.3669 74.6935C46.2931 74.2948 46.1897 73.9109 45.7467 74.029Z" fill="#FEFEFE"/>
<path d="M23.7436 16.688C23.8469 17.1901 23.9503 17.6921 24.0832 18.1795C24.1718 18.5486 24.4229 18.46 24.6887 18.3567C24.8511 18.2976 25.0283 18.0318 25.2203 18.3567C25.3827 18.652 25.1612 18.7701 24.984 18.8883C24.4672 19.2279 23.9503 19.5676 23.4335 19.9072C23.2563 20.0254 23.0791 20.0992 22.9166 19.9072C22.7246 19.7005 22.9018 19.5823 23.02 19.4494C23.271 19.1984 23.3006 18.8883 23.2415 18.5634C22.828 16.3188 22.4145 14.0594 22.0158 11.8148C21.9715 11.5638 21.9272 11.3127 21.8829 11.0617C21.8534 10.914 21.8681 10.8106 22.001 10.7073C22.1487 10.6039 22.2816 10.6334 22.4145 10.722C22.9904 11.1207 23.5516 11.5047 24.1275 11.9034C25.5895 12.9076 27.0662 13.897 28.5281 14.9011C28.9269 15.167 29.3256 15.3442 29.7834 15.0636C29.9606 14.9602 30.0196 15.0783 30.0935 15.1965C30.2116 15.3885 30.123 15.5066 29.9753 15.61C29.3551 16.0234 28.7201 16.4369 28.0851 16.8504C27.9522 16.939 27.8046 17.0276 27.6716 17.1162C27.4944 17.2196 27.3615 17.1753 27.2434 17.0276C27.1105 16.8652 27.2139 16.7618 27.332 16.6584C27.7307 16.245 27.7307 16.1564 27.2729 15.8315C26.889 15.5509 26.505 15.1226 26.0768 15.0783C25.7371 15.0488 25.3532 15.4918 24.984 15.7281C24.6591 15.9348 24.3343 16.1564 23.9946 16.3779C23.8469 16.4369 23.7288 16.5108 23.7436 16.688ZM23.0643 12.9371C23.2415 13.8527 23.3744 14.6501 23.5368 15.4475C23.5664 15.5804 23.6107 15.6838 23.7731 15.5657C24.2752 15.226 24.792 14.8864 25.3532 14.5172C24.6001 13.9856 23.8912 13.4983 23.0643 12.9371Z" fill="#FEFEFE"/>
<path d="M61.7543 75.9487C61.7986 76.1259 61.6657 76.185 61.5328 76.2589C60.0118 77.012 58.4908 77.7651 56.955 78.5182C56.7925 78.6068 56.6006 78.6807 56.4972 78.4592C56.3938 78.2672 56.5415 78.1638 56.7039 78.0752C57.1026 77.8537 57.1912 77.5879 56.9697 77.1449C56.2166 75.6534 55.493 74.1471 54.7547 72.6557C54.5479 72.2422 54.2969 72.0354 53.8391 72.316C53.6767 72.4046 53.4994 72.4194 53.4256 72.2126C53.337 72.0059 53.4847 71.9025 53.6471 71.8287C55.1681 71.0756 56.7039 70.3372 58.2249 69.5841C58.4465 69.4659 58.5941 69.5398 58.6975 69.7465C58.8747 70.1157 59.0519 70.4701 59.2439 70.8393C59.3177 70.987 59.303 71.0903 59.1701 71.1937C59.0076 71.3266 58.9338 71.1789 58.8304 71.0903C58.1511 70.4258 58.1363 70.4258 57.2798 70.8393C56.8516 71.046 56.4233 71.2675 55.9803 71.4743C55.7884 71.5629 55.7588 71.6663 55.8622 71.8582C56.1575 72.4342 56.4529 73.0101 56.7187 73.6008C56.8073 73.8075 56.9107 73.8223 57.1026 73.7189C57.5014 73.5122 57.9148 73.3054 58.3135 73.0987C58.6827 72.9067 58.8304 72.6114 58.668 72.1979C58.6089 72.0502 58.4612 71.8582 58.7566 71.7549C58.9781 71.681 59.0814 71.8139 59.1701 71.9911C59.4506 72.5818 59.746 73.1873 60.0413 73.778C60.1299 73.9552 60.189 74.1176 59.9822 74.2505C59.7312 74.4129 59.6426 74.1914 59.5688 74.0585C59.3177 73.6451 58.9781 73.6008 58.5646 73.8075C58.1954 73.9995 57.8115 74.1767 57.4275 74.3539C57.2355 74.4425 57.206 74.5311 57.2946 74.7378C57.6195 75.3728 57.9296 76.0078 58.2249 76.6428C58.3578 76.9086 58.5055 76.9972 58.7861 76.8495C59.2439 76.5985 59.7312 76.377 60.2038 76.1407C60.7649 75.8601 60.9716 75.3581 61.0159 74.7821C61.0307 74.6345 61.0307 74.4868 61.0455 74.3243C61.0602 74.1619 61.1784 74.0733 61.3113 74.0733C61.4737 74.0585 61.5476 74.1767 61.5623 74.3243C61.6066 74.856 61.6805 75.3876 61.7543 75.9487Z" fill="#FEFEFE"/>
<path d="M14.6765 67.0737C13.1998 67.0737 12.1218 66.3796 11.3982 65.1244C10.6894 63.8692 10.6598 62.614 11.3834 61.344C12.6977 59.0846 15.5921 58.3315 17.6152 59.7343C18.516 60.3693 19.1067 61.2111 19.2691 62.3186C19.3282 62.6582 19.4168 62.8798 19.8155 62.7469C20.0222 62.673 20.1108 62.8207 20.1994 62.9684C20.3028 63.1456 20.1404 63.2046 20.037 63.2785C19.4611 63.751 18.8704 64.2236 18.2797 64.6961C18.132 64.8143 17.9844 64.8881 17.8071 64.7257C17.6152 64.5484 17.7776 64.4303 17.8662 64.2974C18.1468 63.8839 18.3978 63.4557 18.5012 62.9536C18.7375 61.6245 17.6152 60.266 16.2566 60.2364C14.8242 60.2069 12.8011 61.5359 12.2399 62.8502C11.5902 64.3713 12.7272 66.2467 14.3812 66.3944C14.6322 66.4239 14.898 66.4387 15.149 66.4534C15.3706 66.4534 15.4296 66.5716 15.4296 66.7635C15.4444 66.985 15.282 66.9998 15.1343 67.0146C14.9718 67.0736 14.8242 67.0737 14.6765 67.0737Z" fill="#FEFEFE"/>
<path d="M33.5638 74.0585C33.8 73.2168 33.3717 72.7738 32.6629 72.4785C32.2937 72.316 31.9246 72.1388 31.5702 71.9469C31.3634 71.8287 31.26 71.8583 31.1567 72.0798C30.8613 72.7295 30.5512 73.3645 30.2411 73.9847C30.1377 74.1767 30.1525 74.2801 30.3592 74.3687C30.6546 74.4868 30.9352 74.6345 31.2157 74.7822C31.644 75.0184 31.9541 74.9151 32.2199 74.5311C32.3085 74.3982 32.3823 74.1324 32.6629 74.3096C32.914 74.472 32.8254 74.664 32.722 74.856C32.4266 75.4614 32.1461 76.0817 31.836 76.6871C31.7474 76.8791 31.6588 77.0858 31.3634 76.9825C31.0681 76.8643 31.2305 76.6724 31.2896 76.4951C31.452 75.9783 31.3782 75.8159 30.8909 75.5501C29.7833 74.9594 29.7833 74.9594 29.2369 76.0669C29.045 76.4804 28.8825 76.8939 28.661 77.2926C28.4247 77.7061 28.5576 77.9719 28.9268 78.1934C29.104 78.2967 29.3698 78.3854 29.2074 78.6659C29.045 78.9465 28.8235 78.7693 28.6167 78.6807C27.8341 78.3115 27.0366 77.9276 26.254 77.5436C26.0915 77.455 25.8405 77.3959 25.9438 77.1301C26.0472 76.8496 26.2687 76.9234 26.4755 77.0268C26.8742 77.2335 27.14 77.1006 27.3172 76.7167C28.1589 74.9889 28.9859 73.2464 29.8276 71.5186C30.0048 71.1347 29.8276 70.9132 29.5175 70.7507C29.3255 70.6473 29.104 70.5292 29.2517 70.2782C29.3994 70.0124 29.6209 70.1748 29.8129 70.2634C31.3339 70.987 32.8401 71.7253 34.3612 72.4489C34.6713 72.5966 34.7599 72.7738 34.5827 73.0839C34.3759 73.4531 34.2135 73.8371 34.0215 74.221C33.9624 74.3539 33.8591 74.4425 33.6966 74.3982C33.5342 74.3391 33.5638 74.1914 33.5638 74.0585Z" fill="#FEFEFE"/>
<path d="M37.4771 73.3202C39.131 73.4678 40.7554 73.6155 42.3945 73.7484C42.7194 73.778 42.8523 73.8961 42.8228 74.221C42.7785 74.6492 42.7489 75.0922 42.7194 75.5205C42.7046 75.6386 42.6899 75.7715 42.5274 75.7715C42.3798 75.7715 42.2616 75.742 42.2321 75.5648C42.114 74.6049 41.479 74.3539 40.6225 74.3539C40.2976 74.3539 39.9579 74.3244 39.6331 74.2653C39.3377 74.2062 39.2639 74.3244 39.2491 74.5902C39.2048 75.2695 39.1458 75.934 39.0867 76.6133C39.0572 76.8348 39.131 76.9234 39.3377 76.9381C39.574 76.9529 39.8103 76.9825 40.0613 76.9972C40.8144 77.0563 40.903 77.012 41.1541 76.3179C41.2132 76.1702 41.2427 76.0226 41.4494 76.0669C41.6562 76.1112 41.73 76.2146 41.7152 76.4213C41.6562 77.204 41.5823 77.9866 41.5233 78.7545C41.5085 78.9169 41.4199 78.9908 41.2575 78.9908C41.095 78.976 40.9916 78.9317 40.9621 78.725C40.844 77.898 40.844 77.898 40.0023 77.8094C39.0128 77.706 39.0128 77.706 38.9095 78.6807C38.8652 79.168 38.8061 79.6701 38.7766 80.1574C38.7323 80.7038 38.8504 80.8515 39.3968 80.9548C39.5888 80.9991 39.825 80.9991 39.7807 81.2797C39.7512 81.5455 39.5149 81.516 39.323 81.5012C38.3926 81.4274 37.4623 81.3388 36.532 81.2649C36.3548 81.2502 36.1775 81.1911 36.1923 80.9844C36.2071 80.7629 36.3695 80.7186 36.5763 80.7038C37.2113 80.689 37.2703 80.6743 37.3294 80.0245C37.5066 78.1786 37.6543 76.3327 37.8315 74.5016C37.861 74.1471 37.6986 73.9847 37.3737 73.8813C37.1669 73.8075 36.7682 73.9256 36.8421 73.5122C36.9159 73.143 37.2703 73.3792 37.4771 73.3202Z" fill="#FEFEFE"/>
<path d="M34.3464 13.3211C34.4498 13.2915 34.5827 13.262 34.7156 13.2177C34.8928 13.1734 35.07 13.1586 35.129 13.3654C35.1881 13.5573 35.0552 13.6755 34.8928 13.7493C34.4497 13.9117 34.0215 14.0594 33.5785 14.2219C33.1059 14.3843 32.6481 14.5615 32.1756 14.7239C31.9836 14.783 31.8064 14.7978 31.7326 14.5763C31.6587 14.3695 31.8064 14.2957 31.9689 14.2071C32.5891 13.897 32.6039 13.8674 32.3676 13.2029C31.7621 11.4604 31.1271 9.71786 30.5217 7.97533C30.4183 7.69475 30.3002 7.63568 30.0344 7.76859C29.8867 7.84242 29.7242 7.88673 29.5766 7.9458C28.7939 8.27068 28.6905 8.44788 28.7496 9.27484C28.7644 9.45205 28.8382 9.64402 28.5724 9.70309C28.3361 9.74739 28.2475 9.59972 28.1885 9.42252C28.0408 8.9795 27.8783 8.53648 27.7159 8.10823C27.6273 7.87196 27.7011 7.73906 27.9374 7.65045C29.8276 6.97116 31.7326 6.29187 33.6228 5.61258C33.8591 5.52398 33.992 5.59781 34.0806 5.81932C34.243 6.29187 34.4202 6.74965 34.5827 7.2222C34.6417 7.38464 34.6122 7.53231 34.4497 7.60615C34.2725 7.69475 34.2135 7.54708 34.1396 7.44371C33.5194 6.64628 32.7811 6.54291 31.9246 7.10406C31.7769 7.19267 31.8064 7.29604 31.8507 7.39941C32.5152 9.23054 33.1798 11.0764 33.8443 12.9076C33.9181 13.1143 34.0511 13.3063 34.3464 13.3211Z" fill="#FEFEFE"/>
<path d="M72.0914 67.561C72.0914 69.9385 69.5662 71.6367 67.3363 70.8097C64.7521 69.8499 63.7479 66.8078 65.3132 64.7109C65.7119 64.1793 66.2288 63.7953 66.849 63.5591C67.1444 63.4557 67.3511 63.3228 67.1444 62.9684C67.041 62.7912 67.1739 62.6878 67.292 62.5844C67.4249 62.4663 67.5135 62.5992 67.6021 62.673C68.1485 63.1013 68.6801 63.5443 69.2118 63.9873C69.3447 64.0907 69.4628 64.2088 69.3447 64.4008C69.2265 64.5928 69.0936 64.4894 68.946 64.4303C68.7392 64.3565 68.5177 64.2679 68.311 64.2088C67.4397 63.9578 66.7013 64.2088 66.1107 64.8733C65.5347 65.5231 65.4018 66.2762 65.7267 67.0589C66.2288 68.255 67.1001 69.1558 68.2962 69.6579C69.8615 70.3077 71.6188 68.9786 71.5007 67.2951C71.4859 67.0441 71.4564 66.7783 71.4121 66.5273C71.3825 66.3353 71.4268 66.2171 71.6336 66.1728C71.8551 66.1138 71.8846 66.2467 71.9289 66.4091C72.0175 66.8078 72.1061 67.2066 72.0914 67.561Z" fill="#FEFEFE"/>
<path d="M69.005 14.3548C69.005 14.5763 68.754 14.6944 68.5325 14.5763C67.7646 14.1628 67.7646 14.1628 67.1886 14.8273C66.0368 16.1711 64.8702 17.5149 63.7331 18.8735C63.3196 19.3608 63.3344 19.4347 63.7479 19.8925C63.8956 20.0549 64.0728 20.2173 63.866 20.4241C63.674 20.6161 63.5116 20.4536 63.3639 20.3355C62.6403 19.7153 61.9315 19.1098 61.2079 18.4896C61.0603 18.3567 60.883 18.209 61.0455 18.0023C61.2079 17.7808 61.3851 17.9137 61.5476 18.0318C62.0497 18.3862 62.1678 18.3862 62.5665 17.9137C63.7922 16.496 65.0179 15.0636 66.2288 13.6312C66.657 13.1291 66.6423 13.1143 66.214 12.6122C66.0811 12.4498 65.8891 12.2874 66.1106 12.0806C66.3026 11.9034 66.465 12.0658 66.6127 12.184C67.3363 12.8042 68.0451 13.4244 68.7687 14.0299C68.8869 14.1185 68.9902 14.2071 69.005 14.3548Z" fill="#FEFEFE"/>
<path d="M74.8971 61.7132C74.9119 63.057 73.8191 64.1497 72.4605 64.135C71.0281 64.135 69.5957 62.8355 69.6105 61.5803C69.6252 60.0888 70.6442 58.9812 72.0323 58.9665C73.5238 58.9665 74.8824 60.2512 74.8971 61.7132ZM72.7707 63.2933C73.5385 63.3376 73.9225 63.1013 74.1588 62.6435C74.4246 62.1266 74.3507 61.6393 74.0111 61.2111C73.4204 60.458 72.6525 60.0002 71.7222 59.7934C71.1906 59.6753 70.7771 59.8673 70.4522 60.266C70.1273 60.6795 70.0683 61.1668 70.3341 61.6098C70.9543 62.6287 71.8699 63.1604 72.7707 63.2933Z" fill="#FEFEFE"/>
<path d="M74.144 65.907C74.0849 65.8775 74.0259 65.8332 73.9668 65.7889C73.893 65.7003 73.9668 65.6117 74.0111 65.5526C74.2031 65.2425 74.395 64.9472 74.587 64.6371C75.2811 63.5591 75.9604 62.4958 76.6544 61.4178C76.7282 61.3145 76.7578 61.0486 77.0088 61.2111C77.2303 61.3735 77.0384 61.5064 76.9645 61.6246C76.1228 62.9536 75.2663 64.2827 74.4098 65.5969C74.3507 65.7151 74.3064 65.8627 74.144 65.907Z" fill="#FEFEFE"/>
<path d="M78.6628 58.0657C78.6775 58.7597 78.1016 59.3799 77.4518 59.3947C76.8611 59.3947 76.4033 58.9074 76.3886 58.2872C76.3738 57.5783 76.935 56.9729 77.5847 56.9729C78.1902 56.9581 78.648 57.4454 78.6628 58.0657ZM78.456 58.0804C78.456 57.5783 78.072 57.1649 77.6142 57.1501C77.0826 57.1353 76.5953 57.667 76.6101 58.2576C76.6248 58.7745 76.994 59.1584 77.4813 59.1584C77.9982 59.1584 78.456 58.6711 78.456 58.0804Z" fill="#FEFEFE"/>
<path d="M70.4817 43.0179C70.5113 58.169 58.1511 70.5292 42.9852 70.5292C27.8341 70.5292 15.5182 58.2281 15.4887 43.0622C15.4592 27.911 27.8193 15.5509 42.9852 15.5509C58.1511 15.5509 70.467 27.852 70.4817 43.0179ZM43.8269 17.8103C42.4093 17.7808 41.3018 17.8841 40.1942 18.017C37.8905 18.2976 36.0594 19.3608 34.5975 21.1329C32.4119 23.791 31.5849 26.833 31.8803 30.2295C32.0132 31.7801 32.3971 33.2863 32.7516 34.7926C32.914 35.5014 32.8845 35.9149 32.1756 36.2988C31.393 36.7123 31.3339 37.5245 31.9098 38.2038C32.5153 38.9126 33.165 39.5919 33.8 40.2712C34.1692 40.6699 34.4645 40.6551 34.8337 40.2564C35.1586 39.902 35.5278 39.6362 36.0003 39.5328C37.0636 39.2966 37.7429 39.7248 37.9496 40.788C38.0087 41.0982 38.0087 41.423 38.0234 41.7332C38.053 42.7521 38.0825 43.7858 38.0973 44.8047C38.112 45.4397 38.4074 45.927 38.8504 46.3405C38.9242 46.3996 38.9981 46.5177 39.1162 46.4587C39.2048 46.4143 39.1753 46.2962 39.1901 46.2076C39.2344 45.8827 39.2639 45.5431 39.3082 45.2182C39.3377 44.9967 39.4263 44.7457 39.6626 44.7604C39.9432 44.7752 39.8989 45.0558 39.8989 45.2625C39.8841 45.676 39.8693 46.0747 39.8398 46.4734C39.8103 46.8131 40.0761 46.7983 40.2976 46.8426C40.5634 46.9017 40.5486 46.6949 40.5634 46.5325C40.6077 46.0895 40.6372 45.6317 40.6815 45.1887C40.6963 45.0115 40.7406 44.7752 40.9473 44.7752C41.1689 44.79 41.2279 45.0115 41.2132 45.233C41.1836 45.7055 41.1689 46.1633 41.1393 46.6359C41.1246 46.8721 41.1541 47.0346 41.4347 46.9903C41.6709 46.946 42.0401 47.1675 42.0697 46.6654C42.0992 46.1781 42.1583 45.7055 42.2173 45.233C42.2469 45.041 42.3502 44.8195 42.5274 44.8343C42.7342 44.849 42.7342 45.1001 42.7342 45.2773C42.7194 45.7351 42.7194 46.1781 42.6751 46.6359C42.6308 47.0346 42.9114 46.9903 43.1329 46.9903C43.3544 46.9903 43.635 47.0346 43.6054 46.6359C43.5759 46.2371 43.5907 45.8237 43.6202 45.4249C43.635 45.233 43.6793 44.9376 43.9303 44.9524C44.1518 44.9672 44.2109 45.233 44.2109 45.4545C44.2109 45.5726 44.2109 45.6908 44.2109 45.8089C44.2109 46.0895 44.1961 46.3848 44.2109 46.6654C44.2257 47.1675 44.6391 46.9607 44.8902 47.005C45.1412 47.0641 45.2151 46.9312 45.2151 46.6802C45.2003 46.2371 45.2298 45.8089 45.2446 45.3659C45.2594 45.1739 45.2889 44.9376 45.4956 44.9376C45.7172 44.9229 45.791 45.1887 45.8058 45.3659C45.8353 45.7646 45.8205 46.1781 45.8205 46.5916C45.8205 46.8278 45.8205 47.0641 46.1306 47.0789C46.485 47.0936 46.4407 46.8131 46.4555 46.6063C46.4703 46.1338 46.4555 45.676 46.4703 45.2034C46.485 44.9819 46.5884 44.7309 46.8099 44.7457C46.9871 44.7457 47.0167 45.0115 47.0167 45.2034C47.0167 45.6908 47.0314 46.1633 47.0167 46.6506C47.0167 46.9164 47.0905 46.9607 47.3268 46.8721C47.8879 46.6802 48.2128 46.1781 48.1537 45.5726C48.1242 45.3068 48.0799 45.041 48.1094 44.7604C48.3014 43.4018 48.4934 42.0433 48.6854 40.6994C48.8183 39.7986 49.3056 39.5181 50.1768 39.8134C50.6937 39.9906 51.1515 40.286 51.5797 40.6256C51.8603 40.8471 52.1704 40.921 52.4362 40.6551C53.4699 39.651 54.2969 38.5139 54.4889 37.0372C54.5627 36.5203 54.356 36.1659 53.8539 36.033C53.3961 35.9149 53.337 35.6491 53.3813 35.2799C53.4109 35.0584 53.4256 34.8221 53.4552 34.6006C53.6619 33.3454 53.8834 32.0754 54.0754 30.8202C54.3117 29.2696 54.5332 27.7191 54.164 26.1538C53.529 23.4809 52.067 21.3249 49.9996 19.5528C49.0102 18.7111 47.8436 18.209 46.5589 17.9875C45.5252 17.8251 44.521 17.8398 43.8269 17.8103ZM56.0099 64.6666C57.1913 64.6666 57.7081 64.3417 57.6934 63.5148C57.6934 62.8503 57.9739 62.4515 58.4908 62.1119C59.111 61.6984 59.2439 61.1372 58.919 60.458C58.6532 59.8968 58.2102 59.5719 57.5752 59.5424C56.512 59.4981 55.434 59.4538 54.3707 59.4095C53.9277 59.3947 53.5142 59.2914 53.1155 59.0846C50.7675 57.8885 48.4343 56.6776 46.0863 55.4814C45.9682 55.4223 45.791 55.4076 45.7762 55.2451C45.7762 55.0679 45.9682 55.0384 46.1011 54.9793C48.6411 53.798 51.181 52.6166 53.7062 51.4352C54.2526 51.1842 54.7842 51.1694 55.3011 51.4943C55.7293 51.7453 56.1428 51.6862 56.5267 51.4204C57.0436 51.0513 57.3389 50.5196 57.1765 49.8994C57.0288 49.3235 57.206 48.9395 57.6195 48.5851C57.7672 48.4522 57.9001 48.3193 58.0182 48.1569C58.225 47.8763 58.2397 47.581 58.033 47.2708C57.3389 46.2076 55.8327 46.1781 55.2272 47.2856C54.7694 48.1126 54.1049 48.6294 53.278 49.0134C50.0882 50.4901 46.8985 51.9964 43.7236 53.4878C43.2067 53.7389 42.7342 53.7241 42.2173 53.4435C39.4854 51.9816 36.7535 50.5196 34.0068 49.0872C33.3275 48.7328 32.8549 48.2603 32.722 47.4628C32.6334 46.8869 32.1609 46.6654 31.6292 46.5916C31.1272 46.5177 30.6694 46.6063 30.374 47.1084C30.0049 47.7286 29.9901 47.7139 29.2517 47.5514C29.0007 47.4924 28.7349 47.5071 28.4838 47.5662C28.1885 47.6253 28.0113 47.8172 27.967 48.1126C27.7307 49.5745 28.661 50.5639 30.0935 50.3277C30.6989 50.2391 31.2305 50.3277 31.7474 50.5935C34.3907 51.9668 37.034 53.3254 39.6774 54.6987C39.8103 54.7726 40.017 54.8317 40.017 54.9793C40.017 55.1713 39.7807 55.1713 39.6478 55.2304C36.8716 56.3379 34.0806 57.4307 31.3191 58.5678C30.6251 58.8483 29.9753 58.9665 29.2813 58.6268C28.6758 58.3462 28.1442 58.5235 27.6864 58.9812C27.4649 59.2027 27.2729 59.4538 27.1253 59.7344C26.7561 60.4284 26.8151 60.8567 27.3763 61.3883C27.8045 61.787 27.967 62.2152 27.8636 62.8059C27.7455 63.5591 27.967 64.0021 28.5281 64.2827C29.1336 64.5928 29.7686 64.5042 30.2707 64.0169C30.9204 63.3966 31.4963 62.7321 31.9837 61.979C32.4119 61.2997 33.0026 60.7976 33.741 60.4727C36.6206 59.1732 39.5002 57.8737 42.3798 56.5742C42.8228 56.3822 43.192 56.3822 43.6202 56.6332C46.7656 58.4644 49.9258 60.2808 53.1007 62.0676C53.7357 62.422 54.2231 62.8355 54.4593 63.5443C54.7251 64.386 55.3306 64.7109 56.0099 64.6666Z" fill="#242021"/>
<path d="M9.52274 40.0792C9.90669 40.8619 10.0543 41.7036 10.0986 42.5453C10.1429 43.52 10.01 44.4946 9.89188 45.4693C9.81805 46.0599 9.80328 46.6359 9.99525 47.2118C10.1282 47.6105 10.2168 48.0387 9.96572 48.4375C9.89188 48.5556 9.81805 48.7033 9.65561 48.6442C9.50794 48.5851 9.56701 48.4375 9.61131 48.3341C9.74421 47.9058 9.67038 47.4924 9.56701 47.0789C9.22736 45.6465 9.33073 44.214 9.53747 42.7669C9.61131 42.3091 9.62607 41.8808 9.4784 41.4378C9.31596 40.98 9.47844 40.537 9.52274 40.0792Z" fill="#242021"/>
<path d="M77.1565 40.3007C77.2598 40.8619 77.3337 41.4083 77.1269 41.9399C76.994 42.2795 77.0679 42.6635 77.1122 43.0179C77.3189 44.5241 77.2894 46.0156 76.935 47.4924C76.8464 47.832 76.8316 48.1716 76.9054 48.5261C76.935 48.659 76.9793 48.7919 76.8316 48.91C76.4329 48.659 76.3443 48.2602 76.4624 47.8911C76.8907 46.7097 76.6839 45.5135 76.6101 44.3174C76.5215 43.0327 76.5953 41.7627 77.0531 40.537C77.0826 40.4484 77.1269 40.3746 77.1565 40.3007Z" fill="#242021"/>
<path d="M14.9275 29.3287C14.898 30.0671 14.6765 30.643 14.3073 31.1746C14.1744 31.3666 14.0562 31.4109 13.82 31.3075C12.0922 30.5396 10.3644 29.7717 8.62192 29.0186C8.38564 28.9152 8.37088 28.7971 8.41518 28.5608C8.82866 26.7887 10.3201 25.8584 12.0922 26.2866C12.801 26.4639 13.4508 26.7887 13.9824 27.2908C14.5879 27.8667 14.9275 28.5608 14.9275 29.3287Z" fill="#242021"/>
<path d="M21.2774 73.5122C19.9779 73.5122 18.9589 72.4046 19.21 71.1789C19.5644 69.4364 20.5538 68.1073 22.1782 67.3099C22.8575 66.9703 23.5368 67.0884 24.1275 67.5462C24.7624 68.0188 25.1464 68.698 24.984 69.4659C24.6295 71.1494 23.6549 72.4341 22.1487 73.3054C21.8681 73.4678 21.5432 73.5269 21.2774 73.5122Z" fill="#242021"/>
<path d="M23.0643 12.9371C23.8765 13.4983 24.5853 13.9856 25.3532 14.5024C24.792 14.8716 24.2752 15.2113 23.7731 15.5509C23.6107 15.669 23.5516 15.5657 23.5368 15.4328C23.3892 14.6501 23.2415 13.8527 23.0643 12.9371Z" fill="#242021"/>
<path d="M72.7707 63.2933C71.8699 63.1604 70.9543 62.6287 70.3341 61.6246C70.0535 61.1668 70.1273 60.6942 70.4522 60.2808C70.7771 59.8673 71.1906 59.6901 71.7222 59.8082C72.6525 60.0149 73.4204 60.4727 74.0111 61.2259C74.3508 61.6541 74.4394 62.1414 74.1588 62.6583C73.9225 63.1161 73.5385 63.3376 72.7707 63.2933Z" fill="#242021"/>
<path d="M78.456 58.0804C78.456 58.6564 77.9982 59.1584 77.4666 59.1584C76.9793 59.1584 76.6101 58.7745 76.5954 58.2576C76.5806 57.667 77.0679 57.1353 77.5995 57.1501C78.0721 57.1649 78.456 57.5783 78.456 58.0804ZM78.1755 57.918C77.9539 57.9475 77.7915 57.9475 77.6881 57.726C77.6143 57.5636 77.4076 57.5341 77.2451 57.6227C76.9941 57.7703 76.8907 58.0509 76.8464 58.302C76.8169 58.4792 77.0827 58.4792 77.2304 58.553C77.378 58.6416 77.5257 58.7007 77.6881 58.7597C77.7324 58.7745 77.821 58.7745 77.8506 58.745C77.9096 58.6711 77.8653 58.6121 77.7915 58.5678C77.4962 58.3758 77.6881 58.2724 77.8653 58.1543C77.9392 58.0952 78.1016 58.1543 78.1755 57.918Z" fill="#242021"/>
<path d="M43.8269 17.8103C44.521 17.8398 45.5399 17.825 46.5293 18.0023C47.814 18.2238 48.9807 18.7258 49.9701 19.5676C52.0375 21.3396 53.4994 23.4957 54.1344 26.1685C54.5036 27.7338 54.2821 29.2844 54.0458 30.835C53.8538 32.1049 53.6323 33.3601 53.4256 34.6154C53.396 34.8369 53.3813 35.0584 53.3517 35.2946C53.3074 35.6638 53.3665 35.9296 53.8243 36.0478C54.3264 36.1659 54.5331 36.5351 54.4593 37.0519C54.2673 38.5287 53.4403 39.6657 52.4066 40.6699C52.1408 40.9357 51.8307 40.8619 51.5501 40.6404C51.1219 40.3007 50.6789 39.9906 50.1473 39.8282C49.276 39.5328 48.7887 39.8134 48.6558 40.7142C48.449 42.0728 48.2718 43.4314 48.0799 44.7752C48.0356 45.041 48.0946 45.3216 48.1242 45.5874C48.1832 46.1928 47.8436 46.6949 47.2972 46.8869C47.0609 46.9755 46.9723 46.9312 46.9871 46.6654C47.0019 46.1781 46.9871 45.7055 46.9871 45.2182C46.9871 45.041 46.9575 44.7752 46.7803 44.7604C46.5588 44.7457 46.4555 44.9967 46.4407 45.2182C46.4259 45.6908 46.4407 46.1485 46.4259 46.6211C46.4259 46.8426 46.4555 47.1084 46.1011 47.0936C45.7909 47.0789 45.7762 46.8426 45.7909 46.6063C45.7909 46.1928 45.8057 45.7941 45.7762 45.3806C45.7614 45.1887 45.7023 44.9376 45.4661 44.9524C45.2741 44.9524 45.2298 45.2034 45.215 45.3806C45.2003 45.8237 45.1707 46.2519 45.1855 46.6949C45.1855 46.946 45.1116 47.0789 44.8606 47.0198C44.6096 46.9607 44.1961 47.1822 44.1813 46.6802C44.1665 46.3996 44.1813 46.1042 44.1813 45.8237C44.1813 45.7055 44.1813 45.5874 44.1813 45.4692C44.1665 45.2477 44.1075 44.9819 43.9007 44.9672C43.6645 44.9524 43.6054 45.2477 43.5906 45.4397C43.5611 45.8384 43.5611 46.2519 43.5759 46.6506C43.6054 47.0493 43.3248 47.005 43.1033 47.005C42.8818 47.005 42.6012 47.0493 42.6455 46.6506C42.6898 46.2076 42.6898 45.7498 42.7046 45.292C42.7046 45.1148 42.7046 44.8638 42.4979 44.849C42.3206 44.8343 42.2025 45.0558 42.1877 45.2477C42.1287 45.7203 42.0696 46.2076 42.0401 46.6802C42.0105 47.1822 41.6414 46.9607 41.4051 47.005C41.1245 47.0493 41.0802 46.8869 41.1097 46.6506C41.1393 46.1781 41.154 45.7203 41.1836 45.2477C41.1983 45.041 41.1393 44.8047 40.9178 44.79C40.7258 44.7752 40.6667 45.0115 40.652 45.2034C40.6077 45.6465 40.5781 46.1042 40.5338 46.5473C40.5191 46.7097 40.5191 46.9017 40.268 46.8574C40.0613 46.8131 39.7955 46.8426 39.8102 46.4882C39.8398 46.0895 39.8693 45.676 39.8693 45.2773C39.8693 45.0705 39.9136 44.79 39.633 44.7752C39.3967 44.7604 39.3081 45.0262 39.2786 45.233C39.2343 45.5578 39.2048 45.8975 39.1605 46.2224C39.1457 46.311 39.1752 46.4291 39.0866 46.4734C38.9685 46.5325 38.8947 46.4143 38.8208 46.3553C38.363 45.9418 38.0677 45.4545 38.0677 44.8195C38.0529 43.8006 38.0234 42.7668 37.9939 41.7479C37.9791 41.4378 37.9791 41.1129 37.92 40.8028C37.7133 39.7396 37.034 39.3113 35.9708 39.5476C35.4982 39.651 35.129 39.902 34.8041 40.2712C34.435 40.6699 34.1396 40.6699 33.7704 40.286C33.1355 39.6067 32.4857 38.9274 31.8802 38.2186C31.2896 37.5393 31.3634 36.7271 32.146 36.3136C32.8549 35.9296 32.8844 35.5162 32.722 34.8073C32.3676 33.3011 31.9836 31.7948 31.8507 30.2443C31.5554 26.8478 32.3823 23.8058 34.5679 21.1477C36.0298 19.3608 37.8757 18.2976 40.1646 18.0318C41.2869 17.8841 42.3945 17.7808 43.8269 17.8103ZM50.797 31.6619C49.7633 31.7358 48.8773 31.8096 47.9913 31.8834C47.1052 31.9573 46.2192 32.0163 45.3332 32.1049C44.8754 32.1492 44.5357 32.3707 44.4028 32.8285C44.2552 33.2863 44.2847 33.7293 44.6391 34.0837C45.4218 34.8664 46.2192 35.6491 47.0905 36.3431C47.755 36.8747 48.5229 37.0224 49.3351 36.7566C49.6895 36.6385 50.0439 36.5203 50.3983 36.3874C52.0375 35.782 53.0269 33.877 52.5839 32.1788C52.4953 31.8244 52.3033 31.6619 51.9489 31.6619C51.5058 31.6619 51.0776 31.6619 50.797 31.6619ZM36.8125 36.8157C37.8757 36.8157 38.8799 36.6828 39.7216 36.0035C40.4157 35.4423 40.9916 34.763 41.4789 34.0247C41.6118 33.8179 41.7004 33.5964 41.7743 33.3601C41.8924 32.9467 41.7743 32.6513 41.3608 32.5036C41.0359 32.3855 40.711 32.2378 40.3714 32.2231C38.5698 32.0754 36.783 31.9277 34.9814 31.7801C34.243 31.721 33.7557 32.164 33.7261 32.9171C33.7114 33.5078 33.8 34.0837 33.9329 34.6597C34.1987 35.9001 35.4982 37.0076 36.8125 36.8157ZM43.3101 38.5139C43.3248 38.5139 43.3396 38.5139 43.3544 38.5139C43.3544 39.0012 43.3396 39.4738 43.3544 39.9611C43.3544 40.1826 43.3987 40.4189 43.6054 40.5665C44.0927 40.9062 45.0378 40.5222 45.1707 39.9463C45.3627 39.1193 44.6539 37.2587 43.9598 36.7714C43.6054 36.5203 43.3544 36.6237 43.3248 37.0667C43.2953 37.554 43.3101 38.0266 43.3101 38.5139ZM43.0885 38.3219C43.0885 38.0856 43.0885 37.6426 43.0885 37.2144C43.0885 37.0224 43.059 36.8157 42.8523 36.7123C42.6603 36.6237 42.5422 36.7861 42.424 36.8895C41.5085 37.7165 41.0359 38.7206 41.2131 39.9611C41.2722 40.4041 41.7004 40.729 42.1434 40.6994C42.6012 40.6847 42.9409 40.345 42.9999 39.8577C43.0295 39.4147 43.0442 38.9569 43.0885 38.3219Z" fill="#FEFEFE"/>
<path d="M56.0099 64.6666C55.3306 64.7109 54.7251 64.3713 54.4593 63.5886C54.223 62.8798 53.7209 62.4663 53.1007 62.1119C49.9405 60.3103 46.7803 58.4939 43.6202 56.6776C43.1919 56.4265 42.8227 56.4265 42.3797 56.6185C39.5001 57.9328 36.6205 59.2175 33.7409 60.517C33.0025 60.8419 32.4266 61.344 31.9836 62.0233C31.4963 62.7764 30.9204 63.4409 30.2706 64.0611C29.7685 64.5337 29.1188 64.6223 28.5281 64.327C27.9669 64.0464 27.7307 63.6034 27.8636 62.8502C27.9669 62.2743 27.7897 61.8313 27.3762 61.4326C26.8003 60.901 26.756 60.4727 27.1252 59.7787C27.2729 59.4981 27.4648 59.247 27.6864 59.0255C28.1441 58.553 28.6758 58.3758 29.2812 58.6711C29.99 58.996 30.6398 58.8926 31.3191 58.6121C34.0953 57.4897 36.8716 56.397 39.6478 55.2747C39.7955 55.2156 40.0317 55.2156 40.017 55.0236C40.017 54.8907 39.8102 54.8169 39.6773 54.743C37.034 53.3697 34.3907 51.9963 31.7473 50.6378C31.2305 50.372 30.6841 50.2834 30.0934 50.372C28.661 50.5935 27.7307 49.6041 27.9669 48.1569C28.0112 47.8468 28.2032 47.6696 28.4838 47.6105C28.7348 47.5514 28.9859 47.5514 29.2517 47.5957C30.0048 47.7582 30.0048 47.7729 30.374 47.1527C30.6693 46.6654 31.1271 46.562 31.6292 46.6359C32.1461 46.7097 32.6186 46.9312 32.722 47.5071C32.8549 48.3046 33.3274 48.7771 34.0067 49.1315C36.7534 50.5787 39.4853 52.0259 42.2173 53.4878C42.7341 53.7684 43.1919 53.7832 43.7235 53.5321C46.9132 52.0259 50.0882 50.5344 53.2779 49.0577C54.1049 48.6737 54.7694 48.1421 55.2272 47.3299C55.8474 46.2224 57.3389 46.2371 58.0329 47.3151C58.2249 47.6105 58.2249 47.9206 58.0182 48.2012C57.9 48.3636 57.7671 48.4965 57.6195 48.6294C57.206 48.9838 57.0288 49.3678 57.1765 49.9437C57.3389 50.5639 57.0583 51.0955 56.5267 51.4647C56.1427 51.7453 55.7293 51.8044 55.301 51.5386C54.7842 51.2137 54.2525 51.2285 53.7062 51.4795C51.1662 52.6609 48.6262 53.8422 46.1011 55.0236C45.9681 55.0827 45.7762 55.1122 45.7762 55.2894C45.7762 55.4371 45.9681 55.4666 46.0863 55.5257C48.4343 56.7219 50.7675 57.9328 53.1155 59.1289C53.5142 59.3356 53.9277 59.439 54.3707 59.4538C55.4339 59.4981 56.5119 59.5424 57.5752 59.5867C58.2102 59.6162 58.6532 59.9411 58.919 60.5023C59.2291 61.1815 59.0962 61.7427 58.4907 62.1562C57.9739 62.4958 57.6933 62.8945 57.6933 63.5591C57.7081 64.3417 57.1913 64.6814 56.0099 64.6666Z" fill="#FEFEFE"/>
<path d="M78.1755 57.918C78.1016 58.1543 77.9392 58.0952 77.8506 58.1543C77.6734 58.2576 77.4814 58.3758 77.7767 58.5677C77.8506 58.612 77.9096 58.6711 77.8358 58.7449C77.8063 58.7745 77.7177 58.7745 77.6733 58.7597C77.5257 58.7006 77.3633 58.6416 77.2156 58.553C77.0827 58.4791 76.8021 58.4791 76.8316 58.3019C76.8759 58.0509 76.9793 57.7703 77.2303 57.6226C77.3928 57.534 77.5995 57.5636 77.6733 57.726C77.7915 57.9475 77.9539 57.9475 78.1755 57.918ZM77.5995 58.0214C77.5848 57.8737 77.5109 57.7703 77.378 57.7851C77.186 57.8146 77.127 57.9918 77.0827 58.1395C77.0384 58.3315 77.2451 58.361 77.3485 58.361C77.57 58.361 77.5257 58.1395 77.5995 58.0214Z" fill="#FEFEFE"/>
<path d="M50.797 31.6619C51.0776 31.6619 51.5206 31.6619 51.9489 31.6619C52.3033 31.6619 52.4953 31.8244 52.5839 32.1788C53.0269 33.877 52.0375 35.782 50.3983 36.3874C50.0439 36.5203 49.6895 36.6385 49.3351 36.7566C48.5081 37.0224 47.755 36.8747 47.0905 36.3431C46.2192 35.6491 45.4218 34.8664 44.6391 34.0837C44.2847 33.7293 44.2552 33.2863 44.4028 32.8285C44.5505 32.3707 44.8754 32.1492 45.3332 32.1049C46.2192 32.0311 47.1052 31.9573 47.9913 31.8834C48.8625 31.8096 49.7486 31.7505 50.797 31.6619Z" fill="#242021"/>
<path d="M36.8125 36.8157C35.4834 37.0076 34.1987 35.9149 33.9181 34.6449C33.7852 34.069 33.6966 33.493 33.7114 32.9024C33.7409 32.1492 34.2282 31.7062 34.9666 31.7653C36.7682 31.8982 38.5698 32.0459 40.3566 32.2083C40.6963 32.2378 41.0212 32.3707 41.346 32.4889C41.7595 32.6513 41.8776 32.9467 41.7595 33.3454C41.7004 33.5817 41.5971 33.8032 41.4642 34.0099C40.9768 34.763 40.4009 35.4276 39.7069 35.9887C38.8799 36.668 37.8757 36.8157 36.8125 36.8157Z" fill="#242021"/>
<path d="M43.3101 38.5139C43.3101 38.0266 43.2953 37.554 43.3101 37.0667C43.3396 36.6237 43.5906 36.5203 43.945 36.7714C44.6391 37.2587 45.3479 39.1194 45.156 39.9463C45.023 40.5222 44.0779 40.8914 43.5906 40.5665C43.3839 40.4189 43.3544 40.1826 43.3396 39.9611C43.3248 39.4738 43.3396 39.0012 43.3396 38.5139C43.3396 38.5139 43.3248 38.5139 43.3101 38.5139Z" fill="#242021"/>
<path d="M43.0885 38.3219C43.0442 38.9717 43.0295 39.4147 42.9852 39.8577C42.9409 40.345 42.5865 40.6699 42.1287 40.6994C41.6857 40.7142 41.2427 40.4041 41.1984 39.9611C41.0359 38.7206 41.5085 37.7017 42.4093 36.8895C42.5274 36.7861 42.6603 36.6385 42.8375 36.7123C43.0443 36.8009 43.0738 37.0076 43.0738 37.2144C43.0886 37.6426 43.0885 38.0709 43.0885 38.3219Z" fill="#242021"/>
<path d="M77.5995 58.0214C77.5257 58.1395 77.57 58.3758 77.3485 58.361C77.2451 58.361 77.0384 58.3315 77.0827 58.1395C77.1122 57.9918 77.186 57.7998 77.378 57.7851C77.5109 57.7555 77.5848 57.8737 77.5995 58.0214Z" fill="#242021"/>
</svg>
