<svg xmlns="http://www.w3.org/2000/svg" width="192" height="38" fill="none" viewBox="0 0 192 38"><path fill="#000" d="M127.367 29.155c-1.395 0-2.567-1.172-2.567-2.627 0-1.435 1.192-2.587 2.567-2.587a2.596 2.596 0 0 1 2.607 2.587c0 1.475-1.152 2.627-2.607 2.627Zm13.157.101c-4.224 0-8.327-3.233-8.327-8.67 0-5.517 4.204-8.751 8.428-8.751 2.951 0 5.558 1.597 7.033 3.597l-2.385 2.062c-1.293-1.556-2.849-2.425-4.648-2.425-2.668 0-5.113 1.758-5.113 5.517 0 3.618 2.283 5.457 5.032 5.457 2.183 0 3.921-1.192 4.749-2.85l2.668 1.658c-1.657 2.85-4.406 4.405-7.437 4.405Zm31.346-14.551c.93-1.84 2.749-3.032 4.932-3.032 2.041 0 3.698 1.031 4.587 2.688 1.193-1.657 2.87-2.688 4.952-2.688 3.274 0 5.659 2.628 5.659 6.508v10.57h-3.537V18.383c0-2.162-1.192-3.496-2.951-3.496-1.758 0-3.031 1.455-3.031 3.496v10.368h-3.274V18.383c0-2.02-1.294-3.496-3.113-3.496-1.859 0-3.112 1.455-3.112 3.496v10.368h-3.395V11.936h3.213v2.95l-.93-.181Zm-13.965 11.237c-3.113 0-5.477-2.385-5.477-5.619 0-3.233 2.385-5.416 5.477-5.416 2.91 0 5.113 2.203 5.113 5.416 0 3.214-2.203 5.619-5.113 5.619Zm-.101 3.213c5.052 0 8.529-3.698 8.529-8.75 0-5.094-3.477-8.752-8.529-8.752-4.932 0-8.691 3.658-8.691 8.751 0 5.073 3.759 8.751 8.691 8.751ZM114.028 29.155c2.91 0 5.841-1.657 7.397-4.426l-2.547-1.657c-.929 1.657-2.506 2.85-4.85 2.85-2.567 0-4.932-1.92-4.932-5.518 0-3.78 2.345-5.517 4.932-5.517 1.92 0 3.476.788 4.85 2.465l2.244-2.02c-1.455-2.103-4.002-3.659-6.933-3.659-4.304 0-8.528 3.234-8.528 8.751 0 5.518 4.143 8.731 8.367 8.731Zm-13.157-20.17c1.495 0 2.607-1.131 2.607-2.587 0-1.495-1.132-2.627-2.607-2.627-1.455 0-2.567 1.132-2.567 2.627 0 1.456 1.112 2.587 2.567 2.587ZM99.193 12.2V28.75h3.274V12.2h-3.274Zm-7.942-8.71V28.75h3.577V3.488H91.25ZM80.094 29.154c4.75 0 8.064-3.698 8.064-8.75 0-4.79-3.496-8.752-8.064-8.752-2.486 0-4.304 1.03-5.315 2.688V3.488h-3.638v25.263h3.638V26.65c1.01 1.577 2.83 2.506 5.315 2.506Zm-.303-3.375c-3.274 0-5.477-2.223-5.477-5.356 0-3.051 2.223-5.355 5.477-5.355 2.95 0 5.053 2.122 5.053 5.355 0 3.113-2.102 5.356-5.053 5.356Zm-20.554 3.214c1.758 0 3.213-.768 4.305-2.325v2.102h3.395V12.2h-3.496v9.58c0 2.425-1.455 3.981-3.84 3.981-2.021 0-3.113-1.758-3.113-3.981v-9.58h-3.557v10.146c0 3.86 2.385 6.649 6.306 6.649ZM41.593 25.78c-3.375 0-5.376-2.223-5.376-5.356 0-3.051 2.021-5.355 5.376-5.355 3.214 0 5.194 2.304 5.194 5.355 0 3.113-1.98 5.356-5.194 5.356ZM36.38 12.2h-3.476v22.474h3.476v-8.004c1.495 1.557 3.294 2.486 5.68 2.486 4.728 0 8.124-3.96 8.124-8.75 0-5.094-3.396-8.752-8.125-8.752-2.385 0-4.204 1.03-5.679 2.688V12.2ZM21.949 11.673c0 6.084-4.932 11.035-10.975 11.035C4.931 22.708 0 17.757 0 11.673 0 5.59 4.931.638 10.974.638S21.95 5.59 21.95 11.673ZM10.974 31.884c0 3.052-2.486 5.558-5.477 5.558C2.486 37.442 0 34.956 0 31.884c0-2.991 2.486-5.477 5.477-5.477s5.497 2.486 5.497 5.477Z"/></svg>