<svg xmlns="http://www.w3.org/2000/svg" width="192" height="30" fill="none" viewBox="0 0 192 30"><path fill="#000" d="M182.291 13.252v4.004h2.813v3.971c.009.355-.011.738-.072 1.044-.111.741-.815 2.002-2.812 2.002-1.985 0-2.676-1.26-2.796-2.002a6.859 6.859 0 0 1-.072-1.044V8.683c0-.444.03-.93.124-1.297.136-.669.729-1.988 2.729-1.988 2.1 0 2.624 1.39 2.744 1.988.079.395.083 1.058.083 1.058v1.524h6.913v-.9s.031-.94-.052-1.817c-.52-5.15-4.762-6.778-9.627-6.778-4.873 0-9.03 1.644-9.635 6.778-.055.469-.138 1.314-.138 1.816v11.54c0 .503.016.892.109 1.81.451 5.007 4.791 6.782 9.645 6.782 4.884 0 9.193-1.775 9.652-6.782.082-.918.09-1.307.101-1.81v-7.355h-9.709ZM134.627 1.211h-6.941v20.306c.01.354 0 .751-.061 1.043-.145.681-.723 1.993-2.638 1.993-1.891 0-2.484-1.312-2.617-1.994-.07-.29-.079-.689-.07-1.042V1.21h-6.94v19.676c-.008.507.031 1.543.061 1.814.479 5.127 4.52 6.792 9.566 6.792 5.055 0 9.094-1.665 9.581-6.792.039-.271.089-1.307.059-1.814V1.21Zm-63.782 0-3.463 21.456-3.46-21.456H52.723l-.594 27.448h6.86l.185-25.41 4.72 25.41h6.96l4.725-25.41.186 25.41h6.878L82.03 1.211H70.845Zm-41.46 0-5.084 27.448h7.415l3.831-25.41 3.74 25.41h7.363L41.587 1.211H29.386ZM158.889 23.31 152.424 1.21h-10.186v27.162h6.738l-.391-22.806 6.942 22.806h9.769V1.21h-6.783l.375 22.099ZM96.561 8.354a3.683 3.683 0 0 1-.023-1.419c.196-.878.787-1.836 2.487-1.836 1.586 0 2.515.988 2.515 2.47v1.68h6.767V7.334c0-5.914-5.302-6.843-9.141-6.843-4.835 0-8.783 1.594-9.504 6.044-.191 1.21-.238 2.286.065 3.658 1.176 5.548 10.835 7.158 12.237 10.667.248.664.177 1.512.051 2.011-.21.914-.824 1.832-2.646 1.832-1.708 0-2.736-.982-2.736-2.462l-.002-2.634h-7.284v2.094c0 6.067 4.753 7.898 9.872 7.898 4.902 0 8.951-1.675 9.6-6.216.31-2.346.076-3.875-.048-4.45-1.135-5.691-11.43-7.403-12.21-10.58ZM7.296 8.287c-.133-.553-.102-1.137-.028-1.442.187-.874.781-1.85 2.512-1.85 1.606 0 2.55.998 2.55 2.493v1.7h6.847V7.258c0-5.97-5.383-6.922-9.264-6.922-4.875 0-8.86 1.618-9.588 6.1-.2 1.23-.234 2.313.055 3.7 1.188 5.611 10.943 7.234 12.362 10.785.266.66.186 1.508.054 2.027-.225.922-.845 1.854-2.68 1.854-1.715 0-2.741-.999-2.741-2.5l-.01-2.64H0v2.098c0 6.137 4.82 7.983 9.978 7.983 4.96 0 9.032-1.69 9.696-6.284.33-2.368.083-3.909-.029-4.493-1.158-5.76-11.568-7.467-12.35-10.68Z"/></svg>