<svg xmlns="http://www.w3.org/2000/svg" width="144" height="32" fill="none" viewBox="0 0 144 32"><path fill="#000" d="m121.576.733.24.239 15.983 14.79V1.608H144v29.739c-5.407-5.01-10.813-10.1-16.3-15.108v14.074h-6.124V.733ZM2.147 5.345C3.817 2.88 6.759 1.53 9.62 1.211c4.373-.398 9.144.318 12.563 3.339-1.43 1.351-2.941 2.624-4.373 3.976-1.59-1.431-3.736-2.147-5.884-2.147-1.59-.08-3.26.477-4.135 1.829-.636.954-.397 2.385.477 3.1 1.431 1.194 3.26 1.75 5.01 2.386 2.544.796 5.089 1.67 7.156 3.419 2.862 2.307 3.498 6.997 1.272 9.94-1.908 2.545-5.01 3.896-8.11 4.133-2.784.08-5.567 0-8.19-.952C3.418 29.598 1.67 28.484 0 27.29c1.431-1.351 2.941-2.703 4.373-4.055 2.465 1.91 5.645 2.943 8.747 2.545 1.351-.238 2.783-.954 3.26-2.306.318-1.192-.398-2.385-1.431-2.942-3.18-1.83-6.919-2.225-10.02-4.214-1.67-1.034-3.1-2.624-3.657-4.532-.636-2.227-.398-4.612.875-6.44ZM33.634 1.688h6.202v11.37H52.4V1.688h6.282V30.47H52.4V17.75H39.836v12.721h-6.202V1.688ZM70.847 1.688h21.15v4.61H76.97v6.84h14.79v4.532H76.97v7.872h15.028v4.929H70.847V1.688ZM103.05 1.688h6.203V30.47h-6.203V1.688Z"/></svg>