<svg xmlns="http://www.w3.org/2000/svg" width="140" height="50" fill="none" viewBox="0 0 140 50"><path fill="#000" d="M7.48 30.17a118.516 118.516 0 0 0-2.553-1.48C2.54 27.314.727 25.298.256 22.576c-.74-4.369-.067-8.065 4.57-10.854 5.847-3.495 11.762-6.822 17.676-10.216 5.78-3.293 13.408.538 14.282 7.158a9.671 9.671 0 0 1-4.974 9.947 75.79 75.79 0 0 0-2.453 1.445c.874.504 1.613.974 2.386 1.41 6.15 3.462 6.956 11.628 1.546 16.131-1.075.874-2.352 1.512-3.562 2.218a1381.017 1381.017 0 0 1-15.29 8.804c-4.738 2.554-10.653.74-13.207-3.999a9.704 9.704 0 0 1 3.36-12.803c.975-.504 1.883-1.042 2.89-1.646Zm6.218 2.318 12.702-7.36-12.702-7.325v14.685ZM64.642 42.435V6.714h5.545v13.105c.168-.268.403-.638.672-1.008 1.848-2.487 5.88-2.923 7.83-.74.57.707 1.008 1.547 1.21 2.42.235.874.335 1.748.335 2.655.034 6.25 0 12.501 0 18.751 0 .169 0 .337-.033.538h-5.68V23.818c0-.605-.067-1.243-.234-1.848-.27-.94-1.009-1.344-1.983-1.176a2.349 2.349 0 0 0-2.017 2.453v19.188h-5.645ZM46.764 32.69h5.21c0 .773-.034 1.58 0 2.352.033.605.134 1.243.302 1.815.37 1.31 1.21 1.882 2.486 1.814 1.277-.067 2.05-.773 2.319-2.05.571-3.024-.302-5.645-2.487-7.796-1.478-1.445-3.058-2.789-4.57-4.2-3.696-3.428-4.234-7.73-3.192-12.367.537-2.386 2.218-3.864 4.57-4.503a12.446 12.446 0 0 1 5.78-.168c2.487.538 4.066 1.983 4.738 4.47.504 1.881.47 3.763.235 5.712l-5.074.337c-.1-1.345-.168-2.655-.269-3.932-.033-.236-.067-.504-.134-.74-.336-1.243-1.008-1.78-2.218-1.747-1.21.034-2.084.571-2.352 1.781-.605 2.621-.168 4.974 1.814 6.923a360.939 360.939 0 0 0 5.175 4.973c3.966 3.764 4.436 8.368 2.991 13.341-.605 2.05-2.083 3.293-4.167 3.83a13.12 13.12 0 0 1-6.15.169c-2.99-.605-4.603-2.285-5.074-5.31-.235-1.512-.201-3.125.067-4.704ZM82.419 29.968c.201-2.352.302-4.671.638-6.99a10.328 10.328 0 0 1 1.11-3.091c.772-1.546 2.116-2.454 3.796-2.857 1.58-.37 3.193-.403 4.772-.1 2.89.537 4.436 2.486 5.007 5.208.336 1.714.538 3.428.572 5.175.067 3.125.201 6.25-.37 9.342-.168.874-.403 1.748-.773 2.554-.672 1.647-2.083 2.89-3.83 3.293a11.493 11.493 0 0 1-5.848 0c-2.79-.739-4.033-2.89-4.436-5.477-.403-2.319-.47-4.705-.638-7.057Zm10.215-.067H92.5c0-1.882.067-3.764-.034-5.646a9.113 9.113 0 0 0-.537-2.52 1.63 1.63 0 0 0-2.084-.941 1.624 1.624 0 0 0-.94.94c-.27.74-.471 1.547-.505 2.32a331.45 331.45 0 0 0 0 11.56c.067.806.235 1.646.538 2.385a1.402 1.402 0 0 0 1.478.941c.639.068 1.244-.302 1.513-.907.235-.437.37-.941.437-1.445.134-2.184.201-4.436.268-6.687ZM125.6 34.74h4.772c.101.94.269 1.881.504 2.789a2.106 2.106 0 0 0 2.353 1.512c1.646-.235 2.52-1.781 1.68-3.293a8.748 8.748 0 0 0-2.016-2.285c-1.479-1.277-3.058-2.42-4.537-3.697-2.722-2.453-3.226-5.544-2.352-8.939.504-1.982 1.915-3.158 3.864-3.663a11.476 11.476 0 0 1 5.646-.1c2.386.571 3.73 2.117 4.133 4.839.168 1.142.168 2.319.235 3.595l-2.486.135-2.319.1c-.134-1.142-.202-2.217-.403-3.293-.236-1.176-.908-1.68-2.05-1.613-1.412.068-2.084.908-1.983 2.32.034 1.108.571 2.15 1.479 2.856 1.546 1.243 3.125 2.419 4.671 3.662 1.445 1.177 2.789 2.52 3.058 4.436a16.39 16.39 0 0 1 0 4.436c-.336 2.084-1.748 3.428-3.798 4.066a11.22 11.22 0 0 1-6.317.1c-2.386-.638-3.865-2.318-4.066-4.805-.135-1.008-.068-2.016-.068-3.158ZM120.325 21.701c0 5.04-.034 9.98 0 14.92 0 1.849.403 2.118 2.251 1.815.37-.067.706-.168 1.176-.269.236 1.21.471 2.42.706 3.663-2.285.907-4.537 1.31-6.922.84a2.679 2.679 0 0 1-2.252-2.15 19.118 19.118 0 0 1-.47-3.663c-.034-4.772-.034-9.51-.034-14.248v-.807h-2.016v-4.503c.571 0 1.109-.034 1.646 0 .538.034.672-.134.706-.639.168-2.117.403-4.2.605-6.317 0-.168.067-.303.101-.504h4.2v7.46h3.831v4.402h-3.528ZM111.453 16.828c-.101 2.218-.168 4.37-.269 6.486-1.042 0-2.016-.067-2.991.034-.504.1-1.008.302-1.411.638-.504.336-.773.941-.739 1.546.033 5.377 0 10.753 0 16.13v.773h-5.444V17.232h4.335c.168 1.814.336 3.63.504 5.41h.134c.101-.638.269-1.243.471-1.848.369-.941.84-1.848 1.411-2.689.941-1.277 2.352-1.613 3.999-1.277Z"/><path fill="#FEF9F9" d="M13.698 32.488V17.803L26.4 25.129l-12.702 7.36Z"/></svg>