<svg xmlns="http://www.w3.org/2000/svg" width="184" height="28" fill="none" viewBox="0 0 184 28"><path fill="#000" d="M4.678 18.59v2.44c0 1.327.12 1.81.265 2.124.435.941 1.207 1.038 1.932 1.038.458 0 1.231-.049 1.714-.531.386-.459.434-1.328.434-1.811v-1.787c0-1.086-.386-2.124-1.4-3.066l-4.539-4.176c-.7-.652-1.327-1.28-1.81-2.125C.598 9.562.38 8.427.38 7.196V5.023c0-1.28.628-2.56 1.473-3.38C3.398.22 5.957.098 6.923.098c1.545 0 3.404.241 4.852 1.617 1.425 1.4 1.546 3.09 1.546 4.153V8.62H8.903V6.375c0-.628.048-1.231-.507-1.859-.387-.435-.894-.628-1.521-.628-.531 0-1.232.145-1.618.531-.434.435-.459.942-.459 1.425v1.231c0 .966.266 1.473 1.087 2.221l4.539 4.153c1.472 1.351 3.017 2.873 3.017 5.745v3.09c0 1.28-.145 2.801-1.545 4.153-1.424 1.4-3.138 1.545-4.756 1.545-1.424 0-3.066-.241-4.538-1.231C.574 25.375.26 23.323.26 21.97v-3.38h4.418ZM19.767 27.62V4.299h-4.78V.484h13.881v3.79h-4.683v23.322h-4.418v.024ZM31.186.484h11.322v3.79h-6.904v6.519h5.36v3.79h-5.36v9.222h7.484v3.79H31.186V.486ZM48.858 27.62 44.392.484h4.659l2.438 18.759L53.928.484h4.66L54.12 27.62h-5.263ZM60.88.484h11.323v3.79H65.3v6.519h5.36v3.79h-5.36v9.222h7.484v3.79H60.88V.486ZM91.88 27.62 88.691 7.196H88.5l.242 3.597V27.62h-4.418V.484H91.3l2.583 17.527h.145L96.635.484h6.977V27.62h-4.418V10.793l.242-3.597h-.194L96.056 27.62h-4.177ZM116.77 27.62l-.773-4.997h-4.732l-.772 4.997h-4.563L110.903.484h5.432l4.997 27.136h-4.562Zm-1.28-8.788-1.811-10.815h-.072l-1.811 10.815h3.694ZM123.626.484h8.329c.845 0 2.414.073 3.694 1.328 1.472 1.424 1.472 3.187 1.472 4.804v14.486c0 1.593-.12 3.718-1.786 5.238-1.231 1.16-2.704 1.28-3.79 1.28h-7.919V.484Zm6.591 23.466c1.086 0 1.786-.507 2.052-.941.386-.531.434-1.81.434-2.439V7.316c0-.7.049-1.617-.458-2.293-.507-.652-1.159-.748-1.811-.748h-2.366v19.651h2.149v.024ZM139.705.484h8.329c.845 0 2.414.073 3.693 1.328C153.2 3.236 153.2 5 153.2 6.616v14.486c0 1.593-.121 3.718-1.787 5.238-1.231 1.16-2.703 1.28-3.79 1.28h-7.894V.484h-.024Zm6.59 23.466c1.087 0 1.787-.507 2.052-.941.387-.531.435-1.81.435-2.439V7.316c0-.7.048-1.617-.459-2.293-.507-.652-1.159-.748-1.81-.748h-2.366v19.651h2.148v.024ZM155.783.484h11.323v3.79h-6.905v6.519h5.36v3.79h-5.36v9.222h7.484v3.79h-11.902V.486ZM179.008 27.62l-4.611-16.006-.145.048.193 3.066v12.916h-4.418V.484h4.877l4.538 15.306h.121l-.241-2.873V.484h4.418V27.62h-4.732Z"/></svg>